{"glyphs":{"0":{"ha":833,"x_min":69,"x_max":764,"o":"m 417 90 q 582 201 531 90 q 628 489 628 299 q 568 800 628 704 q 417 882 517 882 q 251 774 303 882 q 206 489 206 678 q 265 175 206 272 q 417 90 317 90 m 417 -21 q 157 121 250 -21 q 69 489 69 254 q 182 892 69 761 q 417 993 271 993 q 676 858 585 993 q 764 489 764 728 q 651 88 764 221 q 417 -21 561 -21 z "},"1":{"ha":833,"x_min":185,"x_max":535,"o":"m 535 0 l 403 0 l 403 833 l 185 721 l 185 858 l 404 972 l 535 972 l 535 0 z "},"2":{"ha":833,"x_min":83,"x_max":742,"o":"m 224 718 l 83 718 q 203 924 100 847 q 425 993 294 993 q 663 910 574 993 q 742 717 742 833 q 683 526 742 614 q 510 333 636 453 l 288 122 l 738 122 l 738 0 l 107 0 l 107 122 l 424 426 q 567 588 529 528 q 606 715 606 649 q 550 840 606 796 q 422 881 501 881 q 279 832 333 881 q 224 718 232 789 z "},"3":{"ha":833,"x_min":68,"x_max":763,"o":"m 763 265 q 656 50 763 131 q 418 -19 563 -19 q 164 63 258 -19 q 68 242 83 131 l 210 242 q 415 92 244 92 q 578 147 521 92 q 626 268 626 194 q 557 415 626 365 q 435 451 506 451 l 354 451 l 354 567 l 432 567 q 546 611 500 567 q 593 729 593 656 q 528 850 593 807 q 407 882 478 882 q 267 839 321 882 q 211 743 221 801 l 71 743 q 194 933 90 865 q 414 993 285 993 q 644 922 556 993 q 729 739 729 854 q 674 593 729 656 q 554 517 626 539 q 707 428 650 496 q 763 265 763 361 z "},"4":{"ha":833,"x_min":61,"x_max":774,"o":"m 478 972 l 617 972 l 617 297 l 774 297 l 774 183 l 617 183 l 617 0 l 488 0 l 488 183 l 61 183 l 61 307 l 478 972 m 210 297 l 488 297 l 488 757 l 210 297 z "},"5":{"ha":833,"x_min":71,"x_max":767,"o":"m 71 236 l 213 236 q 285 129 228 168 q 418 92 339 92 q 576 160 517 92 q 629 321 629 221 q 564 492 629 433 q 421 542 510 542 q 226 453 301 542 l 108 453 l 129 972 l 726 972 l 726 860 l 250 860 l 239 575 q 451 646 328 646 q 683 551 596 646 q 767 315 767 461 q 663 68 767 164 q 417 -21 567 -21 q 165 68 265 -21 q 71 236 88 138 z "},"6":{"ha":833,"x_min":97,"x_max":764,"o":"m 461 636 q 694 532 611 636 q 764 310 764 444 q 649 50 764 142 q 439 -21 560 -21 q 172 117 260 -21 q 97 447 97 235 q 221 900 97 765 q 451 993 307 993 q 651 931 569 993 q 744 788 724 875 l 597 788 q 546 859 585 833 q 450 885 507 885 q 229 510 249 885 q 328 603 267 569 q 461 636 389 636 m 243 314 q 307 140 243 201 q 439 90 358 90 q 581 153 528 90 q 629 303 629 211 q 571 472 629 413 q 438 525 519 525 q 285 454 338 525 q 243 314 243 397 z "},"7":{"ha":833,"x_min":104,"x_max":722,"o":"m 722 853 l 325 0 l 174 0 l 581 853 l 104 853 l 104 972 l 722 972 l 722 853 z "},"8":{"ha":833,"x_min":63,"x_max":771,"o":"m 735 743 q 693 617 735 675 q 575 518 651 558 q 771 263 771 432 q 661 49 771 129 q 417 -21 564 -21 q 147 67 247 -21 q 63 253 63 142 q 132 432 63 360 q 253 510 179 482 q 99 733 99 582 q 207 939 99 868 q 417 993 292 993 q 650 926 563 993 q 735 743 735 860 m 629 263 q 539 419 629 369 q 388 468 494 444 q 258 396 307 444 q 204 263 204 340 q 264 135 204 182 q 417 89 319 89 q 583 144 526 89 q 629 263 629 189 m 229 740 q 314 590 229 638 q 444 553 363 564 q 601 740 601 614 q 540 854 601 813 q 417 889 489 889 q 278 847 331 889 q 229 740 229 807 z "},"9":{"ha":833,"x_min":97,"x_max":764,"o":"m 400 336 q 172 435 256 336 q 97 663 97 522 q 203 914 97 821 q 422 993 292 993 q 764 525 764 993 q 406 -21 764 -21 q 204 43 286 -21 q 111 188 133 99 l 258 188 q 411 88 288 88 q 568 179 514 88 q 631 461 621 271 q 533 369 593 401 q 400 336 472 336 m 618 658 q 554 832 618 771 q 422 882 503 882 q 281 818 333 882 q 232 669 232 761 q 294 496 232 557 q 424 447 346 447 q 576 518 524 447 q 618 658 618 575 z "}," ":{"ha":417,"x_min":0,"x_max":0,"o":""},"!":{"ha":396,"x_min":118,"x_max":278,"o":"m 278 0 l 118 0 l 118 161 l 278 161 l 278 0 m 250 333 l 146 333 l 118 1000 l 278 1000 l 250 333 z "},"\"":{"ha":583,"x_min":111,"x_max":472,"o":"m 250 893 l 229 681 l 132 681 l 111 893 l 111 1021 l 250 1021 l 250 893 m 472 893 l 451 681 l 354 681 l 333 893 l 333 1021 l 472 1021 l 472 893 z "},"#":{"ha":833,"x_min":28,"x_max":806,"o":"m 56 618 l 56 722 l 174 722 l 196 972 l 313 972 l 290 722 l 583 722 l 606 972 l 722 972 l 700 722 l 806 722 l 806 618 l 690 618 l 668 354 l 778 354 l 778 250 l 658 250 l 638 0 l 521 0 l 542 250 l 249 250 l 228 0 l 111 0 l 132 250 l 28 250 l 28 354 l 142 354 l 164 618 l 56 618 m 281 618 l 258 354 l 551 354 l 574 618 l 281 618 z "},"$":{"ha":833,"x_min":35,"x_max":799,"o":"m 358 -187 l 358 -17 q 132 79 218 -1 q 35 271 53 153 l 181 271 q 422 96 207 96 q 607 150 544 96 q 657 264 657 194 q 642 331 657 304 q 594 379 628 357 q 358 465 531 421 q 125 583 192 508 q 69 742 69 646 q 153 915 69 849 q 358 990 229 978 l 358 1153 l 482 1153 l 482 990 q 707 900 626 976 q 792 731 776 835 l 646 731 q 408 876 619 876 q 251 835 301 876 q 211 750 211 803 q 260 651 211 686 q 458 575 314 613 q 735 440 654 525 q 799 269 799 372 q 707 71 799 151 q 482 -18 621 -6 l 482 -187 l 358 -187 z "},"%":{"ha":1168,"x_min":49,"x_max":1119,"o":"m 522 758 q 440 575 522 640 q 285 524 375 524 q 113 590 179 524 q 49 758 49 654 q 131 942 49 878 q 285 993 194 993 q 457 926 390 993 q 522 758 522 863 m 161 758 q 201 647 161 683 q 285 621 233 621 q 378 657 344 621 q 411 758 411 692 q 368 869 411 833 q 285 896 336 896 q 193 860 225 896 q 161 758 161 825 m 911 972 l 381 0 l 247 0 l 778 972 l 911 972 m 1119 214 q 1038 31 1119 96 q 882 -21 972 -21 q 710 46 776 -21 q 646 214 646 110 q 728 397 646 333 q 882 449 792 449 q 1054 382 988 449 q 1119 214 1119 318 m 758 214 q 799 103 758 139 q 882 76 831 76 q 975 113 942 76 q 1008 214 1008 147 q 965 325 1008 289 q 882 351 933 351 q 790 315 822 351 q 758 214 758 281 z "},"&":{"ha":951,"x_min":56,"x_max":910,"o":"m 746 472 l 868 457 q 774 194 850 313 l 910 67 l 811 -21 l 692 94 q 397 -21 569 -21 q 139 60 235 -21 q 56 239 56 131 q 101 397 56 333 q 258 522 147 460 q 157 647 183 599 q 131 756 131 694 q 214 928 131 856 q 396 993 289 993 q 594 917 517 993 q 657 778 657 856 q 453 499 657 601 l 685 279 q 746 472 732 369 m 407 94 q 608 176 524 94 l 338 442 q 228 353 261 399 q 194 249 194 308 q 257 131 194 172 q 407 94 313 94 m 260 757 q 281 679 260 714 q 368 579 301 644 q 495 670 458 626 q 532 774 532 714 q 494 853 532 822 q 399 885 457 885 q 288 838 326 885 q 260 757 260 803 z "},"'":{"ha":375,"x_min":118,"x_max":257,"o":"m 257 893 l 236 681 l 139 681 l 118 893 l 118 1021 l 257 1021 l 257 893 z "},"(":{"ha":472,"x_min":90,"x_max":431,"o":"m 225 444 q 431 -236 225 78 l 321 -236 q 157 68 217 -99 q 90 444 90 251 q 175 867 90 663 q 321 1125 232 1007 l 431 1125 q 225 444 225 811 z "},")":{"ha":472,"x_min":42,"x_max":382,"o":"m 247 444 q 42 1125 247 811 l 151 1125 q 315 821 256 988 q 382 444 382 638 q 297 22 382 226 q 151 -236 240 -118 l 42 -236 q 247 444 247 78 z "},"*":{"ha":653,"x_min":63,"x_max":590,"o":"m 386 1021 l 363 815 l 550 901 l 590 785 l 386 743 l 525 593 l 425 521 l 325 699 l 224 519 l 125 593 l 264 744 l 63 785 l 103 901 l 288 817 l 264 1021 l 386 1021 z "},"+":{"ha":833,"x_min":125,"x_max":708,"o":"m 354 156 l 354 388 l 125 388 l 125 506 l 354 506 l 354 739 l 481 739 l 481 506 l 708 506 l 708 388 l 481 388 l 481 156 l 354 156 z "},",":{"ha":417,"x_min":107,"x_max":289,"o":"m 289 161 l 289 21 q 224 -156 289 -94 q 107 -208 178 -200 l 107 -139 q 193 0 193 -121 l 128 0 l 128 161 l 289 161 z "},"-":{"ha":750,"x_min":125,"x_max":625,"o":"m 625 389 l 125 389 l 125 507 l 625 507 l 625 389 z "},".":{"ha":417,"x_min":128,"x_max":289,"o":"m 289 0 l 128 0 l 128 161 l 289 161 l 289 0 z "},"/":{"ha":556,"x_min":42,"x_max":514,"o":"m 42 -125 l 388 1021 l 514 1021 l 168 -125 l 42 -125 z "},":":{"ha":417,"x_min":128,"x_max":289,"o":"m 289 0 l 128 0 l 128 161 l 289 161 l 289 0 m 289 561 l 128 561 l 128 722 l 289 722 l 289 561 z "},";":{"ha":417,"x_min":107,"x_max":289,"o":"m 289 561 l 128 561 l 128 722 l 289 722 l 289 561 m 289 161 l 289 21 q 224 -156 289 -94 q 107 -208 178 -200 l 107 -139 q 193 0 193 -121 l 128 0 l 128 161 l 289 161 z "},"<":{"ha":833,"x_min":125,"x_max":708,"o":"m 257 451 l 257 444 l 708 251 l 708 118 l 125 382 l 125 514 l 708 778 l 708 644 l 257 451 z "},"=":{"ha":833,"x_min":125,"x_max":708,"o":"m 708 246 l 125 246 l 125 364 l 708 364 l 708 246 m 708 531 l 125 531 l 125 649 l 708 649 l 708 531 z "},">":{"ha":833,"x_min":125,"x_max":708,"o":"m 576 444 l 576 451 l 125 644 l 125 778 l 708 514 l 708 382 l 125 118 l 125 251 l 576 444 z "},"?":{"ha":810,"x_min":69,"x_max":754,"o":"m 479 0 l 319 0 l 319 161 l 479 161 l 479 0 m 463 290 l 331 290 q 371 485 331 418 q 494 589 408 544 q 611 763 611 649 q 553 869 611 831 q 424 904 503 904 q 214 743 238 904 l 69 743 q 199 958 92 885 q 428 1021 290 1021 q 676 935 585 1021 q 754 763 754 864 q 550 474 754 586 q 481 407 500 446 q 463 290 463 368 z "},"@":{"ha":1258,"x_min":69,"x_max":1189,"o":"m 908 132 q 799 179 844 132 q 757 261 763 217 q 676 180 733 214 q 561 146 619 146 q 408 208 468 146 q 346 386 346 272 q 431 671 346 567 q 639 768 508 768 q 718 746 682 768 q 768 688 754 724 l 793 758 l 892 758 l 840 364 q 836 307 836 331 q 904 233 836 233 q 1018 331 972 233 q 1061 554 1061 419 q 925 832 1061 732 q 640 915 811 915 q 443 869 538 915 q 271 717 333 817 q 197 433 197 600 q 358 76 197 200 q 653 -18 481 -18 q 865 18 757 -18 l 865 -90 q 642 -126 767 -126 q 365 -65 492 -126 q 154 121 231 0 q 69 435 69 254 q 289 907 69 747 q 640 1021 444 1021 q 906 968 783 1021 q 1108 811 1035 911 q 1189 556 1189 700 q 1101 242 1189 364 q 908 132 1024 132 m 588 249 q 703 329 660 249 q 744 543 744 407 q 649 668 744 668 q 511 576 558 668 q 472 385 472 501 q 514 275 472 311 q 588 249 543 249 z "},"A":{"ha":981,"x_min":0,"x_max":981,"o":"m 981 0 l 824 0 l 725 253 l 249 253 l 149 0 l 0 0 l 411 1000 l 571 1000 l 981 0 m 489 858 l 294 368 l 679 368 l 489 858 z "},"B":{"ha":906,"x_min":104,"x_max":843,"o":"m 104 1000 l 464 1000 q 736 919 646 1000 q 813 735 813 851 q 760 599 813 660 q 651 529 715 546 q 793 439 738 514 q 843 282 843 371 q 733 65 843 139 q 461 0 635 0 l 104 0 l 104 1000 m 488 469 l 246 469 l 246 115 l 482 115 q 696 282 696 115 q 488 469 696 469 m 475 893 l 246 893 l 246 578 l 483 578 q 628 626 579 578 q 669 735 669 668 q 611 856 669 814 q 475 893 561 893 z "},"C":{"ha":1013,"x_min":63,"x_max":957,"o":"m 524 99 q 736 181 653 99 q 814 353 808 251 l 957 353 q 896 169 951 254 q 744 33 839 83 q 521 -21 643 -21 q 171 133 294 -21 q 63 500 63 269 q 211 904 63 764 q 532 1021 335 1021 q 843 906 719 1021 q 956 679 946 811 l 813 679 q 714 850 799 789 q 532 903 639 903 q 286 789 372 903 q 207 500 207 685 q 307 189 207 297 q 524 99 390 99 z "},"D":{"ha":983,"x_min":104,"x_max":921,"o":"m 104 1000 l 429 1000 q 803 861 675 1000 q 921 500 921 733 q 763 113 921 247 q 419 0 629 0 l 104 0 l 104 1000 m 431 888 l 246 888 l 246 117 l 433 117 q 699 228 611 117 q 778 500 778 325 q 672 804 778 706 q 431 888 583 888 z "},"E":{"ha":797,"x_min":104,"x_max":728,"o":"m 688 567 l 688 450 l 246 450 l 246 119 l 728 119 l 728 0 l 104 0 l 104 1000 l 728 1000 l 728 881 l 246 881 l 246 567 l 688 567 z "},"F":{"ha":779,"x_min":104,"x_max":717,"o":"m 668 540 l 668 422 l 246 422 l 246 0 l 104 0 l 104 1000 l 717 1000 l 717 881 l 246 881 l 246 540 l 668 540 z "},"G":{"ha":1025,"x_min":63,"x_max":936,"o":"m 936 538 l 936 0 l 832 0 l 813 119 q 675 13 763 49 q 506 -21 599 -21 q 175 132 299 -21 q 63 501 63 274 q 214 907 63 765 q 521 1021 336 1021 q 818 918 700 1021 q 935 707 918 832 l 796 707 q 694 857 776 806 q 521 903 624 903 q 288 790 372 903 q 207 501 207 683 q 315 185 207 296 q 522 96 400 96 q 733 175 650 96 q 808 346 808 244 l 808 424 l 515 424 l 515 538 l 936 538 z "},"H":{"ha":982,"x_min":104,"x_max":878,"o":"m 735 1000 l 878 1000 l 878 0 l 735 0 l 735 446 l 246 446 l 246 0 l 104 0 l 104 1000 l 246 1000 l 246 565 l 735 565 l 735 1000 z "},"I":{"ha":350,"x_min":104,"x_max":246,"o":"m 104 1000 l 246 1000 l 246 0 l 104 0 l 104 1000 z "},"J":{"ha":750,"x_min":35,"x_max":653,"o":"m 35 281 l 178 281 q 347 99 186 99 q 474 157 431 99 q 511 294 511 207 l 511 1000 l 653 1000 l 653 293 q 561 50 653 132 q 342 -21 481 -21 q 111 76 197 -21 q 35 281 39 158 z "},"K":{"ha":878,"x_min":104,"x_max":871,"o":"m 871 0 l 683 0 l 246 471 l 246 0 l 104 0 l 104 1000 l 246 1000 l 246 556 l 653 1000 l 828 1000 l 374 522 l 871 0 z "},"L":{"ha":767,"x_min":104,"x_max":718,"o":"m 104 1000 l 247 1000 l 247 126 l 718 126 l 718 0 l 104 0 l 104 1000 z "},"M":{"ha":1210,"x_min":104,"x_max":1106,"o":"m 683 0 l 550 0 l 242 783 l 242 0 l 104 0 l 104 1000 l 301 1000 l 619 167 l 919 1000 l 1106 1000 l 1106 0 l 972 0 l 972 776 l 683 0 z "},"N":{"ha":999,"x_min":104,"x_max":894,"o":"m 768 1000 l 894 1000 l 894 0 l 715 0 l 233 838 l 233 0 l 104 0 l 104 1000 l 292 1000 l 768 169 l 768 1000 z "},"O":{"ha":1075,"x_min":63,"x_max":1013,"o":"m 538 -21 q 179 133 310 -21 q 63 500 63 274 q 219 904 63 760 q 539 1021 347 1021 q 892 872 761 1021 q 1013 500 1013 732 q 858 99 1013 242 q 538 -21 731 -21 m 538 94 q 788 213 699 94 q 868 500 868 319 q 764 815 868 707 q 538 906 678 906 q 288 788 376 906 q 207 500 207 681 q 311 185 207 293 q 538 94 397 94 z "},"P":{"ha":876,"x_min":104,"x_max":821,"o":"m 104 1000 l 429 1000 q 732 906 631 1000 q 821 675 821 822 q 707 429 821 511 q 424 357 606 357 l 246 357 l 246 0 l 104 0 l 104 1000 m 432 885 l 246 885 l 246 472 l 426 472 q 624 532 564 472 q 674 675 674 581 q 603 836 674 782 q 432 885 540 885 z "},"Q":{"ha":1075,"x_min":63,"x_max":1013,"o":"m 538 -21 q 179 133 310 -21 q 63 500 63 274 q 219 904 63 760 q 539 1021 347 1021 q 892 872 761 1021 q 1013 500 1013 732 q 847 89 1013 233 l 1008 -112 l 894 -187 l 747 24 q 538 -21 651 -21 m 538 94 q 788 213 699 94 q 868 500 868 319 q 764 815 868 707 q 538 906 678 906 q 288 788 376 906 q 207 500 207 681 q 311 185 207 293 q 538 94 397 94 z "},"R":{"ha":906,"x_min":104,"x_max":892,"o":"m 892 0 l 725 0 l 483 381 l 246 381 l 246 0 l 104 0 l 104 1000 l 428 1000 q 733 907 632 1000 q 824 686 824 826 q 622 410 824 486 l 892 0 m 431 885 l 246 885 l 246 496 l 435 496 q 622 554 558 496 q 676 686 676 604 q 431 885 676 885 z "},"S":{"ha":907,"x_min":49,"x_max":844,"o":"m 703 271 q 681 350 703 321 q 589 414 656 385 q 388 481 522 443 q 139 604 207 531 q 83 764 83 664 q 189 956 83 885 q 442 1021 286 1021 q 724 939 615 1021 q 838 750 821 867 l 692 750 q 608 868 679 829 q 442 904 546 904 q 269 860 325 904 q 225 769 225 825 q 237 710 225 733 q 278 669 249 688 q 488 590 332 633 q 781 451 704 529 q 844 276 844 388 q 729 58 844 144 q 454 -21 621 -21 q 167 72 281 -21 q 49 281 68 153 l 194 281 q 282 140 208 189 q 451 96 349 96 q 647 154 579 96 q 703 271 703 201 z "},"T":{"ha":838,"x_min":14,"x_max":824,"o":"m 824 1000 l 824 874 l 488 874 l 488 0 l 346 0 l 346 874 l 14 874 l 14 1000 l 824 1000 z "},"U":{"ha":982,"x_min":97,"x_max":885,"o":"m 97 1000 l 239 1000 l 239 322 q 314 153 239 213 q 493 99 381 99 q 690 169 622 99 q 747 322 747 228 l 747 1000 l 885 1000 l 885 335 q 763 63 885 160 q 492 -21 658 -21 q 190 89 299 -21 q 97 335 97 183 l 97 1000 z "},"V":{"ha":899,"x_min":0,"x_max":899,"o":"m 760 1000 l 899 1000 l 540 0 l 364 0 l 0 1000 l 150 1000 l 453 133 l 760 1000 z "},"W":{"ha":1338,"x_min":7,"x_max":1331,"o":"m 1200 1000 l 1331 1000 l 1067 0 l 903 0 l 676 847 l 443 0 l 269 0 l 7 1000 l 151 1000 l 364 168 l 593 1000 l 769 1000 l 986 171 l 1200 1000 z "},"X":{"ha":906,"x_min":14,"x_max":892,"o":"m 881 1000 l 532 521 l 892 0 l 722 0 l 454 404 l 174 0 l 14 0 l 375 517 l 39 1000 l 206 1000 l 460 628 l 719 1000 l 881 1000 z "},"Y":{"ha":874,"x_min":0,"x_max":874,"o":"m 507 0 l 367 0 l 367 397 l 0 1000 l 156 1000 l 438 519 l 729 1000 l 874 1000 l 507 397 l 507 0 z "},"Z":{"ha":888,"x_min":56,"x_max":832,"o":"m 832 881 l 222 122 l 818 122 l 818 0 l 56 0 l 56 124 l 664 878 l 88 878 l 88 1000 l 832 1000 l 832 881 z "},"[":{"ha":472,"x_min":104,"x_max":396,"o":"m 396 -125 l 396 -236 l 104 -236 l 104 1125 l 396 1125 l 396 1014 l 232 1014 l 232 -125 l 396 -125 z "},"\\":{"ha":556,"x_min":42,"x_max":514,"o":"m 168 1021 l 514 -125 l 388 -125 l 42 1021 l 168 1021 z "},"]":{"ha":472,"x_min":76,"x_max":368,"o":"m 76 -236 l 76 -125 l 240 -125 l 240 1014 l 76 1014 l 76 1125 l 368 1125 l 368 -236 l 76 -236 z "},"^":{"ha":694,"x_min":36,"x_max":658,"o":"m 347 865 l 181 556 l 36 556 l 285 1000 l 410 1000 l 658 556 l 514 556 l 347 865 z "},"_":{"ha":833,"x_min":42,"x_max":792,"o":"m 792 -181 l 42 -181 l 42 -62 l 792 -62 l 792 -181 z "},"`":{"ha":397,"x_min":42,"x_max":356,"o":"m 214 1021 l 356 831 l 236 831 l 42 1021 l 214 1021 z "},"a":{"ha":764,"x_min":56,"x_max":674,"o":"m 211 521 l 69 521 q 172 689 81 629 q 379 743 254 743 q 607 665 528 743 q 674 493 674 599 l 674 0 l 564 0 l 547 99 q 306 -21 463 -21 q 113 46 182 -21 q 56 186 56 101 q 129 351 56 293 q 329 426 194 403 l 540 463 l 540 499 q 492 606 540 569 q 374 638 449 638 q 211 521 226 638 m 338 92 q 485 147 422 92 q 540 265 540 199 l 540 358 l 361 326 q 226 275 263 310 q 197 200 197 247 q 233 119 197 147 q 338 92 269 92 z "},"b":{"ha":846,"x_min":97,"x_max":790,"o":"m 207 0 l 97 0 l 97 1000 l 231 1000 l 231 622 q 472 743 315 743 q 714 632 628 743 q 790 367 790 532 q 686 67 790 171 q 463 -21 599 -21 q 228 96 308 -21 l 207 0 m 651 369 q 583 574 651 506 q 442 629 529 629 q 281 556 340 629 q 224 369 224 485 q 292 157 224 231 q 442 93 349 93 q 600 169 546 93 q 651 369 651 240 z "},"c":{"ha":769,"x_min":56,"x_max":714,"o":"m 568 232 l 714 232 q 604 44 697 115 q 397 -21 519 -21 q 143 89 238 -21 q 56 356 56 190 q 161 653 56 547 q 396 743 251 743 q 615 672 529 743 q 708 508 692 610 l 561 508 q 505 599 547 567 q 399 631 463 631 q 247 553 300 631 q 197 351 197 481 q 264 147 197 217 q 400 92 317 92 q 518 133 472 92 q 568 232 558 169 z "},"d":{"ha":846,"x_min":56,"x_max":749,"o":"m 749 0 l 639 0 l 615 101 q 375 -21 532 -21 q 136 89 224 -21 q 56 357 56 190 q 158 660 56 558 q 383 743 244 743 q 615 631 533 743 l 615 1000 l 749 1000 l 749 0 m 194 354 q 261 150 194 219 q 404 93 317 93 q 572 175 513 93 q 622 353 622 246 q 556 567 622 493 q 404 629 499 629 q 244 553 299 629 q 194 354 194 483 z "},"e":{"ha":804,"x_min":56,"x_max":742,"o":"m 589 208 l 733 208 q 613 36 703 99 q 410 -21 528 -21 q 143 88 239 -21 q 56 361 56 189 q 167 658 56 557 q 403 743 258 743 q 658 633 572 743 q 742 332 742 528 l 192 332 q 269 142 200 204 q 414 92 326 92 q 532 129 482 92 q 589 208 574 161 m 406 636 q 263 581 317 636 q 197 438 211 529 l 606 438 q 536 593 599 542 q 406 636 486 636 z "},"f":{"ha":447,"x_min":28,"x_max":454,"o":"m 454 1004 l 454 889 q 344 906 388 906 q 288 886 308 906 q 268 832 268 867 l 268 722 l 424 722 l 424 608 l 268 608 l 268 0 l 135 0 l 135 608 l 28 608 l 28 722 l 135 722 l 135 824 q 197 974 135 919 q 336 1021 253 1021 q 454 1004 390 1021 z "},"g":{"ha":846,"x_min":56,"x_max":749,"o":"m 89 -49 l 232 -49 q 288 -135 242 -104 q 411 -165 335 -165 q 571 -110 518 -165 q 615 22 615 -62 l 615 115 q 375 21 535 21 q 140 125 231 21 q 56 378 56 222 q 158 657 56 558 q 383 743 246 743 q 618 626 539 743 l 639 722 l 749 722 l 749 15 q 650 -199 749 -121 q 415 -271 561 -271 q 178 -203 264 -271 q 89 -49 106 -146 m 194 375 q 264 190 194 257 q 404 135 321 135 q 572 207 514 135 q 622 371 622 268 q 554 572 622 503 q 404 629 497 629 q 246 558 301 629 q 194 375 194 492 z "},"h":{"ha":788,"x_min":97,"x_max":697,"o":"m 231 0 l 97 0 l 97 1000 l 231 1000 l 231 640 q 442 743 310 743 q 638 664 569 743 q 697 471 697 593 l 697 0 l 564 0 l 564 469 q 410 629 564 629 q 276 572 328 629 q 231 440 231 521 l 231 0 z "},"i":{"ha":328,"x_min":89,"x_max":239,"o":"m 239 843 l 89 843 l 89 1000 l 239 1000 l 239 843 m 231 0 l 97 0 l 97 722 l 231 722 l 231 0 z "},"j":{"ha":328,"x_min":-68,"x_max":239,"o":"m -68 -254 l -68 -144 q 15 -157 -12 -157 q 80 -137 63 -157 q 97 -65 97 -118 l 97 722 l 231 722 l 231 -72 q 174 -222 231 -169 q 36 -271 122 -271 q -68 -254 -17 -271 m 239 843 l 89 843 l 89 1000 l 239 1000 l 239 843 z "},"k":{"ha":722,"x_min":97,"x_max":729,"o":"m 231 0 l 97 0 l 97 1000 l 231 1000 l 231 442 l 514 722 l 689 722 l 364 408 l 729 0 l 551 0 l 231 364 l 231 0 z "},"l":{"ha":328,"x_min":97,"x_max":231,"o":"m 231 1000 l 231 0 l 97 0 l 97 1000 l 231 1000 z "},"m":{"ha":1215,"x_min":97,"x_max":1125,"o":"m 231 0 l 97 0 l 97 722 l 207 722 l 221 638 q 433 743 294 743 q 646 629 585 743 q 881 743 718 743 q 1067 669 1001 743 q 1125 483 1125 601 l 1125 0 l 992 0 l 992 474 q 851 629 992 629 q 718 564 768 629 q 678 440 678 511 l 678 0 l 544 0 l 544 474 q 404 629 544 629 q 275 568 326 629 q 231 444 231 517 l 231 0 z "},"n":{"ha":788,"x_min":97,"x_max":697,"o":"m 231 0 l 97 0 l 97 722 l 207 722 l 222 631 q 442 743 303 743 q 638 664 569 743 q 697 471 697 593 l 697 0 l 564 0 l 564 469 q 410 629 564 629 q 278 574 329 629 q 231 446 231 524 l 231 0 z "},"o":{"ha":824,"x_min":56,"x_max":768,"o":"m 56 361 q 174 661 56 560 q 413 743 268 743 q 676 636 581 743 q 768 361 768 536 q 653 63 768 165 q 411 -21 558 -21 q 146 90 243 -21 q 56 361 56 192 m 194 361 q 265 149 194 222 q 414 88 324 88 q 576 167 519 88 q 629 361 629 239 q 560 575 629 503 q 413 635 503 635 q 250 556 308 635 q 194 361 194 483 z "},"p":{"ha":846,"x_min":97,"x_max":790,"o":"m 97 722 l 207 722 l 228 628 q 472 743 317 743 q 714 632 628 743 q 790 367 790 532 q 686 67 790 171 q 463 -21 599 -21 q 231 93 308 -21 l 231 -250 l 97 -250 l 97 722 m 651 369 q 583 574 651 506 q 442 629 529 629 q 281 556 340 629 q 224 369 224 485 q 292 157 224 231 q 442 93 349 93 q 600 169 546 93 q 651 369 651 240 z "},"q":{"ha":846,"x_min":56,"x_max":749,"o":"m 639 722 l 749 722 l 749 -250 l 615 -250 l 615 100 q 375 -21 531 -21 q 136 89 224 -21 q 56 357 56 190 q 158 660 56 558 q 383 743 244 743 q 619 635 538 743 l 639 722 m 194 354 q 261 150 194 219 q 404 93 317 93 q 572 175 513 93 q 622 353 622 246 q 556 567 622 493 q 404 629 499 629 q 244 553 299 629 q 194 354 194 483 z "},"r":{"ha":494,"x_min":97,"x_max":488,"o":"m 231 0 l 97 0 l 97 722 l 207 722 l 225 615 q 408 743 286 743 q 488 733 449 743 l 488 600 q 403 613 440 613 q 276 547 322 613 q 231 363 231 482 l 231 0 z "},"s":{"ha":710,"x_min":42,"x_max":654,"o":"m 519 196 q 456 288 519 257 q 310 329 418 304 q 119 414 176 358 q 72 538 72 461 q 154 693 72 639 q 353 743 228 743 q 563 679 482 743 q 649 532 632 624 l 513 532 q 351 638 489 638 q 238 610 275 638 q 207 550 207 586 q 241 483 207 506 q 375 439 275 461 q 588 357 528 406 q 654 206 654 303 q 565 35 654 97 q 353 -21 485 -21 q 124 49 208 -21 q 42 207 50 110 l 178 207 q 354 85 200 85 q 483 121 438 85 q 519 196 519 150 z "},"t":{"ha":447,"x_min":21,"x_max":419,"o":"m 419 107 l 419 -7 q 321 -21 368 -21 q 171 42 221 -21 q 128 179 128 93 l 128 608 l 21 608 l 21 722 l 128 722 l 136 896 l 261 896 l 261 722 l 417 722 l 417 608 l 261 608 l 261 176 q 338 96 261 96 q 419 107 374 96 z "},"u":{"ha":782,"x_min":90,"x_max":685,"o":"m 90 722 l 224 722 l 224 249 q 374 93 224 93 q 514 158 465 93 q 551 282 551 208 l 551 722 l 685 722 l 685 0 l 575 0 l 560 83 q 343 -21 483 -21 q 153 56 219 -21 q 90 251 90 126 l 90 722 z "},"v":{"ha":714,"x_min":14,"x_max":700,"o":"m 561 722 l 700 722 l 446 0 l 265 0 l 14 722 l 160 722 l 360 108 l 561 722 z "},"w":{"ha":1125,"x_min":21,"x_max":1104,"o":"m 971 722 l 1104 722 l 893 0 l 739 0 l 564 571 l 392 0 l 232 0 l 21 722 l 160 722 l 315 142 l 488 722 l 647 722 l 817 144 l 971 722 z "},"x":{"ha":735,"x_min":14,"x_max":721,"o":"m 679 722 l 438 385 l 721 0 l 558 0 l 363 279 l 171 0 l 14 0 l 283 375 l 31 722 l 190 722 l 363 479 l 526 722 l 679 722 z "},"y":{"ha":714,"x_min":14,"x_max":700,"o":"m 700 722 l 449 -10 q 353 -208 399 -156 q 213 -271 299 -271 q 126 -258 176 -271 l 126 -150 q 196 -160 165 -160 q 263 -130 239 -160 q 322 0 286 -100 l 279 0 l 14 722 l 158 722 l 363 108 l 567 722 l 700 722 z "},"z":{"ha":669,"x_min":42,"x_max":628,"o":"m 628 596 l 199 114 l 628 114 l 628 0 l 42 0 l 42 126 l 471 610 l 63 610 l 63 722 l 628 722 l 628 596 z "},"{":{"ha":472,"x_min":42,"x_max":424,"o":"m 42 506 q 135 538 101 506 q 169 628 169 569 l 169 886 q 236 1072 169 1015 q 424 1125 299 1125 l 424 1021 q 323 994 350 1021 q 296 893 296 967 l 296 650 q 178 446 296 488 q 296 242 296 404 l 296 -1 q 322 -100 296 -74 q 424 -129 351 -129 l 424 -233 q 221 -164 282 -233 q 169 6 169 -107 l 169 264 q 135 353 169 321 q 42 386 101 386 l 42 506 z "},"|":{"ha":500,"x_min":190,"x_max":310,"o":"m 190 1090 l 310 1090 l 310 -194 l 190 -194 l 190 1090 z "},"}":{"ha":472,"x_min":49,"x_max":431,"o":"m 431 506 l 431 386 q 338 354 371 386 q 303 264 303 322 l 303 6 q 236 -181 303 -124 q 49 -233 174 -233 l 49 -129 q 149 -102 122 -129 q 176 -1 176 -75 l 176 242 q 294 446 176 404 q 176 650 176 488 l 176 893 q 150 992 176 965 q 49 1021 121 1021 l 49 1125 q 251 1056 190 1125 q 303 886 303 999 l 303 628 q 337 538 303 571 q 431 506 371 506 z "},"~":{"ha":833,"x_min":125,"x_max":708,"o":"m 283 426 q 125 364 197 426 l 125 490 q 202 531 156 515 q 292 546 249 546 q 438 504 353 546 q 549 469 508 469 q 708 532 636 469 l 708 406 q 631 365 678 381 q 542 350 585 350 q 394 392 481 350 q 283 426 324 426 z "},"Ä":{"ha":981,"x_min":0,"x_max":981,"o":"m 981 0 l 824 0 l 725 253 l 249 253 l 149 0 l 0 0 l 411 1000 l 571 1000 l 981 0 m 489 858 l 294 368 l 679 368 l 489 858 m 404 1097 l 260 1097 l 260 1236 l 404 1236 l 404 1097 m 718 1097 l 574 1097 l 574 1236 l 718 1236 l 718 1097 z "},"Å":{"ha":981,"x_min":0,"x_max":981,"o":"m 668 1111 q 583 968 668 1014 l 981 0 l 824 0 l 725 253 l 249 253 l 149 0 l 0 0 l 396 963 q 328 1022 353 982 q 303 1111 303 1061 q 357 1235 303 1189 q 485 1278 407 1278 q 625 1224 574 1278 q 668 1111 668 1178 m 489 858 l 294 368 l 679 368 l 489 858 m 397 1111 q 421 1047 397 1071 q 485 1024 444 1024 q 549 1048 525 1024 q 574 1111 574 1072 q 549 1175 574 1151 q 485 1199 525 1199 q 421 1175 444 1199 q 397 1111 397 1151 z "},"Ç":{"ha":1013,"x_min":63,"x_max":957,"o":"m 701 -194 q 644 -310 701 -267 q 522 -346 596 -346 q 397 -304 447 -346 q 343 -206 353 -267 l 447 -206 q 473 -245 451 -229 q 524 -261 494 -261 q 578 -244 558 -261 q 599 -196 599 -226 q 567 -143 599 -160 q 468 -126 536 -126 l 478 -19 q 161 147 271 -4 q 63 500 63 282 q 211 904 63 764 q 532 1021 335 1021 q 843 906 719 1021 q 956 679 946 811 l 813 679 q 714 850 799 789 q 532 903 639 903 q 286 789 372 903 q 207 500 207 685 q 307 189 207 297 q 524 99 390 99 q 736 181 653 99 q 814 353 808 251 l 957 353 q 832 96 947 203 q 575 -18 726 -1 l 575 -58 q 701 -194 701 -86 z "},"É":{"ha":797,"x_min":104,"x_max":728,"o":"m 688 567 l 688 450 l 246 450 l 246 119 l 728 119 l 728 0 l 104 0 l 104 1000 l 728 1000 l 728 881 l 246 881 l 246 567 l 688 567 m 321 1067 l 463 1257 l 635 1257 l 440 1067 l 321 1067 z "},"Ñ":{"ha":999,"x_min":104,"x_max":894,"o":"m 768 1000 l 894 1000 l 894 0 l 715 0 l 233 838 l 233 0 l 104 0 l 104 1000 l 292 1000 l 768 169 l 768 1000 m 594 1085 q 500 1114 547 1085 q 428 1138 463 1138 q 310 1085 376 1138 l 310 1197 q 433 1243 374 1243 q 528 1214 481 1243 q 600 1190 567 1190 q 713 1243 646 1190 l 713 1131 q 594 1085 649 1085 z "},"Ö":{"ha":1075,"x_min":63,"x_max":1013,"o":"m 538 -21 q 179 133 310 -21 q 63 500 63 274 q 219 904 63 760 q 539 1021 347 1021 q 892 872 761 1021 q 1013 500 1013 732 q 858 99 1013 242 q 538 -21 731 -21 m 538 94 q 788 213 699 94 q 868 500 868 319 q 764 815 868 707 q 538 906 678 906 q 288 788 376 906 q 207 500 207 681 q 311 185 207 293 q 538 94 397 94 m 439 1097 l 294 1097 l 294 1236 l 439 1236 l 439 1097 m 753 1097 l 608 1097 l 608 1236 l 753 1236 l 753 1097 z "},"Ü":{"ha":982,"x_min":97,"x_max":885,"o":"m 97 1000 l 239 1000 l 239 322 q 314 153 239 213 q 493 99 381 99 q 690 169 622 99 q 747 322 747 228 l 747 1000 l 885 1000 l 885 335 q 763 63 885 160 q 492 -21 658 -21 q 190 89 299 -21 q 97 335 97 183 l 97 1000 m 404 1097 l 260 1097 l 260 1236 l 404 1236 l 404 1097 m 718 1097 l 574 1097 l 574 1236 l 718 1236 l 718 1097 z "},"á":{"ha":764,"x_min":56,"x_max":674,"o":"m 211 521 l 69 521 q 172 689 81 629 q 379 743 254 743 q 607 665 528 743 q 674 493 674 599 l 674 0 l 564 0 l 547 99 q 306 -21 463 -21 q 113 46 182 -21 q 56 186 56 101 q 129 351 56 293 q 329 426 194 403 l 540 463 l 540 499 q 492 606 540 569 q 374 638 449 638 q 211 521 226 638 m 338 92 q 485 147 422 92 q 540 265 540 199 l 540 358 l 361 326 q 226 275 263 310 q 197 200 197 247 q 233 119 197 147 q 338 92 269 92 m 311 831 l 453 1021 l 625 1021 l 431 831 l 311 831 z "},"à":{"ha":764,"x_min":56,"x_max":674,"o":"m 211 521 l 69 521 q 172 689 81 629 q 379 743 254 743 q 607 665 528 743 q 674 493 674 599 l 674 0 l 564 0 l 547 99 q 306 -21 463 -21 q 113 46 182 -21 q 56 186 56 101 q 129 351 56 293 q 329 426 194 403 l 540 463 l 540 499 q 492 606 540 569 q 374 638 449 638 q 211 521 226 638 m 338 92 q 485 147 422 92 q 540 265 540 199 l 540 358 l 361 326 q 226 275 263 310 q 197 200 197 247 q 233 119 197 147 q 338 92 269 92 m 322 1021 l 464 831 l 344 831 l 150 1021 l 322 1021 z "},"â":{"ha":764,"x_min":56,"x_max":674,"o":"m 211 521 l 69 521 q 172 689 81 629 q 379 743 254 743 q 607 665 528 743 q 674 493 674 599 l 674 0 l 564 0 l 547 99 q 306 -21 463 -21 q 113 46 182 -21 q 56 186 56 101 q 129 351 56 293 q 329 426 194 403 l 540 463 l 540 499 q 492 606 540 569 q 374 638 449 638 q 211 521 226 638 m 338 92 q 485 147 422 92 q 540 265 540 199 l 540 358 l 361 326 q 226 275 263 310 q 197 200 197 247 q 233 119 197 147 q 338 92 269 92 m 454 1021 l 617 831 l 482 831 l 378 944 l 274 831 l 139 831 l 303 1021 l 454 1021 z "},"ä":{"ha":764,"x_min":56,"x_max":674,"o":"m 211 521 l 69 521 q 172 689 81 629 q 379 743 254 743 q 607 665 528 743 q 674 493 674 599 l 674 0 l 564 0 l 547 99 q 306 -21 463 -21 q 113 46 182 -21 q 56 186 56 101 q 129 351 56 293 q 329 426 194 403 l 540 463 l 540 499 q 492 606 540 569 q 374 638 449 638 q 211 521 226 638 m 338 92 q 485 147 422 92 q 540 265 540 199 l 540 358 l 361 326 q 226 275 263 310 q 197 200 197 247 q 233 119 197 147 q 338 92 269 92 m 292 861 l 147 861 l 147 1000 l 292 1000 l 292 861 m 606 861 l 461 861 l 461 1000 l 606 1000 l 606 861 z "},"ã":{"ha":764,"x_min":56,"x_max":674,"o":"m 211 521 l 69 521 q 172 689 81 629 q 379 743 254 743 q 607 665 528 743 q 674 493 674 599 l 674 0 l 564 0 l 547 99 q 306 -21 463 -21 q 113 46 182 -21 q 56 186 56 101 q 129 351 56 293 q 329 426 194 403 l 540 463 l 540 499 q 492 606 540 569 q 374 638 449 638 q 211 521 226 638 m 338 92 q 485 147 422 92 q 540 265 540 199 l 540 358 l 361 326 q 226 275 263 310 q 197 200 197 247 q 233 119 197 147 q 338 92 269 92 m 463 849 q 368 878 415 849 q 296 901 331 901 q 178 849 244 901 l 178 961 q 301 1007 242 1007 q 396 978 349 1007 q 468 954 435 954 q 581 1007 514 954 l 581 894 q 463 849 517 849 z "},"å":{"ha":764,"x_min":56,"x_max":674,"o":"m 211 521 l 69 521 q 172 689 81 629 q 379 743 254 743 q 607 665 528 743 q 674 493 674 599 l 674 0 l 564 0 l 547 99 q 306 -21 463 -21 q 113 46 182 -21 q 56 186 56 101 q 129 351 56 293 q 329 426 194 403 l 540 463 l 540 499 q 492 606 540 569 q 374 638 449 638 q 211 521 226 638 m 338 92 q 485 147 422 92 q 540 265 540 199 l 540 358 l 361 326 q 226 275 263 310 q 197 200 197 247 q 233 119 197 147 q 338 92 269 92 m 293 972 q 317 908 293 932 q 381 885 340 885 q 445 909 421 885 q 469 972 469 933 q 445 1036 469 1013 q 381 1060 421 1060 q 317 1036 340 1060 q 293 972 293 1013 m 564 972 q 508 849 564 896 q 381 806 458 806 q 240 860 292 806 q 199 972 199 906 q 253 1096 199 1050 q 381 1139 303 1139 q 521 1085 469 1139 q 564 972 564 1039 z "},"ç":{"ha":769,"x_min":56,"x_max":714,"o":"m 571 -194 q 514 -310 571 -267 q 392 -346 465 -346 q 267 -304 317 -346 q 213 -206 222 -267 l 317 -206 q 342 -245 321 -229 q 393 -261 364 -261 q 448 -244 428 -261 q 468 -196 468 -226 q 437 -143 468 -160 q 338 -126 406 -126 l 347 -17 q 128 106 207 1 q 56 356 56 204 q 161 653 56 547 q 396 743 251 743 q 615 672 529 743 q 708 508 692 610 l 561 508 q 505 599 547 567 q 399 631 463 631 q 247 553 300 631 q 197 351 197 481 q 264 147 197 217 q 400 92 317 92 q 518 133 472 92 q 568 232 558 169 l 714 232 q 621 57 699 126 q 444 -18 549 -6 l 444 -58 q 571 -194 571 -86 z "},"é":{"ha":804,"x_min":56,"x_max":742,"o":"m 589 208 l 733 208 q 613 36 703 99 q 410 -21 528 -21 q 143 88 239 -21 q 56 361 56 189 q 167 658 56 557 q 403 743 258 743 q 658 633 572 743 q 742 332 742 528 l 192 332 q 269 142 200 204 q 414 92 326 92 q 532 129 482 92 q 589 208 574 161 m 406 636 q 263 581 317 636 q 197 438 211 529 l 606 438 q 536 593 599 542 q 406 636 486 636 m 328 831 l 469 1021 l 642 1021 l 447 831 l 328 831 z "},"è":{"ha":804,"x_min":56,"x_max":742,"o":"m 589 208 l 733 208 q 613 36 703 99 q 410 -21 528 -21 q 143 88 239 -21 q 56 361 56 189 q 167 658 56 557 q 403 743 258 743 q 658 633 572 743 q 742 332 742 528 l 192 332 q 269 142 200 204 q 414 92 326 92 q 532 129 482 92 q 589 208 574 161 m 406 636 q 263 581 317 636 q 197 438 211 529 l 606 438 q 536 593 599 542 q 406 636 486 636 m 336 1021 l 478 831 l 358 831 l 164 1021 l 336 1021 z "},"ê":{"ha":804,"x_min":56,"x_max":742,"o":"m 589 208 l 733 208 q 613 36 703 99 q 410 -21 528 -21 q 143 88 239 -21 q 56 361 56 189 q 167 658 56 557 q 403 743 258 743 q 658 633 572 743 q 742 332 742 528 l 192 332 q 269 142 200 204 q 414 92 326 92 q 532 129 482 92 q 589 208 574 161 m 406 636 q 263 581 317 636 q 197 438 211 529 l 606 438 q 536 593 599 542 q 406 636 486 636 m 475 1021 l 638 831 l 503 831 l 399 944 l 294 831 l 160 831 l 324 1021 l 475 1021 z "},"ë":{"ha":804,"x_min":56,"x_max":742,"o":"m 589 208 l 733 208 q 613 36 703 99 q 410 -21 528 -21 q 143 88 239 -21 q 56 361 56 189 q 167 658 56 557 q 403 743 258 743 q 658 633 572 743 q 742 332 742 528 l 192 332 q 269 142 200 204 q 414 92 326 92 q 532 129 482 92 q 589 208 574 161 m 406 636 q 263 581 317 636 q 197 438 211 529 l 606 438 q 536 593 599 542 q 406 636 486 636 m 311 861 l 167 861 l 167 1000 l 311 1000 l 311 861 m 625 861 l 481 861 l 481 1000 l 625 1000 l 625 861 z "},"í":{"ha":328,"x_min":75,"x_max":389,"o":"m 231 0 l 97 0 l 97 722 l 231 722 l 231 0 m 75 831 l 217 1021 l 389 1021 l 194 831 l 75 831 z "},"ì":{"ha":328,"x_min":-53,"x_max":261,"o":"m 231 0 l 97 0 l 97 722 l 231 722 l 231 0 m 119 1021 l 261 831 l 142 831 l -53 1021 l 119 1021 z "},"î":{"ha":328,"x_min":-75,"x_max":403,"o":"m 231 0 l 97 0 l 97 722 l 231 722 l 231 0 m 240 1021 l 403 831 l 268 831 l 164 944 l 60 831 l -75 831 l 89 1021 l 240 1021 z "},"ï":{"ha":328,"x_min":-65,"x_max":393,"o":"m 231 0 l 97 0 l 97 722 l 231 722 l 231 0 m 79 861 l -65 861 l -65 1000 l 79 1000 l 79 861 m 393 861 l 249 861 l 249 1000 l 393 1000 l 393 861 z "},"ñ":{"ha":788,"x_min":97,"x_max":697,"o":"m 231 0 l 97 0 l 97 722 l 207 722 l 222 631 q 442 743 303 743 q 638 664 569 743 q 697 471 697 593 l 697 0 l 564 0 l 564 469 q 410 629 564 629 q 278 574 329 629 q 231 446 231 524 l 231 0 m 492 849 q 397 878 444 849 q 325 901 360 901 q 207 849 274 901 l 207 961 q 331 1007 271 1007 q 425 978 378 1007 q 497 954 464 954 q 610 1007 543 954 l 610 894 q 492 849 546 849 z "},"ó":{"ha":824,"x_min":56,"x_max":768,"o":"m 56 361 q 174 661 56 560 q 413 743 268 743 q 676 636 581 743 q 768 361 768 536 q 653 63 768 165 q 411 -21 558 -21 q 146 90 243 -21 q 56 361 56 192 m 194 361 q 265 149 194 222 q 414 88 324 88 q 576 167 519 88 q 629 361 629 239 q 560 575 629 503 q 413 635 503 635 q 250 556 308 635 q 194 361 194 483 m 331 831 l 472 1021 l 644 1021 l 450 831 l 331 831 z "},"ò":{"ha":824,"x_min":56,"x_max":768,"o":"m 56 361 q 174 661 56 560 q 413 743 268 743 q 676 636 581 743 q 768 361 768 536 q 653 63 768 165 q 411 -21 558 -21 q 146 90 243 -21 q 56 361 56 192 m 194 361 q 265 149 194 222 q 414 88 324 88 q 576 167 519 88 q 629 361 629 239 q 560 575 629 503 q 413 635 503 635 q 250 556 308 635 q 194 361 194 483 m 358 1021 l 500 831 l 381 831 l 186 1021 l 358 1021 z "},"ô":{"ha":824,"x_min":56,"x_max":768,"o":"m 56 361 q 174 661 56 560 q 413 743 268 743 q 676 636 581 743 q 768 361 768 536 q 653 63 768 165 q 411 -21 558 -21 q 146 90 243 -21 q 56 361 56 192 m 194 361 q 265 149 194 222 q 414 88 324 88 q 576 167 519 88 q 629 361 629 239 q 560 575 629 503 q 413 635 503 635 q 250 556 308 635 q 194 361 194 483 m 481 1021 l 643 831 l 508 831 l 404 944 l 300 831 l 165 831 l 329 1021 l 481 1021 z "},"ö":{"ha":824,"x_min":56,"x_max":768,"o":"m 56 361 q 174 661 56 560 q 413 743 268 743 q 676 636 581 743 q 768 361 768 536 q 653 63 768 165 q 411 -21 558 -21 q 146 90 243 -21 q 56 361 56 192 m 194 361 q 265 149 194 222 q 414 88 324 88 q 576 167 519 88 q 629 361 629 239 q 560 575 629 503 q 413 635 503 635 q 250 556 308 635 q 194 361 194 483 m 326 861 l 182 861 l 182 1000 l 326 1000 l 326 861 m 640 861 l 496 861 l 496 1000 l 640 1000 l 640 861 z "},"õ":{"ha":824,"x_min":56,"x_max":768,"o":"m 56 361 q 174 661 56 560 q 413 743 268 743 q 676 636 581 743 q 768 361 768 536 q 653 63 768 165 q 411 -21 558 -21 q 146 90 243 -21 q 56 361 56 192 m 194 361 q 265 149 194 222 q 414 88 324 88 q 576 167 519 88 q 629 361 629 239 q 560 575 629 503 q 413 635 503 635 q 250 556 308 635 q 194 361 194 483 m 490 849 q 396 878 443 849 q 324 901 358 901 q 206 849 272 901 l 206 961 q 329 1007 269 1007 q 424 978 376 1007 q 496 954 463 954 q 608 1007 542 954 l 608 894 q 490 849 544 849 z "},"ú":{"ha":782,"x_min":90,"x_max":685,"o":"m 90 722 l 224 722 l 224 249 q 374 93 224 93 q 514 158 465 93 q 551 282 551 208 l 551 722 l 685 722 l 685 0 l 575 0 l 560 83 q 343 -21 483 -21 q 153 56 219 -21 q 90 251 90 126 l 90 722 m 300 831 l 442 1021 l 614 1021 l 419 831 l 300 831 z "},"ù":{"ha":782,"x_min":90,"x_max":685,"o":"m 90 722 l 224 722 l 224 249 q 374 93 224 93 q 514 158 465 93 q 551 282 551 208 l 551 722 l 685 722 l 685 0 l 575 0 l 560 83 q 343 -21 483 -21 q 153 56 219 -21 q 90 251 90 126 l 90 722 m 343 1021 l 485 831 l 365 831 l 171 1021 l 343 1021 z "},"û":{"ha":782,"x_min":90,"x_max":685,"o":"m 90 722 l 224 722 l 224 249 q 374 93 224 93 q 514 158 465 93 q 551 282 551 208 l 551 722 l 685 722 l 685 0 l 575 0 l 560 83 q 343 -21 483 -21 q 153 56 219 -21 q 90 251 90 126 l 90 722 m 465 1021 l 628 831 l 493 831 l 389 944 l 285 831 l 150 831 l 314 1021 l 465 1021 z "},"ü":{"ha":782,"x_min":90,"x_max":685,"o":"m 90 722 l 224 722 l 224 249 q 374 93 224 93 q 514 158 465 93 q 551 282 551 208 l 551 722 l 685 722 l 685 0 l 575 0 l 560 83 q 343 -21 483 -21 q 153 56 219 -21 q 90 251 90 126 l 90 722 m 301 861 l 157 861 l 157 1000 l 301 1000 l 301 861 m 615 861 l 471 861 l 471 1000 l 615 1000 l 615 861 z "},"†":{"ha":833,"x_min":93,"x_max":739,"o":"m 482 1000 l 482 740 l 739 740 l 739 615 l 482 615 l 482 0 l 349 0 l 349 615 l 93 615 l 93 740 l 349 740 l 349 1000 l 482 1000 z "},"°":{"ha":833,"x_min":83,"x_max":550,"o":"m 200 767 q 236 665 200 703 q 317 633 268 633 q 406 675 372 633 q 433 767 433 711 q 397 868 433 831 q 317 900 365 900 q 228 858 261 900 q 200 767 200 822 m 550 767 q 471 589 550 654 q 317 536 406 536 q 146 604 213 536 q 83 767 83 668 q 163 944 83 879 q 317 997 228 997 q 488 929 421 997 q 550 767 550 865 z "},"¢":{"ha":833,"x_min":92,"x_max":750,"o":"m 365 -187 l 365 -14 q 160 113 233 8 q 92 356 92 210 q 176 629 92 525 q 365 738 247 717 l 365 917 l 489 917 l 489 739 q 668 657 599 724 q 744 508 731 597 l 597 508 q 541 599 583 567 q 435 631 499 631 q 283 553 336 631 q 233 351 233 481 q 300 147 233 217 q 436 92 353 92 q 554 133 508 92 q 604 232 594 169 l 750 232 q 658 60 735 129 q 489 -17 589 -3 l 489 -187 l 365 -187 z "},"£":{"ha":833,"x_min":83,"x_max":756,"o":"m 125 431 l 125 539 l 190 539 l 190 725 q 285 938 190 867 q 472 993 358 993 q 661 932 588 993 q 756 765 732 874 l 615 765 q 468 881 590 881 q 357 835 394 881 q 322 724 322 794 l 322 539 l 590 539 l 590 431 l 322 431 l 322 282 q 244 122 322 179 l 743 122 l 743 0 l 83 0 l 83 122 q 190 274 190 156 l 190 431 l 125 431 z "},"§":{"ha":833,"x_min":97,"x_max":738,"o":"m 738 415 q 606 224 738 283 q 688 76 688 165 q 606 -78 688 -24 q 414 -126 533 -126 q 208 -64 290 -126 q 114 85 138 -8 l 256 85 q 309 6 265 35 q 415 -24 353 -24 q 556 69 556 -24 q 521 142 556 114 q 406 190 486 169 q 153 307 224 236 q 97 450 97 363 q 224 639 97 578 q 147 790 147 700 q 226 939 147 882 q 425 993 301 993 q 624 931 542 993 q 721 781 699 874 l 579 781 q 526 861 568 832 q 424 890 485 890 q 310 860 347 890 q 279 796 279 836 q 313 723 279 750 q 429 675 346 696 q 679 560 610 629 q 738 415 738 503 m 224 460 q 264 371 224 404 q 413 307 307 338 q 518 269 469 289 q 611 401 611 317 q 560 499 611 464 q 347 579 501 540 q 308 592 328 583 q 224 460 224 546 z "},"•":{"ha":417,"x_min":88,"x_max":329,"o":"m 329 328 l 88 328 l 88 557 l 329 557 l 329 328 z "},"¶":{"ha":833,"x_min":90,"x_max":729,"o":"m 314 1000 l 433 1000 l 433 -250 l 314 -250 l 314 521 q 167 578 233 521 q 90 760 90 644 q 186 957 90 890 q 314 1000 247 1000 m 610 1000 l 729 1000 l 729 -250 l 610 -250 l 610 1000 z "},"ß":{"ha":838,"x_min":97,"x_max":810,"o":"m 535 -21 q 278 175 308 -21 l 414 175 q 535 92 426 92 q 642 129 604 92 q 674 215 674 161 q 649 307 674 272 q 557 374 624 342 q 427 460 460 421 q 394 567 394 499 q 408 626 394 601 q 464 694 422 651 q 508 750 496 728 q 521 803 521 775 q 482 878 521 850 q 379 907 443 907 q 265 854 304 907 q 231 731 231 808 l 231 0 l 97 0 l 97 728 q 182 947 97 867 q 379 1021 257 1021 q 578 963 501 1021 q 653 810 653 906 q 635 724 653 758 q 567 643 618 690 q 521 564 521 599 q 543 519 521 539 q 622 471 565 499 q 772 356 731 419 q 810 221 810 300 q 728 47 810 118 q 535 -21 651 -21 z "},"®":{"ha":894,"x_min":97,"x_max":797,"o":"m 447 349 q 200 438 301 349 q 97 685 97 529 q 228 953 97 861 q 447 1021 324 1021 q 694 932 593 1021 q 797 685 797 840 q 667 417 797 508 q 447 349 571 349 m 447 422 q 636 490 564 422 q 710 685 710 560 q 617 896 710 826 q 447 947 547 947 q 258 879 331 947 q 185 685 185 810 q 278 474 185 543 q 447 422 347 422 m 586 510 l 507 510 l 443 639 l 413 639 l 413 510 l 343 510 l 343 864 l 446 864 q 539 832 504 864 q 571 754 571 803 q 510 656 571 688 l 586 510 m 442 808 l 413 808 l 413 696 l 444 696 q 483 712 468 696 q 497 754 497 728 q 442 808 497 808 z "},"©":{"ha":1228,"x_min":83,"x_max":1144,"o":"m 1144 500 q 954 86 1144 229 q 614 -21 811 -21 q 364 33 479 -21 q 164 203 236 92 q 83 500 83 326 q 274 914 83 771 q 614 1021 417 1021 q 864 967 749 1021 q 1064 797 992 908 q 1144 500 1144 674 m 1029 500 q 886 833 1029 717 q 614 925 774 925 q 311 806 428 925 q 199 500 199 690 q 342 167 199 283 q 614 75 454 75 q 917 194 800 75 q 1029 500 1029 310 m 746 404 l 857 404 q 779 265 844 319 q 617 213 714 213 q 439 281 511 213 q 356 499 356 357 q 449 736 356 657 q 615 793 518 793 q 781 742 715 793 q 853 614 840 693 l 740 614 q 618 707 721 707 q 506 653 546 707 q 465 501 465 599 q 524 333 465 385 q 619 299 564 299 q 705 327 671 299 q 746 404 739 356 z "},"™":{"ha":1167,"x_min":35,"x_max":1063,"o":"m 838 450 l 728 450 l 596 894 l 596 450 l 497 450 l 497 908 l 308 908 l 308 450 l 201 450 l 201 908 l 35 908 l 35 1000 l 667 1000 l 785 583 l 896 1000 l 1063 1000 l 1063 450 l 961 450 l 961 894 l 838 450 z "},"´":{"ha":397,"x_min":42,"x_max":356,"o":"m 42 831 l 183 1021 l 356 1021 l 161 831 l 42 831 z "},"¨":{"ha":542,"x_min":42,"x_max":500,"o":"m 186 861 l 42 861 l 42 1000 l 186 1000 l 186 861 m 500 861 l 356 861 l 356 1000 l 500 1000 l 500 861 z "},"≠":{"ha":833,"x_min":114,"x_max":719,"o":"m 708 246 l 356 246 l 238 56 l 114 56 l 232 246 l 125 246 l 125 364 l 304 364 l 408 531 l 125 531 l 125 649 l 481 649 l 596 833 l 719 833 l 604 649 l 708 649 l 708 531 l 532 531 l 428 364 l 708 364 l 708 246 z "},"Æ":{"ha":1357,"x_min":0,"x_max":1288,"o":"m 1288 119 l 1288 0 l 692 0 l 692 253 l 307 253 l 153 0 l 0 0 l 615 1000 l 1288 1000 l 1288 881 l 833 881 l 833 567 l 1247 567 l 1247 450 l 833 450 l 833 119 l 1288 119 m 378 368 l 692 368 l 692 879 l 378 368 z "},"Ø":{"ha":1075,"x_min":63,"x_max":1013,"o":"m 538 -21 q 414 -6 478 -21 l 363 -153 l 239 -153 l 304 33 q 124 215 186 94 q 63 500 63 333 q 235 918 63 778 q 538 1021 363 1021 q 663 1006 597 1021 l 713 1139 l 836 1139 l 772 965 q 951 785 889 904 q 1013 500 1013 665 q 840 82 1013 222 q 538 -21 713 -21 m 538 94 q 788 213 699 94 q 868 500 868 319 q 721 851 868 749 l 449 106 q 538 94 493 94 m 207 500 q 354 147 207 250 l 624 894 q 538 906 582 906 q 288 788 376 906 q 207 500 207 681 z "},"∞":{"ha":1097,"x_min":76,"x_max":1021,"o":"m 335 733 q 452 700 394 733 q 549 610 510 667 q 767 733 622 733 q 971 644 903 733 q 1021 486 1021 579 q 954 311 1021 381 q 763 239 885 239 q 645 272 703 239 q 549 361 588 306 q 331 239 474 239 q 126 328 194 239 q 76 486 76 393 q 143 661 76 592 q 335 733 213 733 m 751 339 q 863 386 824 339 q 896 486 896 425 q 854 597 896 557 q 758 633 817 633 q 643 579 694 633 q 594 475 600 533 q 646 389 600 436 q 751 339 694 339 m 346 633 q 235 586 274 633 q 201 486 201 547 q 243 375 201 415 q 339 339 281 339 q 454 393 403 339 q 503 497 497 439 q 451 583 497 536 q 346 633 403 633 z "},"±":{"ha":833,"x_min":125,"x_max":708,"o":"m 479 739 l 479 507 l 708 507 l 708 389 l 479 389 l 479 211 l 353 211 l 353 389 l 125 389 l 125 507 l 353 507 l 353 739 l 479 739 m 708 0 l 125 0 l 125 118 l 708 118 l 708 0 z "},"≤":{"ha":833,"x_min":125,"x_max":708,"o":"m 708 0 l 125 0 l 125 118 l 708 118 l 708 0 m 257 465 l 257 458 l 708 307 l 708 174 l 125 396 l 125 528 l 708 778 l 708 644 l 257 465 z "},"≥":{"ha":833,"x_min":125,"x_max":708,"o":"m 708 0 l 125 0 l 125 118 l 708 118 l 708 0 m 576 458 l 576 465 l 125 644 l 125 778 l 708 528 l 708 396 l 125 174 l 125 307 l 576 458 z "},"¥":{"ha":833,"x_min":11,"x_max":824,"o":"m 488 0 l 347 0 l 347 181 l 153 181 l 153 282 l 347 282 l 347 389 l 153 389 l 153 490 l 293 490 l 11 972 l 167 972 l 418 519 l 679 972 l 824 972 l 540 490 l 682 490 l 682 389 l 488 389 l 488 282 l 682 282 l 682 181 l 488 181 l 488 0 z "},"µ":{"ha":789,"x_min":97,"x_max":692,"o":"m 558 722 l 692 722 l 692 0 l 582 0 l 568 78 q 364 -21 494 -21 q 231 21 293 -21 l 231 -250 l 97 -250 l 97 722 l 231 722 l 231 249 q 381 93 231 93 q 519 156 471 93 q 558 276 558 206 l 558 722 z "},"∂":{"ha":807,"x_min":56,"x_max":743,"o":"m 214 918 l 214 1043 q 631 828 506 985 q 743 444 743 688 q 636 82 743 206 q 396 -21 546 -21 q 140 83 235 -21 q 56 331 56 178 q 158 590 56 493 q 371 671 246 671 q 528 631 454 671 q 615 544 592 594 q 476 817 592 725 q 214 918 382 893 m 388 560 q 240 492 293 560 q 192 324 192 429 q 263 135 192 194 q 396 90 314 90 q 557 163 496 90 q 611 326 611 226 q 540 506 611 443 q 388 560 481 560 z "},"∑":{"ha":833,"x_min":69,"x_max":772,"o":"m 240 882 l 547 376 l 240 -132 l 772 -132 l 772 -250 l 69 -250 l 69 -135 l 386 376 l 69 885 l 69 1000 l 772 1000 l 772 882 l 240 882 z "},"∏":{"ha":833,"x_min":14,"x_max":819,"o":"m 246 0 l 104 0 l 104 853 l 14 853 l 14 972 l 819 972 l 819 853 l 729 853 l 729 0 l 586 0 l 586 853 l 246 853 l 246 0 z "},"π":{"ha":789,"x_min":7,"x_max":782,"o":"m 231 0 l 97 0 l 97 608 l 7 608 l 7 722 l 782 722 l 782 608 l 692 608 l 692 0 l 558 0 l 558 608 l 231 608 l 231 0 z "},"∫":{"ha":833,"x_min":164,"x_max":669,"o":"m 483 1103 l 483 -36 q 432 -183 483 -131 q 294 -233 383 -233 q 164 -226 226 -233 l 164 -112 q 274 -118 224 -118 q 350 -44 350 -118 l 350 1094 q 401 1242 350 1189 q 539 1292 450 1292 q 669 1285 607 1292 l 669 1171 q 560 1176 610 1176 q 483 1103 483 1176 z "},"ª":{"ha":694,"x_min":76,"x_max":618,"o":"m 218 853 l 101 853 q 188 978 113 929 q 342 1021 254 1021 q 514 964 449 1021 q 574 829 574 911 l 574 424 l 489 424 l 469 489 q 398 431 446 453 q 296 408 350 408 q 153 451 208 408 q 93 582 93 497 q 318 776 93 749 l 457 793 l 457 822 q 339 926 457 926 q 218 853 233 926 m 618 0 l 76 0 l 76 118 l 618 118 l 618 0 m 315 507 q 418 546 375 507 q 457 628 457 579 l 457 699 l 346 686 q 213 588 213 671 q 315 507 213 507 z "},"º":{"ha":694,"x_min":76,"x_max":618,"o":"m 604 0 l 76 0 l 76 118 l 604 118 l 604 0 m 79 715 q 176 969 79 893 q 349 1021 242 1021 q 542 951 474 1021 q 618 715 618 874 q 521 460 618 536 q 349 408 454 408 q 156 479 225 408 q 79 715 79 557 m 200 715 q 249 547 200 601 q 349 504 286 504 q 460 560 422 504 q 497 715 497 614 q 449 883 497 829 q 349 925 411 925 q 238 869 276 925 q 200 715 200 814 z "},"Ω":{"ha":1075,"x_min":63,"x_max":1013,"o":"m 392 126 l 392 0 l 106 0 l 106 126 l 240 126 q 106 283 154 169 q 63 500 63 382 q 235 918 63 778 q 538 1021 363 1021 q 876 888 746 1021 q 1013 500 1013 750 q 956 257 1013 364 q 831 126 907 164 l 969 126 l 969 0 l 683 0 l 683 126 q 824 275 776 172 q 868 500 868 369 q 764 815 868 707 q 538 906 678 906 q 288 788 376 906 q 207 500 207 681 q 263 250 207 350 q 392 126 310 167 z "},"æ":{"ha":1289,"x_min":56,"x_max":1226,"o":"m 1074 208 l 1218 208 q 1094 35 1189 97 q 894 -21 1010 -21 q 601 128 693 -21 q 483 18 560 58 q 321 -21 410 -21 q 122 38 193 -21 q 56 189 56 92 q 321 413 56 379 l 540 440 l 540 499 q 493 604 540 568 q 374 638 450 638 q 263 610 306 638 q 211 521 218 581 l 69 521 q 176 692 83 633 q 379 743 257 743 q 628 626 554 743 q 888 743 722 743 q 1143 636 1056 743 q 1226 342 1226 533 l 676 342 q 765 133 682 196 q 899 92 819 92 q 1018 129 968 92 q 1074 208 1058 161 m 338 92 q 478 142 415 92 q 540 254 536 189 l 540 336 l 353 313 q 233 275 268 301 q 197 196 197 249 q 232 119 197 147 q 338 92 268 92 m 890 636 q 754 588 808 636 q 683 447 700 538 l 1090 447 q 1021 596 1083 547 q 890 636 971 636 z "},"ø":{"ha":824,"x_min":56,"x_max":768,"o":"m 56 361 q 174 661 56 560 q 413 743 268 743 q 519 729 472 743 l 588 875 l 711 875 l 622 683 q 768 361 768 583 q 653 63 768 165 q 411 -21 558 -21 q 306 -7 353 -21 l 239 -153 l 113 -153 l 201 39 q 56 361 56 142 m 194 361 q 261 153 194 226 l 476 625 q 413 635 447 635 q 250 556 308 635 q 194 361 194 483 m 629 361 q 564 569 629 496 l 350 96 q 414 88 382 88 q 576 167 519 88 q 629 361 629 239 z "},"¿":{"ha":810,"x_min":56,"x_max":740,"o":"m 331 750 l 490 750 l 490 589 l 331 589 l 331 750 m 347 460 l 479 460 q 439 265 479 332 q 315 161 401 206 q 199 -12 199 101 q 257 -119 199 -81 q 386 -154 307 -154 q 596 7 572 -154 l 740 7 q 611 -208 718 -135 q 382 -271 519 -271 q 133 -185 225 -271 q 56 -12 56 -114 q 260 276 56 163 q 328 343 310 304 q 347 460 347 382 z "},"¡":{"ha":396,"x_min":118,"x_max":278,"o":"m 118 750 l 278 750 l 278 589 l 118 589 l 118 750 m 146 417 l 250 417 l 278 -250 l 118 -250 l 146 417 z "},"¬":{"ha":833,"x_min":125,"x_max":708,"o":"m 708 156 l 582 156 l 582 389 l 125 389 l 125 507 l 708 507 l 708 156 z "},"√":{"ha":833,"x_min":21,"x_max":917,"o":"m 417 0 l 263 0 l 21 639 l 160 639 l 338 153 l 639 1114 l 917 1114 l 917 1000 l 742 1000 l 417 0 z "},"ƒ":{"ha":447,"x_min":28,"x_max":454,"o":"m 454 976 l 454 861 q 344 878 388 878 q 289 858 310 878 q 268 804 268 839 l 268 701 l 424 701 l 424 588 l 268 588 l 268 -250 l 135 -250 l 135 588 l 28 588 l 28 701 l 135 701 l 135 796 q 196 943 135 888 q 336 993 250 993 q 454 976 390 993 z "},"≈":{"ha":833,"x_min":125,"x_max":708,"o":"m 283 571 q 125 508 197 571 l 125 635 q 202 675 156 660 q 292 690 249 690 q 438 649 353 690 q 549 614 508 614 q 708 676 636 614 l 708 550 q 631 510 678 525 q 542 494 585 494 q 394 536 481 494 q 283 571 324 571 m 283 288 q 125 225 197 288 l 125 351 q 202 392 156 376 q 292 407 249 407 q 438 365 353 407 q 549 331 508 331 q 708 393 636 331 l 708 267 q 631 226 678 242 q 542 211 585 211 q 394 253 481 211 q 283 288 324 288 z "},"∆":{"ha":981,"x_min":0,"x_max":981,"o":"m 981 0 l 0 0 l 411 1000 l 571 1000 l 981 0 m 489 858 l 196 119 l 776 119 l 489 858 z "},"«":{"ha":708,"x_min":83,"x_max":625,"o":"m 242 125 l 83 438 l 256 722 l 349 722 l 240 433 l 335 125 l 242 125 m 518 125 l 360 438 l 532 722 l 625 722 l 517 433 l 611 125 l 518 125 z "},"»":{"ha":708,"x_min":83,"x_max":625,"o":"m 625 438 l 467 125 l 374 125 l 468 433 l 360 722 l 453 722 l 625 438 m 349 438 l 190 125 l 97 125 l 192 433 l 83 722 l 176 722 l 349 438 z "},"…":{"ha":1250,"x_min":128,"x_max":1122,"o":"m 289 0 l 128 0 l 128 161 l 289 161 l 289 0 m 706 0 l 544 0 l 544 161 l 706 161 l 706 0 m 1122 0 l 961 0 l 961 161 l 1122 161 l 1122 0 z "},"À":{"ha":981,"x_min":0,"x_max":981,"o":"m 981 0 l 824 0 l 725 253 l 249 253 l 149 0 l 0 0 l 411 1000 l 571 1000 l 981 0 m 489 858 l 294 368 l 679 368 l 489 858 m 465 1257 l 607 1067 l 488 1067 l 293 1257 l 465 1257 z "},"Ã":{"ha":981,"x_min":0,"x_max":981,"o":"m 981 0 l 824 0 l 725 253 l 249 253 l 149 0 l 0 0 l 411 1000 l 571 1000 l 981 0 m 489 858 l 294 368 l 679 368 l 489 858 m 567 1085 q 472 1114 519 1085 q 400 1138 435 1138 q 282 1085 349 1138 l 282 1197 q 406 1243 346 1243 q 500 1214 453 1243 q 572 1190 539 1190 q 685 1243 618 1190 l 685 1131 q 567 1085 621 1085 z "},"Õ":{"ha":1075,"x_min":63,"x_max":1013,"o":"m 538 -21 q 179 133 310 -21 q 63 500 63 274 q 219 904 63 760 q 539 1021 347 1021 q 892 872 761 1021 q 1013 500 1013 732 q 858 99 1013 242 q 538 -21 731 -21 m 538 94 q 788 213 699 94 q 868 500 868 319 q 764 815 868 707 q 538 906 678 906 q 288 788 376 906 q 207 500 207 681 q 311 185 207 293 q 538 94 397 94 m 617 1085 q 522 1114 569 1085 q 450 1138 485 1138 q 332 1085 399 1138 l 332 1197 q 456 1243 396 1243 q 550 1214 503 1243 q 622 1190 589 1190 q 735 1243 668 1190 l 735 1131 q 617 1085 671 1085 z "},"Œ":{"ha":1376,"x_min":63,"x_max":1307,"o":"m 1307 119 l 1307 0 l 711 0 q 538 -21 622 -21 q 197 113 326 -21 q 63 500 63 250 q 235 918 63 778 q 538 1021 363 1021 q 711 1000 625 1021 l 1307 1000 l 1307 881 l 853 881 l 853 567 l 1267 567 l 1267 450 l 853 450 l 853 119 l 1307 119 m 538 94 q 711 128 635 94 l 711 872 q 538 906 635 906 q 288 788 376 906 q 207 500 207 681 q 310 185 207 292 q 538 94 396 94 z "},"œ":{"ha":1372,"x_min":56,"x_max":1310,"o":"m 1157 208 l 1301 208 q 1178 35 1272 97 q 978 -21 1093 -21 q 700 122 794 -21 q 581 17 656 54 q 413 -21 506 -21 q 167 67 264 -21 q 56 361 56 168 q 196 678 56 579 q 413 743 288 743 q 574 708 500 743 q 700 600 653 672 q 816 706 744 668 q 971 743 888 743 q 1226 633 1139 743 q 1310 332 1310 529 l 760 332 q 850 132 768 192 q 982 92 904 92 q 1101 129 1051 92 q 1157 208 1142 161 m 194 361 q 271 143 194 215 q 414 88 329 88 q 571 160 513 88 q 629 361 629 232 q 554 581 629 508 q 413 635 497 635 q 254 561 314 635 q 194 361 194 489 m 974 636 q 835 585 889 636 q 765 438 781 533 l 1174 438 q 1104 593 1167 542 q 974 636 1054 636 z "},"–":{"ha":833,"x_min":125,"x_max":708,"o":"m 708 389 l 125 389 l 125 507 l 708 507 l 708 389 z "},"—":{"ha":917,"x_min":42,"x_max":875,"o":"m 875 389 l 42 389 l 42 507 l 875 507 l 875 389 z "},"“":{"ha":640,"x_min":121,"x_max":540,"o":"m 121 631 l 121 771 q 186 947 121 886 q 303 1000 232 992 l 303 931 q 217 792 217 913 l 282 792 l 282 631 l 121 631 m 358 631 l 358 771 q 424 947 358 886 q 540 1000 469 992 l 540 931 q 454 792 454 913 l 519 792 l 519 631 l 358 631 z "},"”":{"ha":640,"x_min":100,"x_max":519,"o":"m 519 1000 l 519 860 q 454 683 519 744 q 338 631 408 639 l 338 700 q 424 839 424 718 l 358 839 l 358 1000 l 519 1000 m 282 1000 l 282 860 q 217 683 282 744 q 100 631 171 639 l 100 700 q 186 839 186 718 l 121 839 l 121 1000 l 282 1000 z "},"‘":{"ha":403,"x_min":121,"x_max":303,"o":"m 121 631 l 121 771 q 186 947 121 886 q 303 1000 232 992 l 303 931 q 217 792 217 913 l 282 792 l 282 631 l 121 631 z "},"’":{"ha":403,"x_min":100,"x_max":282,"o":"m 282 1000 l 282 860 q 217 683 282 744 q 100 631 171 639 l 100 700 q 186 839 186 718 l 121 839 l 121 1000 l 282 1000 z "},"÷":{"ha":833,"x_min":125,"x_max":708,"o":"m 497 89 l 336 89 l 336 250 l 497 250 l 497 89 m 497 644 l 336 644 l 336 806 l 497 806 l 497 644 m 708 389 l 125 389 l 125 507 l 708 507 l 708 389 z "},"◊":{"ha":833,"x_min":56,"x_max":778,"o":"m 778 486 l 481 0 l 333 0 l 56 486 l 335 972 l 481 972 l 778 486 m 640 486 l 410 875 l 194 486 l 410 97 l 640 486 z "},"ÿ":{"ha":714,"x_min":14,"x_max":700,"o":"m 700 722 l 449 -10 q 353 -208 399 -156 q 213 -271 299 -271 q 126 -258 176 -271 l 126 -150 q 196 -160 165 -160 q 263 -130 239 -160 q 322 0 286 -100 l 279 0 l 14 722 l 158 722 l 363 108 l 567 722 l 700 722 m 272 861 l 128 861 l 128 1000 l 272 1000 l 272 861 m 586 861 l 442 861 l 442 1000 l 586 1000 l 586 861 z "},"Ÿ":{"ha":874,"x_min":0,"x_max":874,"o":"m 507 0 l 367 0 l 367 397 l 0 1000 l 156 1000 l 438 519 l 729 1000 l 874 1000 l 507 397 l 507 0 m 353 1097 l 208 1097 l 208 1236 l 353 1236 l 353 1097 m 667 1097 l 522 1097 l 522 1236 l 667 1236 l 667 1097 z "},"⁄":{"ha":317,"x_min":-200,"x_max":510,"o":"m -75 -125 l -200 -125 l 383 1097 l 510 1097 l -75 -125 z "},"€":{"ha":833,"x_min":4,"x_max":829,"o":"m 4 529 l 32 638 l 100 638 q 250 914 133 821 q 488 993 347 993 q 736 904 643 993 q 828 721 811 832 l 683 721 q 613 838 667 799 q 488 875 563 875 q 244 638 288 875 l 582 638 l 554 529 l 232 529 l 232 486 q 233 435 232 451 l 526 435 l 499 326 l 246 326 q 489 99 294 99 q 683 256 646 99 l 829 256 q 707 50 800 124 q 486 -21 618 -21 q 222 81 324 -21 q 101 326 131 169 l 4 326 l 32 435 l 89 435 q 88 486 88 451 q 89 529 88 515 l 4 529 z "},"‹":{"ha":432,"x_min":83,"x_max":349,"o":"m 242 125 l 83 438 l 256 722 l 349 722 l 240 433 l 335 125 l 242 125 z "},"›":{"ha":432,"x_min":83,"x_max":349,"o":"m 349 438 l 190 125 l 97 125 l 192 433 l 83 722 l 176 722 l 349 438 z "},"ﬁ":{"ha":740,"x_min":28,"x_max":643,"o":"m 538 990 l 538 875 q 386 899 443 899 q 296 878 324 899 q 268 811 268 857 l 268 722 l 643 722 l 643 0 l 510 0 l 510 608 l 268 608 l 268 0 l 135 0 l 135 608 l 28 608 l 28 722 l 135 722 l 135 803 q 196 960 135 904 q 365 1014 256 1014 q 538 990 446 1014 z "},"ﬂ":{"ha":761,"x_min":28,"x_max":664,"o":"m 664 0 l 531 0 l 531 878 q 386 899 447 899 q 296 878 324 899 q 268 811 268 857 l 268 722 l 410 722 l 410 608 l 268 608 l 268 0 l 135 0 l 135 608 l 28 608 l 28 722 l 135 722 l 135 803 q 196 960 135 904 q 365 1014 256 1014 q 532 992 443 1014 l 664 1000 l 664 0 z "},"‡":{"ha":833,"x_min":93,"x_max":739,"o":"m 739 240 l 482 240 l 482 0 l 349 0 l 349 240 l 93 240 l 93 365 l 349 365 l 349 615 l 93 615 l 93 740 l 349 740 l 349 1000 l 482 1000 l 482 740 l 739 740 l 739 615 l 482 615 l 482 365 l 739 365 l 739 240 z "},"·":{"ha":417,"x_min":128,"x_max":289,"o":"m 289 361 l 128 361 l 128 522 l 289 522 l 289 361 z "},"‚":{"ha":403,"x_min":100,"x_max":282,"o":"m 282 161 l 282 21 q 217 -156 282 -94 q 100 -208 171 -200 l 100 -139 q 186 0 186 -121 l 121 0 l 121 161 l 282 161 z "},"„":{"ha":640,"x_min":100,"x_max":519,"o":"m 519 161 l 519 21 q 454 -156 519 -94 q 338 -208 408 -200 l 338 -139 q 424 0 424 -121 l 358 0 l 358 161 l 519 161 m 282 161 l 282 21 q 217 -156 282 -94 q 100 -208 171 -200 l 100 -139 q 186 0 186 -121 l 121 0 l 121 161 l 282 161 z "},"‰":{"ha":1689,"x_min":49,"x_max":1661,"o":"m 522 758 q 440 575 522 640 q 285 524 375 524 q 113 590 179 524 q 49 758 49 654 q 131 942 49 878 q 285 993 194 993 q 457 926 390 993 q 522 758 522 863 m 161 758 q 201 647 161 683 q 285 621 233 621 q 378 657 344 621 q 411 758 411 692 q 368 869 411 833 q 285 896 336 896 q 193 860 225 896 q 161 758 161 825 m 911 972 l 381 0 l 247 0 l 778 972 l 911 972 m 1119 214 q 1038 31 1119 96 q 882 -21 972 -21 q 710 46 776 -21 q 646 214 646 110 q 728 397 646 333 q 882 449 792 449 q 1054 382 988 449 q 1119 214 1119 318 m 758 214 q 799 103 758 139 q 882 76 831 76 q 975 113 942 76 q 1008 214 1008 147 q 965 325 1008 289 q 882 351 933 351 q 790 315 822 351 q 758 214 758 281 m 1661 214 q 1579 31 1661 96 q 1424 -21 1514 -21 q 1251 46 1318 -21 q 1188 214 1188 110 q 1269 397 1188 333 q 1424 449 1333 449 q 1596 382 1529 449 q 1661 214 1661 318 m 1300 214 q 1340 103 1300 139 q 1424 76 1372 76 q 1517 113 1483 76 q 1550 214 1550 147 q 1507 325 1550 289 q 1424 351 1475 351 q 1332 315 1364 351 q 1300 214 1300 281 z "},"Â":{"ha":981,"x_min":0,"x_max":981,"o":"m 981 0 l 824 0 l 725 253 l 249 253 l 149 0 l 0 0 l 411 1000 l 571 1000 l 981 0 m 489 858 l 294 368 l 679 368 l 489 858 m 567 1257 l 729 1067 l 594 1067 l 490 1181 l 386 1067 l 251 1067 l 415 1257 l 567 1257 z "},"Ê":{"ha":797,"x_min":104,"x_max":728,"o":"m 688 567 l 688 450 l 246 450 l 246 119 l 728 119 l 728 0 l 104 0 l 104 1000 l 728 1000 l 728 881 l 246 881 l 246 567 l 688 567 m 489 1257 l 651 1067 l 517 1067 l 413 1181 l 308 1067 l 174 1067 l 338 1257 l 489 1257 z "},"Á":{"ha":981,"x_min":0,"x_max":981,"o":"m 981 0 l 824 0 l 725 253 l 249 253 l 149 0 l 0 0 l 411 1000 l 571 1000 l 981 0 m 489 858 l 294 368 l 679 368 l 489 858 m 375 1067 l 517 1257 l 689 1257 l 494 1067 l 375 1067 z "},"Ë":{"ha":797,"x_min":104,"x_max":728,"o":"m 688 567 l 688 450 l 246 450 l 246 119 l 728 119 l 728 0 l 104 0 l 104 1000 l 728 1000 l 728 881 l 246 881 l 246 567 l 688 567 m 333 1097 l 189 1097 l 189 1236 l 333 1236 l 333 1097 m 647 1097 l 503 1097 l 503 1236 l 647 1236 l 647 1097 z "},"È":{"ha":797,"x_min":104,"x_max":728,"o":"m 688 567 l 688 450 l 246 450 l 246 119 l 728 119 l 728 0 l 104 0 l 104 1000 l 728 1000 l 728 881 l 246 881 l 246 567 l 688 567 m 388 1257 l 529 1067 l 410 1067 l 215 1257 l 388 1257 z "},"Í":{"ha":350,"x_min":58,"x_max":372,"o":"m 104 1000 l 246 1000 l 246 0 l 104 0 l 104 1000 m 58 1067 l 200 1257 l 372 1257 l 178 1067 l 58 1067 z "},"Î":{"ha":350,"x_min":-64,"x_max":414,"o":"m 104 1000 l 246 1000 l 246 0 l 104 0 l 104 1000 m 251 1257 l 414 1067 l 279 1067 l 175 1181 l 71 1067 l -64 1067 l 100 1257 l 251 1257 z "},"Ï":{"ha":350,"x_min":-54,"x_max":404,"o":"m 104 1000 l 246 1000 l 246 0 l 104 0 l 104 1000 m 90 1097 l -54 1097 l -54 1236 l 90 1236 l 90 1097 m 404 1097 l 260 1097 l 260 1236 l 404 1236 l 404 1097 z "},"Ì":{"ha":350,"x_min":-26,"x_max":288,"o":"m 104 1000 l 246 1000 l 246 0 l 104 0 l 104 1000 m 146 1257 l 288 1067 l 168 1067 l -26 1257 l 146 1257 z "},"Ó":{"ha":1075,"x_min":63,"x_max":1013,"o":"m 538 -21 q 179 133 310 -21 q 63 500 63 274 q 219 904 63 760 q 539 1021 347 1021 q 892 872 761 1021 q 1013 500 1013 732 q 858 99 1013 242 q 538 -21 731 -21 m 538 94 q 788 213 699 94 q 868 500 868 319 q 764 815 868 707 q 538 906 678 906 q 288 788 376 906 q 207 500 207 681 q 311 185 207 293 q 538 94 397 94 m 432 1067 l 574 1257 l 746 1257 l 551 1067 l 432 1067 z "},"Ô":{"ha":1075,"x_min":63,"x_max":1013,"o":"m 538 -21 q 179 133 310 -21 q 63 500 63 274 q 219 904 63 760 q 539 1021 347 1021 q 892 872 761 1021 q 1013 500 1013 732 q 858 99 1013 242 q 538 -21 731 -21 m 538 94 q 788 213 699 94 q 868 500 868 319 q 764 815 868 707 q 538 906 678 906 q 288 788 376 906 q 207 500 207 681 q 311 185 207 293 q 538 94 397 94 m 604 1257 l 767 1067 l 632 1067 l 528 1181 l 424 1067 l 289 1067 l 453 1257 l 604 1257 z "},"Ò":{"ha":1075,"x_min":63,"x_max":1013,"o":"m 538 -21 q 179 133 310 -21 q 63 500 63 274 q 219 904 63 760 q 539 1021 347 1021 q 892 872 761 1021 q 1013 500 1013 732 q 858 99 1013 242 q 538 -21 731 -21 m 538 94 q 788 213 699 94 q 868 500 868 319 q 764 815 868 707 q 538 906 678 906 q 288 788 376 906 q 207 500 207 681 q 311 185 207 293 q 538 94 397 94 m 506 1257 l 647 1067 l 528 1067 l 333 1257 l 506 1257 z "},"Ú":{"ha":982,"x_min":97,"x_max":885,"o":"m 97 1000 l 239 1000 l 239 322 q 314 153 239 213 q 493 99 381 99 q 690 169 622 99 q 747 322 747 228 l 747 1000 l 885 1000 l 885 335 q 763 63 885 160 q 492 -21 658 -21 q 190 89 299 -21 q 97 335 97 183 l 97 1000 m 385 1067 l 526 1257 l 699 1257 l 504 1067 l 385 1067 z "},"Û":{"ha":982,"x_min":97,"x_max":885,"o":"m 97 1000 l 239 1000 l 239 322 q 314 153 239 213 q 493 99 381 99 q 690 169 622 99 q 747 322 747 228 l 747 1000 l 885 1000 l 885 335 q 763 63 885 160 q 492 -21 658 -21 q 190 89 299 -21 q 97 335 97 183 l 97 1000 m 571 1257 l 733 1067 l 599 1067 l 494 1181 l 390 1067 l 256 1067 l 419 1257 l 571 1257 z "},"Ù":{"ha":982,"x_min":97,"x_max":885,"o":"m 97 1000 l 239 1000 l 239 322 q 314 153 239 213 q 493 99 381 99 q 690 169 622 99 q 747 322 747 228 l 747 1000 l 885 1000 l 885 335 q 763 63 885 160 q 492 -21 658 -21 q 190 89 299 -21 q 97 335 97 183 l 97 1000 m 471 1257 l 613 1067 l 493 1067 l 299 1257 l 471 1257 z "},"ı":{"ha":328,"x_min":97,"x_max":231,"o":"m 231 0 l 97 0 l 97 722 l 231 722 l 231 0 z "},"ˆ":{"ha":556,"x_min":39,"x_max":517,"o":"m 354 1021 l 517 831 l 382 831 l 278 944 l 174 831 l 39 831 l 203 1021 l 354 1021 z "},"˜":{"ha":486,"x_min":42,"x_max":444,"o":"m 326 849 q 232 878 279 849 q 160 901 194 901 q 42 849 108 901 l 42 961 q 165 1007 106 1007 q 260 978 213 1007 q 332 954 299 954 q 444 1007 378 954 l 444 894 q 326 849 381 849 z "},"¯":{"ha":458,"x_min":42,"x_max":417,"o":"m 417 879 l 42 879 l 42 993 l 417 993 l 417 879 z "},"˘":{"ha":458,"x_min":28,"x_max":431,"o":"m 229 836 q 85 890 138 836 q 28 1021 39 938 l 144 1021 q 229 925 151 925 q 314 1021 307 925 l 431 1021 q 360 878 418 926 q 229 836 308 836 z "},"˙":{"ha":233,"x_min":42,"x_max":192,"o":"m 192 843 l 42 843 l 42 1000 l 192 1000 l 192 843 z "},"˚":{"ha":449,"x_min":42,"x_max":407,"o":"m 136 972 q 160 908 136 932 q 224 885 183 885 q 288 909 264 885 q 313 972 313 933 q 288 1036 313 1013 q 224 1060 264 1060 q 160 1036 183 1060 q 136 972 136 1013 m 407 972 q 351 849 407 896 q 224 806 301 806 q 83 860 135 806 q 42 972 42 906 q 96 1096 42 1050 q 224 1139 146 1139 q 364 1085 313 1139 q 407 972 407 1039 z "},"¸":{"ha":422,"x_min":31,"x_max":389,"o":"m 389 -194 q 332 -310 389 -267 q 210 -346 283 -346 q 85 -304 135 -346 q 31 -206 40 -267 l 135 -206 q 160 -245 139 -229 q 211 -261 182 -261 q 266 -244 246 -261 q 286 -196 286 -226 q 255 -143 286 -160 q 156 -126 224 -126 l 169 28 l 263 28 l 263 -58 q 389 -194 389 -86 z "},"˝":{"ha":608,"x_min":42,"x_max":567,"o":"m 42 831 l 176 1021 l 325 1021 l 147 831 l 42 831 m 283 831 l 418 1021 l 567 1021 l 389 831 l 283 831 z "},"˛":{"ha":443,"x_min":38,"x_max":401,"o":"m 218 -343 q 82 -299 133 -343 q 38 -196 38 -258 q 103 -57 38 -124 q 249 26 161 1 l 353 26 q 211 -62 268 -14 q 144 -175 144 -121 q 224 -254 144 -254 q 293 -207 282 -254 l 401 -207 q 328 -311 382 -275 q 218 -343 282 -343 z "},"ˇ":{"ha":556,"x_min":39,"x_max":517,"o":"m 517 1021 l 354 831 l 203 831 l 39 1021 l 174 1021 l 278 907 l 382 1021 l 517 1021 z "},"\r":{"ha":417,"x_min":0,"x_max":0,"o":""}," ":{"ha":417,"x_min":0,"x_max":0,"o":""},"¤":{"ha":833,"x_min":46,"x_max":788,"o":"m 418 256 q 572 324 513 256 q 626 472 626 383 q 558 636 626 574 q 418 689 500 689 q 261 621 322 689 q 207 472 207 561 q 276 308 207 369 q 418 256 335 256 m 417 140 q 224 196 310 140 l 140 113 l 46 207 l 132 293 q 83 472 83 374 q 131 649 83 568 l 47 733 l 142 828 l 222 746 q 417 804 308 804 q 611 746 525 804 l 692 828 l 786 733 l 703 649 q 750 472 750 568 q 701 293 750 374 l 788 207 l 693 113 l 610 196 q 417 140 524 140 z "},"¦":{"ha":500,"x_min":190,"x_max":310,"o":"m 190 1090 l 310 1090 l 310 556 l 190 556 l 190 1090 m 190 340 l 310 340 l 310 -194 l 190 -194 l 190 340 z "},"­":{"ha":750,"x_min":125,"x_max":625,"o":"m 625 389 l 125 389 l 125 507 l 625 507 l 625 389 z "},"²":{"ha":574,"x_min":60,"x_max":510,"o":"m 188 854 l 60 854 q 143 990 71 942 q 294 1033 206 1033 q 456 979 396 1033 q 510 853 510 929 q 472 733 510 789 q 331 592 433 678 l 219 521 l 504 521 l 504 408 l 75 408 l 75 521 l 257 668 q 358 774 331 736 q 385 850 385 813 q 293 931 385 931 q 188 854 199 931 z "},"³":{"ha":589,"x_min":60,"x_max":525,"o":"m 297 1033 q 450 992 396 1033 q 506 868 506 949 q 472 785 506 821 q 379 733 439 749 q 525 576 525 704 q 457 442 525 492 q 296 397 394 397 q 122 454 186 397 q 60 571 69 500 l 181 571 q 294 499 204 499 q 373 521 344 499 q 401 581 401 543 q 294 681 401 681 l 249 681 l 249 772 l 296 772 q 383 861 383 772 q 290 933 383 933 q 197 868 208 933 l 72 868 q 150 993 83 949 q 297 1033 210 1033 z "},"¹":{"ha":365,"x_min":29,"x_max":301,"o":"m 301 1021 l 301 408 l 181 408 l 181 901 l 29 829 l 29 944 l 188 1021 l 301 1021 z "},"¼":{"ha":1203,"x_min":69,"x_max":1133,"o":"m 333 -125 l 208 -125 l 792 1097 l 918 1097 l 333 -125 m 342 1021 l 342 408 l 221 408 l 221 901 l 69 829 l 69 944 l 228 1021 l 342 1021 m 1043 613 l 1043 218 l 1133 218 l 1133 115 l 1043 115 l 1043 0 l 933 0 l 933 115 l 663 115 l 663 226 l 919 613 l 1043 613 m 933 450 l 769 218 l 933 218 l 933 450 z "},"½":{"ha":1265,"x_min":69,"x_max":1196,"o":"m 333 -125 l 208 -125 l 792 1097 l 918 1097 l 333 -125 m 342 1021 l 342 408 l 221 408 l 221 901 l 69 829 l 69 944 l 228 1021 l 342 1021 m 874 446 l 746 446 q 829 582 757 533 q 981 625 892 625 q 1142 571 1082 625 q 1196 444 1196 522 q 1158 326 1196 382 q 1017 183 1119 269 l 906 113 l 1190 113 l 1190 0 l 761 0 l 761 113 l 943 260 q 1044 366 1017 328 q 1071 442 1071 404 q 979 522 1071 522 q 874 446 885 522 z "},"¾":{"ha":1325,"x_min":69,"x_max":1256,"o":"m 456 -125 l 331 -125 l 914 1097 l 1040 1097 l 456 -125 m 307 1033 q 460 992 406 1033 q 515 868 515 949 q 482 785 515 821 q 389 733 449 749 q 535 576 535 704 q 467 442 535 492 q 306 397 404 397 q 132 454 196 397 q 69 571 79 500 l 190 571 q 304 499 214 499 q 383 521 354 499 q 411 581 411 543 q 304 681 411 681 l 258 681 l 258 772 l 306 772 q 393 861 393 772 q 300 933 393 933 q 207 868 218 933 l 82 868 q 160 993 93 949 q 307 1033 219 1033 m 1165 613 l 1165 218 l 1256 218 l 1256 115 l 1165 115 l 1165 0 l 1056 0 l 1056 115 l 785 115 l 785 226 l 1042 613 l 1165 613 m 1056 450 l 892 218 l 1056 218 l 1056 450 z "},"Ð":{"ha":983,"x_min":35,"x_max":921,"o":"m 104 0 l 104 465 l 35 465 l 35 585 l 104 585 l 104 1000 l 429 1000 q 803 861 675 1000 q 921 500 921 733 q 763 113 921 247 q 419 0 629 0 l 104 0 m 531 465 l 246 465 l 246 117 l 433 117 q 699 228 611 117 q 778 500 778 325 q 672 804 778 706 q 431 888 583 888 l 246 888 l 246 585 l 531 585 l 531 465 z "},"×":{"ha":833,"x_min":167,"x_max":667,"o":"m 250 694 l 415 531 l 583 696 l 667 613 l 500 447 l 667 282 l 583 199 l 415 364 l 250 200 l 167 283 l 332 447 l 167 611 l 250 694 z "},"Ý":{"ha":874,"x_min":0,"x_max":874,"o":"m 507 0 l 367 0 l 367 397 l 0 1000 l 156 1000 l 438 519 l 729 1000 l 874 1000 l 507 397 l 507 0 m 372 1067 l 514 1257 l 686 1257 l 492 1067 l 372 1067 z "},"Þ":{"ha":856,"x_min":104,"x_max":821,"o":"m 821 503 q 697 242 821 329 q 424 168 594 168 l 246 168 l 246 0 l 104 0 l 104 1000 l 246 1000 l 246 839 l 424 839 q 725 743 619 839 q 821 503 821 654 m 426 724 l 246 724 l 246 283 l 426 283 q 674 503 674 283 q 604 672 674 617 q 426 724 542 724 z "},"ð":{"ha":807,"x_min":56,"x_max":743,"o":"m 214 918 l 214 1043 q 468 958 364 1011 l 508 1000 l 651 1000 l 557 901 q 743 444 743 754 q 636 82 743 206 q 396 -21 546 -21 q 140 83 235 -21 q 56 331 56 178 q 158 590 56 493 q 371 671 246 671 q 528 631 454 671 q 615 544 592 594 q 476 817 590 725 l 435 772 l 292 772 l 386 871 q 214 918 314 903 m 388 560 q 240 492 293 560 q 192 324 192 429 q 263 135 192 194 q 396 90 314 90 q 557 163 496 90 q 611 326 611 226 q 540 506 611 443 q 388 560 481 560 z "},"ý":{"ha":714,"x_min":14,"x_max":700,"o":"m 700 722 l 449 -10 q 353 -208 399 -156 q 213 -271 299 -271 q 126 -258 176 -271 l 126 -150 q 196 -160 165 -160 q 263 -130 239 -160 q 322 0 286 -100 l 279 0 l 14 722 l 158 722 l 363 108 l 567 722 l 700 722 m 289 831 l 431 1021 l 603 1021 l 408 831 l 289 831 z "},"þ":{"ha":846,"x_min":97,"x_max":790,"o":"m 232 -250 l 97 -250 l 97 1000 l 231 1000 l 231 622 q 472 743 315 743 q 700 647 614 743 q 790 367 790 549 q 682 63 790 167 q 463 -21 596 -21 q 232 92 311 -21 l 232 -250 m 651 369 q 574 585 651 518 q 442 629 519 629 q 274 547 333 629 q 224 369 224 476 q 281 169 224 246 q 442 93 339 93 q 592 158 538 93 q 651 369 651 229 z "},"Ā":{"ha":981,"x_min":0,"x_max":981,"o":"m 981 0 l 824 0 l 725 253 l 249 253 l 149 0 l 0 0 l 411 1000 l 571 1000 l 981 0 m 489 858 l 294 368 l 679 368 l 489 858 m 674 1115 l 299 1115 l 299 1229 l 674 1229 l 674 1115 z "},"ā":{"ha":764,"x_min":56,"x_max":674,"o":"m 211 521 l 69 521 q 172 689 81 629 q 379 743 254 743 q 607 665 528 743 q 674 493 674 599 l 674 0 l 564 0 l 547 99 q 306 -21 463 -21 q 113 46 182 -21 q 56 186 56 101 q 129 351 56 293 q 329 426 194 403 l 540 463 l 540 499 q 492 606 540 569 q 374 638 449 638 q 211 521 226 638 m 338 92 q 485 147 422 92 q 540 265 540 199 l 540 358 l 361 326 q 226 275 263 310 q 197 200 197 247 q 233 119 197 147 q 338 92 269 92 m 558 879 l 183 879 l 183 993 l 558 993 l 558 879 z "},"Ă":{"ha":981,"x_min":0,"x_max":981,"o":"m 981 0 l 824 0 l 725 253 l 249 253 l 149 0 l 0 0 l 411 1000 l 571 1000 l 981 0 m 489 858 l 294 368 l 679 368 l 489 858 m 485 1072 q 340 1126 393 1072 q 283 1257 294 1174 l 400 1257 q 485 1161 407 1161 q 569 1257 563 1161 l 686 1257 q 615 1114 674 1163 q 485 1072 564 1072 z "},"ă":{"ha":764,"x_min":56,"x_max":674,"o":"m 211 521 l 69 521 q 172 689 81 629 q 379 743 254 743 q 607 665 528 743 q 674 493 674 599 l 674 0 l 564 0 l 547 99 q 306 -21 463 -21 q 113 46 182 -21 q 56 186 56 101 q 129 351 56 293 q 329 426 194 403 l 540 463 l 540 499 q 492 606 540 569 q 374 638 449 638 q 211 521 226 638 m 338 92 q 485 147 422 92 q 540 265 540 199 l 540 358 l 361 326 q 226 275 263 310 q 197 200 197 247 q 233 119 197 147 q 338 92 269 92 m 378 836 q 233 890 286 836 q 176 1021 188 938 l 293 1021 q 378 925 300 925 q 463 1021 456 925 l 579 1021 q 508 878 567 926 q 378 836 457 836 z "},"Ą":{"ha":981,"x_min":0,"x_max":1042,"o":"m 981 0 l 943 0 q 785 -175 785 -90 q 864 -254 785 -254 q 933 -207 922 -254 l 1042 -207 q 968 -311 1022 -275 q 858 -343 922 -343 q 722 -299 774 -343 q 678 -196 678 -258 q 717 -87 678 -140 q 824 0 757 -33 l 725 253 l 249 253 l 149 0 l 0 0 l 411 1000 l 571 1000 l 981 0 m 489 858 l 294 368 l 679 368 l 489 858 z "},"ą":{"ha":764,"x_min":56,"x_max":772,"o":"m 211 521 l 69 521 q 172 689 81 629 q 379 743 254 743 q 607 665 528 743 q 674 493 674 599 l 674 0 q 515 -175 515 -90 q 594 -254 515 -254 q 664 -207 653 -254 l 772 -207 q 699 -311 753 -275 q 589 -343 653 -343 q 453 -299 504 -343 q 408 -196 408 -258 q 451 -83 408 -139 q 563 4 493 -28 l 547 99 q 306 -21 463 -21 q 113 46 182 -21 q 56 186 56 101 q 129 351 56 293 q 329 426 194 403 l 540 463 l 540 499 q 492 606 540 569 q 374 638 449 638 q 211 521 226 638 m 540 263 l 540 358 l 361 326 q 226 275 263 310 q 197 200 197 247 q 233 119 197 147 q 338 92 269 92 q 482 146 418 92 q 540 263 540 194 z "},"Ć":{"ha":1013,"x_min":63,"x_max":957,"o":"m 524 99 q 736 181 653 99 q 814 353 808 251 l 957 353 q 896 169 951 254 q 744 33 839 83 q 521 -21 643 -21 q 171 133 294 -21 q 63 500 63 269 q 211 904 63 764 q 532 1021 335 1021 q 843 906 719 1021 q 956 679 946 811 l 813 679 q 714 850 799 789 q 532 903 639 903 q 286 789 372 903 q 207 500 207 685 q 307 189 207 297 q 524 99 390 99 m 433 1067 l 575 1257 l 747 1257 l 553 1067 l 433 1067 z "},"ć":{"ha":769,"x_min":56,"x_max":714,"o":"m 568 232 l 714 232 q 604 44 697 115 q 397 -21 519 -21 q 143 89 238 -21 q 56 356 56 190 q 161 653 56 547 q 396 743 251 743 q 615 672 529 743 q 708 508 692 610 l 561 508 q 505 599 547 567 q 399 631 463 631 q 247 553 300 631 q 197 351 197 481 q 264 147 197 217 q 400 92 317 92 q 518 133 472 92 q 568 232 558 169 m 331 831 l 472 1021 l 644 1021 l 450 831 l 331 831 z "},"Ĉ":{"ha":1013,"x_min":63,"x_max":957,"o":"m 524 99 q 736 181 653 99 q 814 353 808 251 l 957 353 q 896 169 951 254 q 744 33 839 83 q 521 -21 643 -21 q 171 133 294 -21 q 63 500 63 269 q 211 904 63 764 q 532 1021 335 1021 q 843 906 719 1021 q 956 679 946 811 l 813 679 q 714 850 799 789 q 532 903 639 903 q 286 789 372 903 q 207 500 207 685 q 307 189 207 297 q 524 99 390 99 m 578 1257 l 740 1067 l 606 1067 l 501 1181 l 397 1067 l 263 1067 l 426 1257 l 578 1257 z "},"ĉ":{"ha":769,"x_min":56,"x_max":714,"o":"m 568 232 l 714 232 q 604 44 697 115 q 397 -21 519 -21 q 143 89 238 -21 q 56 356 56 190 q 161 653 56 547 q 396 743 251 743 q 615 672 529 743 q 708 508 692 610 l 561 508 q 505 599 547 567 q 399 631 463 631 q 247 553 300 631 q 197 351 197 481 q 264 147 197 217 q 400 92 317 92 q 518 133 472 92 q 568 232 558 169 m 464 1021 l 626 831 l 492 831 l 388 944 l 283 831 l 149 831 l 313 1021 l 464 1021 z "},"Ċ":{"ha":1013,"x_min":63,"x_max":957,"o":"m 524 99 q 736 181 653 99 q 814 353 808 251 l 957 353 q 896 169 951 254 q 744 33 839 83 q 521 -21 643 -21 q 171 133 294 -21 q 63 500 63 269 q 211 904 63 764 q 532 1021 335 1021 q 843 906 719 1021 q 956 679 946 811 l 813 679 q 714 850 799 789 q 532 903 639 903 q 286 789 372 903 q 207 500 207 685 q 307 189 207 297 q 524 99 390 99 m 578 1079 l 428 1079 l 428 1236 l 578 1236 l 578 1079 z "},"ċ":{"ha":769,"x_min":56,"x_max":714,"o":"m 568 232 l 714 232 q 604 44 697 115 q 397 -21 519 -21 q 143 89 238 -21 q 56 356 56 190 q 161 653 56 547 q 396 743 251 743 q 615 672 529 743 q 708 508 692 610 l 561 508 q 505 599 547 567 q 399 631 463 631 q 247 553 300 631 q 197 351 197 481 q 264 147 197 217 q 400 92 317 92 q 518 133 472 92 q 568 232 558 169 m 458 843 l 308 843 l 308 1000 l 458 1000 l 458 843 z "},"Č":{"ha":1013,"x_min":63,"x_max":957,"o":"m 524 99 q 736 181 653 99 q 814 353 808 251 l 957 353 q 896 169 951 254 q 744 33 839 83 q 521 -21 643 -21 q 171 133 294 -21 q 63 500 63 269 q 211 904 63 764 q 532 1021 335 1021 q 843 906 719 1021 q 956 679 946 811 l 813 679 q 714 850 799 789 q 532 903 639 903 q 286 789 372 903 q 207 500 207 685 q 307 189 207 297 q 524 99 390 99 m 746 1257 l 583 1067 l 432 1067 l 268 1257 l 403 1257 l 507 1143 l 611 1257 l 746 1257 z "},"č":{"ha":769,"x_min":56,"x_max":714,"o":"m 568 232 l 714 232 q 604 44 697 115 q 397 -21 519 -21 q 143 89 238 -21 q 56 356 56 190 q 161 653 56 547 q 396 743 251 743 q 615 672 529 743 q 708 508 692 610 l 561 508 q 505 599 547 567 q 399 631 463 631 q 247 553 300 631 q 197 351 197 481 q 264 147 197 217 q 400 92 317 92 q 518 133 472 92 q 568 232 558 169 m 615 1021 l 453 831 l 301 831 l 138 1021 l 272 1021 l 376 907 l 481 1021 l 615 1021 z "},"Ď":{"ha":983,"x_min":104,"x_max":921,"o":"m 104 1000 l 429 1000 q 803 861 675 1000 q 921 500 921 733 q 763 113 921 247 q 419 0 629 0 l 104 0 l 104 1000 m 431 888 l 246 888 l 246 117 l 433 117 q 699 228 611 117 q 778 500 778 325 q 672 804 778 706 q 431 888 583 888 m 671 1257 l 508 1067 l 357 1067 l 193 1257 l 328 1257 l 432 1143 l 536 1257 l 671 1257 z "},"ď":{"ha":997,"x_min":56,"x_max":997,"o":"m 749 0 l 639 0 l 615 101 q 375 -21 532 -21 q 136 89 224 -21 q 56 357 56 190 q 158 660 56 558 q 383 743 244 743 q 615 631 533 743 l 615 1000 l 749 1000 l 749 0 m 194 354 q 261 150 194 219 q 404 93 317 93 q 572 175 513 93 q 622 353 622 246 q 556 567 622 493 q 404 629 499 629 q 244 553 299 629 q 194 354 194 483 m 997 1000 l 997 890 q 931 744 997 800 q 814 694 882 703 l 814 764 q 900 867 900 782 l 858 867 l 858 1000 l 997 1000 z "},"Đ":{"ha":983,"x_min":35,"x_max":921,"o":"m 104 0 l 104 465 l 35 465 l 35 585 l 104 585 l 104 1000 l 429 1000 q 803 861 675 1000 q 921 500 921 733 q 763 113 921 247 q 419 0 629 0 l 104 0 m 531 465 l 246 465 l 246 117 l 433 117 q 699 228 611 117 q 778 500 778 325 q 672 804 778 706 q 431 888 583 888 l 246 888 l 246 585 l 531 585 l 531 465 z "},"đ":{"ha":846,"x_min":56,"x_max":825,"o":"m 749 0 l 639 0 l 615 101 q 375 -21 532 -21 q 136 89 224 -21 q 56 357 56 190 q 158 660 56 558 q 383 743 244 743 q 615 631 533 743 l 615 831 l 411 831 l 411 931 l 615 931 l 615 1000 l 749 1000 l 749 931 l 825 931 l 825 831 l 749 831 l 749 0 m 194 354 q 261 150 194 219 q 404 93 317 93 q 572 175 513 93 q 622 353 622 246 q 556 567 622 493 q 404 629 499 629 q 244 553 299 629 q 194 354 194 483 z "},"Ē":{"ha":797,"x_min":104,"x_max":728,"o":"m 688 567 l 688 450 l 246 450 l 246 119 l 728 119 l 728 0 l 104 0 l 104 1000 l 728 1000 l 728 881 l 246 881 l 246 567 l 688 567 m 610 1115 l 235 1115 l 235 1229 l 610 1229 l 610 1115 z "},"ē":{"ha":804,"x_min":56,"x_max":742,"o":"m 589 208 l 733 208 q 613 36 703 99 q 410 -21 528 -21 q 143 88 239 -21 q 56 361 56 189 q 167 658 56 557 q 403 743 258 743 q 658 633 572 743 q 742 332 742 528 l 192 332 q 269 142 200 204 q 414 92 326 92 q 532 129 482 92 q 589 208 574 161 m 406 636 q 263 581 317 636 q 197 438 211 529 l 606 438 q 536 593 599 542 q 406 636 486 636 m 579 879 l 204 879 l 204 993 l 579 993 l 579 879 z "},"Ĕ":{"ha":797,"x_min":104,"x_max":728,"o":"m 688 567 l 688 450 l 246 450 l 246 119 l 728 119 l 728 0 l 104 0 l 104 1000 l 728 1000 l 728 881 l 246 881 l 246 567 l 688 567 m 433 1072 q 289 1126 342 1072 q 232 1257 243 1174 l 349 1257 q 433 1161 356 1161 q 518 1257 511 1161 l 635 1257 q 564 1114 622 1163 q 433 1072 513 1072 z "},"ĕ":{"ha":804,"x_min":56,"x_max":742,"o":"m 589 208 l 733 208 q 613 36 703 99 q 410 -21 528 -21 q 143 88 239 -21 q 56 361 56 189 q 167 658 56 557 q 403 743 258 743 q 658 633 572 743 q 742 332 742 528 l 192 332 q 269 142 200 204 q 414 92 326 92 q 532 129 482 92 q 589 208 574 161 m 406 636 q 263 581 317 636 q 197 438 211 529 l 606 438 q 536 593 599 542 q 406 636 486 636 m 401 836 q 257 890 310 836 q 200 1021 211 938 l 317 1021 q 401 925 324 925 q 486 1021 479 925 l 603 1021 q 532 878 590 926 q 401 836 481 836 z "},"Ė":{"ha":797,"x_min":104,"x_max":728,"o":"m 688 567 l 688 450 l 246 450 l 246 119 l 728 119 l 728 0 l 104 0 l 104 1000 l 728 1000 l 728 881 l 246 881 l 246 567 l 688 567 m 494 1079 l 344 1079 l 344 1236 l 494 1236 l 494 1079 z "},"ė":{"ha":804,"x_min":56,"x_max":742,"o":"m 589 208 l 733 208 q 613 36 703 99 q 410 -21 528 -21 q 143 88 239 -21 q 56 361 56 189 q 167 658 56 557 q 403 743 258 743 q 658 633 572 743 q 742 332 742 528 l 192 332 q 269 142 200 204 q 414 92 326 92 q 532 129 482 92 q 589 208 574 161 m 406 636 q 263 581 317 636 q 197 438 211 529 l 606 438 q 536 593 599 542 q 406 636 486 636 m 472 843 l 322 843 l 322 1000 l 472 1000 l 472 843 z "},"Ę":{"ha":797,"x_min":104,"x_max":728,"o":"m 688 567 l 688 450 l 246 450 l 246 119 l 728 119 l 728 0 l 601 0 q 444 -175 444 -90 q 524 -254 444 -254 q 593 -207 582 -254 l 701 -207 q 628 -311 682 -275 q 518 -343 582 -343 q 382 -299 433 -343 q 338 -196 338 -258 q 377 -87 338 -142 q 482 0 417 -33 l 104 0 l 104 1000 l 728 1000 l 728 881 l 246 881 l 246 567 l 688 567 z "},"ę":{"ha":804,"x_min":56,"x_max":742,"o":"m 458 -343 q 322 -299 374 -343 q 278 -196 278 -258 q 307 -102 278 -149 q 388 -21 336 -56 q 138 94 225 -12 q 56 361 56 194 q 167 658 56 557 q 403 743 258 743 q 658 633 572 743 q 742 332 742 528 l 192 332 q 269 142 200 204 q 414 92 326 92 q 532 129 482 92 q 589 208 574 161 l 733 208 q 551 3 693 68 q 432 -79 481 -31 q 385 -175 385 -129 q 464 -254 385 -254 q 533 -207 522 -254 l 642 -207 q 568 -311 622 -275 q 458 -343 522 -343 m 406 636 q 263 581 317 636 q 197 438 211 529 l 606 438 q 536 593 599 542 q 406 636 486 636 z "},"Ě":{"ha":797,"x_min":104,"x_max":728,"o":"m 688 567 l 688 450 l 246 450 l 246 119 l 728 119 l 728 0 l 104 0 l 104 1000 l 728 1000 l 728 881 l 246 881 l 246 567 l 688 567 m 665 1257 l 503 1067 l 351 1067 l 188 1257 l 322 1257 l 426 1143 l 531 1257 l 665 1257 z "},"ě":{"ha":804,"x_min":56,"x_max":742,"o":"m 589 208 l 733 208 q 613 36 703 99 q 410 -21 528 -21 q 143 88 239 -21 q 56 361 56 189 q 167 658 56 557 q 403 743 258 743 q 658 633 572 743 q 742 332 742 528 l 192 332 q 269 142 200 204 q 414 92 326 92 q 532 129 482 92 q 589 208 574 161 m 406 636 q 263 581 317 636 q 197 438 211 529 l 606 438 q 536 593 599 542 q 406 636 486 636 m 633 1021 l 471 831 l 319 831 l 156 1021 l 290 1021 l 394 907 l 499 1021 l 633 1021 z "},"Ĝ":{"ha":1025,"x_min":63,"x_max":936,"o":"m 936 538 l 936 0 l 832 0 l 813 119 q 675 13 763 49 q 506 -21 599 -21 q 175 132 299 -21 q 63 501 63 274 q 214 907 63 765 q 521 1021 336 1021 q 818 918 700 1021 q 935 707 918 832 l 796 707 q 694 857 776 806 q 521 903 624 903 q 288 790 372 903 q 207 501 207 683 q 315 185 207 296 q 522 96 400 96 q 733 175 650 96 q 808 346 808 244 l 808 424 l 515 424 l 515 538 l 936 538 m 588 1257 l 750 1067 l 615 1067 l 511 1181 l 407 1067 l 272 1067 l 436 1257 l 588 1257 z "},"ĝ":{"ha":846,"x_min":56,"x_max":749,"o":"m 89 -49 l 232 -49 q 288 -135 242 -104 q 411 -165 335 -165 q 571 -110 518 -165 q 615 22 615 -62 l 615 115 q 375 21 535 21 q 140 125 231 21 q 56 378 56 222 q 158 657 56 558 q 383 743 246 743 q 618 626 539 743 l 639 722 l 749 722 l 749 15 q 650 -199 749 -121 q 415 -271 561 -271 q 178 -203 264 -271 q 89 -49 106 -146 m 194 375 q 264 190 194 257 q 404 135 321 135 q 572 207 514 135 q 622 371 622 268 q 554 572 622 503 q 404 629 497 629 q 246 558 301 629 q 194 375 194 492 m 496 1021 l 658 831 l 524 831 l 419 944 l 315 831 l 181 831 l 344 1021 l 496 1021 z "},"Ğ":{"ha":1025,"x_min":63,"x_max":936,"o":"m 936 538 l 936 0 l 832 0 l 813 119 q 675 13 763 49 q 506 -21 599 -21 q 175 132 299 -21 q 63 501 63 274 q 214 907 63 765 q 521 1021 336 1021 q 818 918 700 1021 q 935 707 918 832 l 796 707 q 694 857 776 806 q 521 903 624 903 q 288 790 372 903 q 207 501 207 683 q 315 185 207 296 q 522 96 400 96 q 733 175 650 96 q 808 346 808 244 l 808 424 l 515 424 l 515 538 l 936 538 m 510 1072 q 365 1126 418 1072 q 308 1257 319 1174 l 425 1257 q 510 1161 432 1161 q 594 1257 588 1161 l 711 1257 q 640 1114 699 1163 q 510 1072 589 1072 z "},"ğ":{"ha":846,"x_min":56,"x_max":749,"o":"m 89 -49 l 232 -49 q 288 -135 242 -104 q 411 -165 335 -165 q 571 -110 518 -165 q 615 22 615 -62 l 615 115 q 375 21 535 21 q 140 125 231 21 q 56 378 56 222 q 158 657 56 558 q 383 743 246 743 q 618 626 539 743 l 639 722 l 749 722 l 749 15 q 650 -199 749 -121 q 415 -271 561 -271 q 178 -203 264 -271 q 89 -49 106 -146 m 194 375 q 264 190 194 257 q 404 135 321 135 q 572 207 514 135 q 622 371 622 268 q 554 572 622 503 q 404 629 497 629 q 246 558 301 629 q 194 375 194 492 m 411 836 q 267 890 319 836 q 210 1021 221 938 l 326 1021 q 411 925 333 925 q 496 1021 489 925 l 613 1021 q 542 878 600 926 q 411 836 490 836 z "},"Ġ":{"ha":1025,"x_min":63,"x_max":936,"o":"m 936 538 l 936 0 l 832 0 l 813 119 q 675 13 763 49 q 506 -21 599 -21 q 175 132 299 -21 q 63 501 63 274 q 214 907 63 765 q 521 1021 336 1021 q 818 918 700 1021 q 935 707 918 832 l 796 707 q 694 857 776 806 q 521 903 624 903 q 288 790 372 903 q 207 501 207 683 q 315 185 207 296 q 522 96 400 96 q 733 175 650 96 q 808 346 808 244 l 808 424 l 515 424 l 515 538 l 936 538 m 593 1079 l 443 1079 l 443 1236 l 593 1236 l 593 1079 z "},"ġ":{"ha":846,"x_min":56,"x_max":749,"o":"m 89 -49 l 232 -49 q 288 -135 242 -104 q 411 -165 335 -165 q 571 -110 518 -165 q 615 22 615 -62 l 615 115 q 375 21 535 21 q 140 125 231 21 q 56 378 56 222 q 158 657 56 558 q 383 743 246 743 q 618 626 539 743 l 639 722 l 749 722 l 749 15 q 650 -199 749 -121 q 415 -271 561 -271 q 178 -203 264 -271 q 89 -49 106 -146 m 194 375 q 264 190 194 257 q 404 135 321 135 q 572 207 514 135 q 622 371 622 268 q 554 572 622 503 q 404 629 497 629 q 246 558 301 629 q 194 375 194 492 m 489 843 l 339 843 l 339 1000 l 489 1000 l 489 843 z "},"Ģ":{"ha":1025,"x_min":63,"x_max":936,"o":"m 936 538 l 936 0 l 832 0 l 813 119 q 675 13 763 49 q 506 -21 599 -21 q 175 132 299 -21 q 63 501 63 274 q 214 907 63 765 q 521 1021 336 1021 q 818 918 700 1021 q 935 707 918 832 l 796 707 q 694 857 776 806 q 521 903 624 903 q 288 790 372 903 q 207 501 207 683 q 315 185 207 296 q 522 96 400 96 q 733 175 650 96 q 808 346 808 244 l 808 424 l 515 424 l 515 538 l 936 538 m 588 -83 l 588 -193 q 521 -354 588 -292 q 404 -410 471 -401 l 404 -340 q 467 -298 443 -332 q 490 -217 490 -264 l 449 -217 l 449 -83 l 588 -83 z "},"ģ":{"ha":846,"x_min":56,"x_max":749,"o":"m 89 -49 l 232 -49 q 288 -135 242 -104 q 411 -165 335 -165 q 571 -110 518 -165 q 615 22 615 -62 l 615 115 q 375 21 535 21 q 140 125 231 21 q 56 378 56 222 q 158 657 56 558 q 383 743 246 743 q 618 626 539 743 l 639 722 l 749 722 l 749 15 q 650 -199 749 -121 q 415 -271 561 -271 q 178 -203 264 -271 q 89 -49 106 -146 m 194 375 q 264 190 194 257 q 404 135 321 135 q 572 207 514 135 q 622 371 622 268 q 554 572 622 503 q 404 629 497 629 q 246 558 301 629 q 194 375 194 492 m 336 806 l 336 915 q 403 1061 336 1006 q 519 1111 451 1103 l 519 1042 q 433 939 433 1024 l 475 939 l 475 806 l 336 806 z "},"Ĥ":{"ha":982,"x_min":104,"x_max":878,"o":"m 735 1000 l 878 1000 l 878 0 l 735 0 l 735 446 l 246 446 l 246 0 l 104 0 l 104 1000 l 246 1000 l 246 565 l 735 565 l 735 1000 m 568 1257 l 731 1067 l 596 1067 l 492 1181 l 388 1067 l 253 1067 l 417 1257 l 568 1257 z "},"ĥ":{"ha":788,"x_min":97,"x_max":697,"o":"m 231 0 l 97 0 l 97 1000 l 231 1000 l 231 640 q 442 743 310 743 q 638 664 569 743 q 697 471 697 593 l 697 0 l 564 0 l 564 469 q 410 629 564 629 q 276 572 328 629 q 231 440 231 521 l 231 0 m 422 1257 l 585 1067 l 450 1067 l 346 1181 l 242 1067 l 107 1067 l 271 1257 l 422 1257 z "},"Ħ":{"ha":1010,"x_min":14,"x_max":996,"o":"m 749 1000 l 892 1000 l 892 868 l 996 868 l 996 763 l 892 763 l 892 0 l 749 0 l 749 446 l 260 446 l 260 0 l 118 0 l 118 763 l 14 763 l 14 868 l 118 868 l 118 1000 l 260 1000 l 260 868 l 749 868 l 749 1000 m 260 763 l 260 565 l 749 565 l 749 763 l 260 763 z "},"ħ":{"ha":788,"x_min":21,"x_max":697,"o":"m 231 0 l 97 0 l 97 831 l 21 831 l 21 931 l 97 931 l 97 1000 l 231 1000 l 231 931 l 435 931 l 435 831 l 231 831 l 231 640 q 442 743 310 743 q 638 664 569 743 q 697 471 697 593 l 697 0 l 564 0 l 564 469 q 410 629 564 629 q 278 574 329 629 q 231 446 231 524 l 231 0 z "},"Ĩ":{"ha":350,"x_min":-26,"x_max":376,"o":"m 104 1000 l 246 1000 l 246 0 l 104 0 l 104 1000 m 258 1085 q 164 1114 211 1085 q 92 1138 126 1138 q -26 1085 40 1138 l -26 1197 q 97 1243 38 1243 q 192 1214 144 1243 q 264 1190 231 1190 q 376 1243 310 1190 l 376 1131 q 258 1085 313 1085 z "},"ĩ":{"ha":328,"x_min":-37,"x_max":365,"o":"m 231 0 l 97 0 l 97 722 l 231 722 l 231 0 m 247 849 q 153 878 200 849 q 81 901 115 901 q -37 849 29 901 l -37 961 q 86 1007 26 1007 q 181 978 133 1007 q 253 954 219 954 q 365 1007 299 954 l 365 894 q 247 849 301 849 z "},"Ī":{"ha":350,"x_min":-12,"x_max":363,"o":"m 104 1000 l 246 1000 l 246 0 l 104 0 l 104 1000 m 363 1115 l -12 1115 l -12 1229 l 363 1229 l 363 1115 z "},"ī":{"ha":328,"x_min":-24,"x_max":351,"o":"m 231 0 l 97 0 l 97 722 l 231 722 l 231 0 m 351 879 l -24 879 l -24 993 l 351 993 l 351 879 z "},"Ĭ":{"ha":350,"x_min":-26,"x_max":376,"o":"m 104 1000 l 246 1000 l 246 0 l 104 0 l 104 1000 m 175 1072 q 31 1126 83 1072 q -26 1257 -15 1174 l 90 1257 q 175 1161 97 1161 q 260 1257 253 1161 l 376 1257 q 306 1114 364 1163 q 175 1072 254 1072 z "},"ĭ":{"ha":328,"x_min":-37,"x_max":365,"o":"m 231 0 l 97 0 l 97 722 l 231 722 l 231 0 m 164 836 q 19 890 72 836 q -37 1021 -26 938 l 79 1021 q 164 925 86 925 q 249 1021 242 925 l 365 1021 q 294 878 353 926 q 164 836 243 836 z "},"Į":{"ha":350,"x_min":-44,"x_max":319,"o":"m 104 1000 l 246 1000 l 246 0 l 221 0 q 63 -175 63 -90 q 142 -254 63 -254 q 211 -207 200 -254 l 319 -207 q 246 -311 300 -275 q 136 -343 200 -343 q 0 -299 51 -343 q -44 -196 -44 -258 q -3 -85 -44 -140 q 104 1 38 -31 l 104 1000 z "},"į":{"ha":328,"x_min":-47,"x_max":317,"o":"m 231 0 l 218 0 q 60 -175 60 -90 q 139 -254 60 -254 q 208 -207 197 -254 l 317 -207 q 243 -311 297 -275 q 133 -343 197 -343 q -3 -299 49 -343 q -47 -196 -47 -258 q -8 -87 -47 -142 q 97 0 32 -33 l 97 722 l 231 722 l 231 0 m 239 843 l 89 843 l 89 1000 l 239 1000 l 239 843 z "},"İ":{"ha":350,"x_min":100,"x_max":250,"o":"m 104 1000 l 246 1000 l 246 0 l 104 0 l 104 1000 m 250 1079 l 100 1079 l 100 1236 l 250 1236 l 250 1079 z "},"Ĳ":{"ha":1100,"x_min":104,"x_max":1003,"o":"m 104 1000 l 246 1000 l 246 0 l 104 0 l 104 1000 m 385 281 l 528 281 q 697 99 536 99 q 824 157 781 99 q 861 294 861 207 l 861 1000 l 1003 1000 l 1003 293 q 911 50 1003 132 q 692 -21 831 -21 q 461 76 547 -21 q 385 281 389 158 z "},"ĳ":{"ha":656,"x_min":89,"x_max":567,"o":"m 239 843 l 89 843 l 89 1000 l 239 1000 l 239 843 m 231 0 l 97 0 l 97 722 l 231 722 l 231 0 m 260 -254 l 260 -144 q 343 -157 315 -157 q 408 -137 390 -157 q 425 -65 425 -118 l 425 722 l 558 722 l 558 -72 q 501 -222 558 -169 q 364 -271 450 -271 q 260 -254 311 -271 m 567 843 l 417 843 l 417 1000 l 567 1000 l 567 843 z "},"Ĵ":{"ha":750,"x_min":35,"x_max":814,"o":"m 35 281 l 178 281 q 347 99 186 99 q 474 157 431 99 q 511 294 511 207 l 511 1000 l 653 1000 l 653 293 q 561 50 653 132 q 342 -21 481 -21 q 111 76 197 -21 q 35 281 39 158 m 651 1257 l 814 1067 l 679 1067 l 575 1181 l 471 1067 l 336 1067 l 500 1257 l 651 1257 z "},"ĵ":{"ha":328,"x_min":-75,"x_max":403,"o":"m -68 -254 l -68 -144 q 15 -157 -12 -157 q 80 -137 63 -157 q 97 -65 97 -118 l 97 722 l 231 722 l 231 -72 q 174 -222 231 -169 q 36 -271 122 -271 q -68 -254 -17 -271 m 240 1021 l 403 831 l 268 831 l 164 944 l 60 831 l -75 831 l 89 1021 l 240 1021 z "},"Ķ":{"ha":878,"x_min":104,"x_max":871,"o":"m 871 0 l 683 0 l 246 471 l 246 0 l 104 0 l 104 1000 l 246 1000 l 246 556 l 653 1000 l 828 1000 l 374 522 l 871 0 m 497 -83 l 497 -193 q 431 -354 497 -292 q 314 -410 381 -401 l 314 -340 q 376 -298 353 -332 q 400 -217 400 -264 l 358 -217 l 358 -83 l 497 -83 z "},"ķ":{"ha":722,"x_min":97,"x_max":729,"o":"m 231 0 l 97 0 l 97 1000 l 231 1000 l 231 442 l 514 722 l 689 722 l 364 408 l 729 0 l 551 0 l 231 364 l 231 0 m 435 -83 l 435 -193 q 368 -354 435 -292 q 251 -410 318 -401 l 251 -340 q 314 -298 290 -332 q 338 -217 338 -264 l 296 -217 l 296 -83 l 435 -83 z "},"ĸ":{"ha":722,"x_min":97,"x_max":729,"o":"m 231 0 l 97 0 l 97 722 l 231 722 l 231 404 l 526 722 l 689 722 l 364 382 l 729 0 l 542 0 l 231 329 l 231 0 z "},"Ĺ":{"ha":767,"x_min":67,"x_max":718,"o":"m 104 1000 l 247 1000 l 247 126 l 718 126 l 718 0 l 104 0 l 104 1000 m 67 1067 l 208 1257 l 381 1257 l 186 1067 l 67 1067 z "},"ĺ":{"ha":328,"x_min":43,"x_max":357,"o":"m 231 1000 l 231 0 l 97 0 l 97 1000 l 231 1000 m 43 1067 l 185 1257 l 357 1257 l 163 1067 l 43 1067 z "},"Ļ":{"ha":767,"x_min":104,"x_max":718,"o":"m 104 1000 l 247 1000 l 247 126 l 718 126 l 718 0 l 104 0 l 104 1000 m 482 -83 l 482 -193 q 415 -354 482 -292 q 299 -410 365 -401 l 299 -340 q 361 -298 338 -332 q 385 -217 385 -264 l 343 -217 l 343 -83 l 482 -83 z "},"ļ":{"ha":328,"x_min":50,"x_max":233,"o":"m 231 1000 l 231 0 l 97 0 l 97 1000 l 231 1000 m 233 -83 l 233 -193 q 167 -354 233 -292 q 50 -410 117 -401 l 50 -340 q 113 -298 89 -332 q 136 -217 136 -264 l 94 -217 l 94 -83 l 233 -83 z "},"Ľ":{"ha":767,"x_min":104,"x_max":718,"o":"m 104 1000 l 247 1000 l 247 126 l 718 126 l 718 0 l 104 0 l 104 1000 m 517 1000 l 517 890 q 450 744 517 800 q 333 694 401 703 l 333 764 q 419 867 419 782 l 378 867 l 378 1000 l 517 1000 z "},"ľ":{"ha":476,"x_min":97,"x_max":476,"o":"m 231 1000 l 231 0 l 97 0 l 97 1000 l 231 1000 m 476 1000 l 476 890 q 410 744 476 800 q 293 694 361 703 l 293 764 q 379 867 379 782 l 338 867 l 338 1000 l 476 1000 z "},"Ŀ":{"ha":767,"x_min":104,"x_max":718,"o":"m 104 1000 l 247 1000 l 247 126 l 718 126 l 718 0 l 104 0 l 104 1000 m 626 440 l 476 440 l 476 597 l 626 597 l 626 440 z "},"ŀ":{"ha":474,"x_min":97,"x_max":474,"o":"m 231 1000 l 231 0 l 97 0 l 97 1000 l 231 1000 m 474 440 l 324 440 l 324 597 l 474 597 l 474 440 z "},"Ł":{"ha":767,"x_min":35,"x_max":718,"o":"m 104 1000 l 247 1000 l 247 614 l 465 736 l 465 594 l 247 472 l 247 126 l 718 126 l 718 0 l 104 0 l 104 392 l 35 353 l 35 494 l 104 533 l 104 1000 z "},"ł":{"ha":356,"x_min":14,"x_max":342,"o":"m 231 1000 l 231 629 l 342 697 l 342 567 l 231 499 l 231 0 l 97 0 l 97 417 l 14 367 l 14 497 l 97 547 l 97 1000 l 231 1000 z "},"Ń":{"ha":999,"x_min":104,"x_max":894,"o":"m 768 1000 l 894 1000 l 894 0 l 715 0 l 233 838 l 233 0 l 104 0 l 104 1000 l 292 1000 l 768 169 l 768 1000 m 418 1067 l 560 1257 l 732 1257 l 538 1067 l 418 1067 z "},"ń":{"ha":788,"x_min":97,"x_max":697,"o":"m 231 0 l 97 0 l 97 722 l 207 722 l 222 631 q 442 743 303 743 q 638 664 569 743 q 697 471 697 593 l 697 0 l 564 0 l 564 469 q 410 629 564 629 q 278 574 329 629 q 231 446 231 524 l 231 0 m 333 831 l 475 1021 l 647 1021 l 453 831 l 333 831 z "},"Ņ":{"ha":999,"x_min":104,"x_max":894,"o":"m 768 1000 l 894 1000 l 894 0 l 715 0 l 233 838 l 233 0 l 104 0 l 104 1000 l 292 1000 l 768 169 l 768 1000 m 582 -83 l 582 -193 q 515 -354 582 -292 q 399 -410 465 -401 l 399 -340 q 461 -298 438 -332 q 485 -217 485 -264 l 443 -217 l 443 -83 l 582 -83 z "},"ņ":{"ha":788,"x_min":97,"x_max":697,"o":"m 231 0 l 97 0 l 97 722 l 207 722 l 222 631 q 442 743 303 743 q 638 664 569 743 q 697 471 697 593 l 697 0 l 564 0 l 564 469 q 410 629 564 629 q 278 574 329 629 q 231 446 231 524 l 231 0 m 465 -83 l 465 -193 q 399 -354 465 -292 q 282 -410 349 -401 l 282 -340 q 344 -298 321 -332 q 368 -217 368 -264 l 326 -217 l 326 -83 l 465 -83 z "},"Ň":{"ha":999,"x_min":104,"x_max":894,"o":"m 758 1257 l 596 1067 l 444 1067 l 281 1257 l 415 1257 l 519 1143 l 624 1257 l 758 1257 m 768 1000 l 894 1000 l 894 0 l 715 0 l 233 838 l 233 0 l 104 0 l 104 1000 l 292 1000 l 768 169 l 768 1000 z "},"ň":{"ha":788,"x_min":97,"x_max":697,"o":"m 231 0 l 97 0 l 97 722 l 207 722 l 222 631 q 442 743 303 743 q 638 664 569 743 q 697 471 697 593 l 697 0 l 564 0 l 564 469 q 410 629 564 629 q 278 574 329 629 q 231 446 231 524 l 231 0 m 649 1021 l 486 831 l 335 831 l 171 1021 l 306 1021 l 410 907 l 514 1021 l 649 1021 z "},"ŉ":{"ha":832,"x_min":0,"x_max":742,"o":"m 275 0 l 142 0 l 142 722 l 251 722 l 267 631 q 486 743 347 743 q 682 664 614 743 q 742 471 742 593 l 742 0 l 608 0 l 608 469 q 454 629 608 629 q 322 574 374 629 q 275 446 275 524 l 275 0 m 183 1000 l 183 890 q 117 744 183 800 q 0 694 68 703 l 0 764 q 86 867 86 782 l 44 867 l 44 1000 l 183 1000 z "},"Ŋ":{"ha":999,"x_min":104,"x_max":894,"o":"m 768 1000 l 894 1000 l 894 -76 q 839 -225 894 -174 q 700 -271 789 -271 q 596 -254 649 -271 l 596 -143 q 679 -156 651 -156 q 747 -136 729 -156 q 768 -64 768 -115 l 768 0 l 715 0 l 233 838 l 233 0 l 104 0 l 104 1000 l 292 1000 l 768 169 l 768 1000 z "},"ŋ":{"ha":788,"x_min":97,"x_max":697,"o":"m 231 0 l 97 0 l 97 722 l 207 722 l 222 631 q 442 743 303 743 q 638 664 569 743 q 697 471 697 593 l 697 -76 q 642 -225 697 -174 q 503 -271 592 -271 q 399 -254 450 -271 l 399 -143 q 482 -156 454 -156 q 546 -136 528 -156 q 564 -64 564 -115 l 564 469 q 410 629 564 629 q 278 574 329 629 q 231 444 231 522 l 231 0 z "},"Ō":{"ha":1075,"x_min":63,"x_max":1013,"o":"m 538 -21 q 179 133 310 -21 q 63 500 63 274 q 219 904 63 760 q 539 1021 347 1021 q 892 872 761 1021 q 1013 500 1013 732 q 858 99 1013 242 q 538 -21 731 -21 m 538 94 q 788 213 699 94 q 868 500 868 319 q 764 815 868 707 q 538 906 678 906 q 288 788 376 906 q 207 500 207 681 q 311 185 207 293 q 538 94 397 94 m 713 1115 l 338 1115 l 338 1229 l 713 1229 l 713 1115 z "},"ō":{"ha":824,"x_min":56,"x_max":768,"o":"m 56 361 q 174 661 56 560 q 413 743 268 743 q 676 636 581 743 q 768 361 768 536 q 653 63 768 165 q 411 -21 558 -21 q 146 90 243 -21 q 56 361 56 192 m 194 361 q 265 149 194 222 q 414 88 324 88 q 576 167 519 88 q 629 361 629 239 q 560 575 629 503 q 413 635 503 635 q 250 556 308 635 q 194 361 194 483 m 600 879 l 225 879 l 225 993 l 600 993 l 600 879 z "},"Ŏ":{"ha":1075,"x_min":63,"x_max":1013,"o":"m 538 -21 q 179 133 310 -21 q 63 500 63 274 q 219 904 63 760 q 539 1021 347 1021 q 892 872 761 1021 q 1013 500 1013 732 q 858 99 1013 242 q 538 -21 731 -21 m 538 94 q 788 213 699 94 q 868 500 868 319 q 764 815 868 707 q 538 906 678 906 q 288 788 376 906 q 207 500 207 681 q 311 185 207 293 q 538 94 397 94 m 538 1072 q 393 1126 446 1072 q 336 1257 347 1174 l 453 1257 q 538 1161 460 1161 q 622 1257 615 1161 l 739 1257 q 668 1114 726 1163 q 538 1072 617 1072 z "},"ŏ":{"ha":824,"x_min":56,"x_max":768,"o":"m 56 361 q 174 661 56 560 q 413 743 268 743 q 676 636 581 743 q 768 361 768 536 q 653 63 768 165 q 411 -21 558 -21 q 146 90 243 -21 q 56 361 56 192 m 194 361 q 265 149 194 222 q 414 88 324 88 q 576 167 519 88 q 629 361 629 239 q 560 575 629 503 q 413 635 503 635 q 250 556 308 635 q 194 361 194 483 m 411 836 q 267 890 319 836 q 210 1021 221 938 l 326 1021 q 411 925 333 925 q 496 1021 489 925 l 613 1021 q 542 878 600 926 q 411 836 490 836 z "},"Ő":{"ha":1075,"x_min":63,"x_max":1013,"o":"m 538 -21 q 179 133 310 -21 q 63 500 63 274 q 219 904 63 760 q 539 1021 347 1021 q 892 872 761 1021 q 1013 500 1013 732 q 858 99 1013 242 q 538 -21 731 -21 m 538 94 q 788 213 699 94 q 868 500 868 319 q 764 815 868 707 q 538 906 678 906 q 288 788 376 906 q 207 500 207 681 q 311 185 207 293 q 538 94 397 94 m 347 1067 l 482 1257 l 631 1257 l 453 1067 l 347 1067 m 589 1067 l 724 1257 l 872 1257 l 694 1067 l 589 1067 z "},"ő":{"ha":824,"x_min":56,"x_max":768,"o":"m 56 361 q 174 661 56 560 q 413 743 268 743 q 676 636 581 743 q 768 361 768 536 q 653 63 768 165 q 411 -21 558 -21 q 146 90 243 -21 q 56 361 56 192 m 194 361 q 265 149 194 222 q 414 88 324 88 q 576 167 519 88 q 629 361 629 239 q 560 575 629 503 q 413 635 503 635 q 250 556 308 635 q 194 361 194 483 m 233 831 l 368 1021 l 517 1021 l 339 831 l 233 831 m 475 831 l 610 1021 l 758 1021 l 581 831 l 475 831 z "},"Ŕ":{"ha":906,"x_min":104,"x_max":892,"o":"m 892 0 l 725 0 l 483 381 l 246 381 l 246 0 l 104 0 l 104 1000 l 428 1000 q 733 907 632 1000 q 824 686 824 826 q 622 410 824 486 l 892 0 m 431 885 l 246 885 l 246 496 l 435 496 q 622 554 558 496 q 676 686 676 604 q 431 885 676 885 m 314 1067 l 456 1257 l 628 1257 l 433 1067 l 314 1067 z "},"ŕ":{"ha":494,"x_min":97,"x_max":526,"o":"m 231 0 l 97 0 l 97 722 l 207 722 l 225 615 q 408 743 286 743 q 488 733 449 743 l 488 600 q 403 613 440 613 q 276 547 322 613 q 231 363 231 482 l 231 0 m 213 831 l 354 1021 l 526 1021 l 332 831 l 213 831 z "},"Ŗ":{"ha":906,"x_min":104,"x_max":892,"o":"m 892 0 l 725 0 l 483 381 l 246 381 l 246 0 l 104 0 l 104 1000 l 428 1000 q 733 907 632 1000 q 824 686 824 826 q 622 410 824 486 l 892 0 m 431 885 l 246 885 l 246 496 l 435 496 q 622 554 558 496 q 676 686 676 604 q 431 885 676 885 m 501 -83 l 501 -193 q 435 -354 501 -292 q 318 -410 385 -401 l 318 -340 q 381 -298 357 -332 q 404 -217 404 -264 l 363 -217 l 363 -83 l 501 -83 z "},"ŗ":{"ha":494,"x_min":50,"x_max":488,"o":"m 231 0 l 97 0 l 97 722 l 207 722 l 225 615 q 408 743 286 743 q 488 733 449 743 l 488 600 q 403 613 440 613 q 276 547 322 613 q 231 363 231 482 l 231 0 m 233 -83 l 233 -193 q 167 -354 233 -292 q 50 -410 117 -401 l 50 -340 q 113 -298 89 -332 q 136 -217 136 -264 l 94 -217 l 94 -83 l 233 -83 z "},"Ř":{"ha":906,"x_min":104,"x_max":892,"o":"m 892 0 l 725 0 l 483 381 l 246 381 l 246 0 l 104 0 l 104 1000 l 428 1000 q 733 907 632 1000 q 824 686 824 826 q 622 410 824 486 l 892 0 m 431 885 l 246 885 l 246 496 l 435 496 q 622 554 558 496 q 676 686 676 604 q 431 885 676 885 m 653 1257 l 490 1067 l 339 1067 l 175 1257 l 310 1257 l 414 1143 l 518 1257 l 653 1257 z "},"ř":{"ha":494,"x_min":44,"x_max":522,"o":"m 231 0 l 97 0 l 97 722 l 207 722 l 225 615 q 408 743 286 743 q 488 733 449 743 l 488 600 q 403 613 440 613 q 276 547 322 613 q 231 363 231 482 l 231 0 m 522 1021 l 360 831 l 208 831 l 44 1021 l 179 1021 l 283 907 l 388 1021 l 522 1021 z "},"Ś":{"ha":907,"x_min":49,"x_max":844,"o":"m 703 271 q 681 350 703 321 q 589 414 656 385 q 388 481 522 443 q 139 604 207 531 q 83 764 83 664 q 189 956 83 885 q 442 1021 286 1021 q 724 939 615 1021 q 838 750 821 867 l 692 750 q 608 868 679 829 q 442 904 546 904 q 269 860 325 904 q 225 769 225 825 q 237 710 225 733 q 278 669 249 688 q 488 590 332 633 q 781 451 704 529 q 844 276 844 388 q 729 58 844 144 q 454 -21 621 -21 q 167 72 281 -21 q 49 281 68 153 l 194 281 q 282 140 208 189 q 451 96 349 96 q 647 154 579 96 q 703 271 703 201 m 354 1067 l 496 1257 l 668 1257 l 474 1067 l 354 1067 z "},"ś":{"ha":710,"x_min":42,"x_max":654,"o":"m 519 196 q 456 288 519 257 q 310 329 418 304 q 119 414 176 358 q 72 538 72 461 q 154 693 72 639 q 353 743 228 743 q 563 679 482 743 q 649 532 632 624 l 513 532 q 351 638 489 638 q 238 610 275 638 q 207 550 207 586 q 241 483 207 506 q 375 439 275 461 q 588 357 528 406 q 654 206 654 303 q 565 35 654 97 q 353 -21 485 -21 q 124 49 208 -21 q 42 207 50 110 l 178 207 q 354 85 200 85 q 483 121 438 85 q 519 196 519 150 m 268 831 l 410 1021 l 582 1021 l 388 831 l 268 831 z "},"Ŝ":{"ha":907,"x_min":49,"x_max":844,"o":"m 703 271 q 681 350 703 321 q 589 414 656 385 q 388 481 522 443 q 139 604 207 531 q 83 764 83 664 q 189 956 83 885 q 442 1021 286 1021 q 724 939 615 1021 q 838 750 821 867 l 692 750 q 608 868 679 829 q 442 904 546 904 q 269 860 325 904 q 225 769 225 825 q 237 710 225 733 q 278 669 249 688 q 488 590 332 633 q 781 451 704 529 q 844 276 844 388 q 729 58 844 144 q 454 -21 621 -21 q 167 72 281 -21 q 49 281 68 153 l 194 281 q 282 140 208 189 q 451 96 349 96 q 647 154 579 96 q 703 271 703 201 m 521 1257 l 683 1067 l 549 1067 l 444 1181 l 340 1067 l 206 1067 l 369 1257 l 521 1257 z "},"ŝ":{"ha":710,"x_min":42,"x_max":654,"o":"m 519 196 q 456 288 519 257 q 310 329 418 304 q 119 414 176 358 q 72 538 72 461 q 154 693 72 639 q 353 743 228 743 q 563 679 482 743 q 649 532 632 624 l 513 532 q 351 638 489 638 q 238 610 275 638 q 207 550 207 586 q 241 483 207 506 q 375 439 275 461 q 588 357 528 406 q 654 206 654 303 q 565 35 654 97 q 353 -21 485 -21 q 124 49 208 -21 q 42 207 50 110 l 178 207 q 354 85 200 85 q 483 121 438 85 q 519 196 519 150 m 429 1021 l 592 831 l 457 831 l 353 944 l 249 831 l 114 831 l 278 1021 l 429 1021 z "},"Ş":{"ha":907,"x_min":49,"x_max":844,"o":"m 631 -194 q 574 -310 631 -267 q 451 -346 525 -346 q 326 -304 376 -346 q 272 -206 282 -267 l 376 -206 q 402 -245 381 -229 q 453 -261 424 -261 q 508 -244 488 -261 q 528 -196 528 -226 q 497 -143 528 -160 q 397 -126 465 -126 l 407 -18 q 153 83 251 -6 q 49 281 65 163 l 194 281 q 282 140 208 189 q 451 96 349 96 q 647 154 579 96 q 703 271 703 201 q 681 350 703 321 q 589 414 656 385 q 388 481 522 443 q 139 604 207 531 q 83 764 83 664 q 189 956 83 885 q 442 1021 286 1021 q 724 939 615 1021 q 838 750 821 867 l 692 750 q 608 868 679 829 q 442 904 546 904 q 269 860 325 904 q 225 769 225 825 q 237 710 225 733 q 278 669 249 688 q 488 590 332 633 q 781 451 704 529 q 844 276 844 388 q 743 71 844 154 q 504 -18 651 -7 l 504 -58 q 631 -194 631 -86 z "},"ş":{"ha":710,"x_min":42,"x_max":654,"o":"m 532 -194 q 475 -310 532 -267 q 353 -346 426 -346 q 229 -304 279 -346 q 174 -206 183 -267 l 278 -206 q 303 -245 282 -229 q 354 -261 325 -261 q 409 -244 389 -261 q 429 -196 429 -226 q 398 -143 429 -160 q 299 -126 367 -126 l 308 -18 q 113 60 183 -8 q 42 207 50 118 l 178 207 q 354 85 200 85 q 483 121 438 85 q 519 196 519 150 q 456 288 519 257 q 310 329 418 304 q 119 414 176 358 q 72 538 72 461 q 154 693 72 639 q 353 743 228 743 q 563 679 482 743 q 649 532 632 624 l 513 532 q 351 638 489 638 q 238 610 275 638 q 207 550 207 586 q 241 483 207 506 q 375 439 275 461 q 588 357 528 406 q 654 206 654 303 q 581 47 654 108 q 406 -18 515 -7 l 406 -58 q 532 -194 532 -86 z "},"Š":{"ha":907,"x_min":49,"x_max":844,"o":"m 703 271 q 681 350 703 321 q 589 414 656 385 q 388 481 522 443 q 139 604 207 531 q 83 764 83 664 q 189 956 83 885 q 442 1021 286 1021 q 724 939 615 1021 q 838 750 821 867 l 692 750 q 608 868 679 829 q 442 904 546 904 q 269 860 325 904 q 225 769 225 825 q 237 710 225 733 q 278 669 249 688 q 488 590 332 633 q 781 451 704 529 q 844 276 844 388 q 729 58 844 144 q 454 -21 621 -21 q 167 72 281 -21 q 49 281 68 153 l 194 281 q 282 140 208 189 q 451 96 349 96 q 647 154 579 96 q 703 271 703 201 m 681 1257 l 518 1067 l 367 1067 l 203 1257 l 338 1257 l 442 1143 l 546 1257 l 681 1257 z "},"š":{"ha":710,"x_min":42,"x_max":654,"o":"m 519 196 q 456 288 519 257 q 310 329 418 304 q 119 414 176 358 q 72 538 72 461 q 154 693 72 639 q 353 743 228 743 q 563 679 482 743 q 649 532 632 624 l 513 532 q 351 638 489 638 q 238 610 275 638 q 207 550 207 586 q 241 483 207 506 q 375 439 275 461 q 588 357 528 406 q 654 206 654 303 q 565 35 654 97 q 353 -21 485 -21 q 124 49 208 -21 q 42 207 50 110 l 178 207 q 354 85 200 85 q 483 121 438 85 q 519 196 519 150 m 596 1021 l 433 831 l 282 831 l 118 1021 l 253 1021 l 357 907 l 461 1021 l 596 1021 z "},"Ţ":{"ha":838,"x_min":14,"x_max":824,"o":"m 824 1000 l 824 874 l 488 874 l 488 0 l 346 0 l 346 874 l 14 874 l 14 1000 l 824 1000 m 485 -83 l 485 -193 q 418 -354 485 -292 q 301 -410 368 -401 l 301 -340 q 364 -298 340 -332 q 388 -217 388 -264 l 346 -217 l 346 -83 l 485 -83 z "},"ţ":{"ha":447,"x_min":21,"x_max":419,"o":"m 419 107 l 419 -7 q 321 -21 368 -21 q 171 42 221 -21 q 128 179 128 93 l 128 608 l 21 608 l 21 722 l 128 722 l 136 896 l 261 896 l 261 722 l 417 722 l 417 608 l 261 608 l 261 176 q 338 96 261 96 q 419 107 374 96 m 306 -83 l 306 -193 q 239 -354 306 -292 q 122 -410 189 -401 l 122 -340 q 185 -298 161 -332 q 208 -217 208 -264 l 167 -217 l 167 -83 l 306 -83 z "},"Ť":{"ha":838,"x_min":14,"x_max":824,"o":"m 824 1000 l 824 874 l 488 874 l 488 0 l 346 0 l 346 874 l 14 874 l 14 1000 l 824 1000 m 656 1257 l 493 1067 l 342 1067 l 178 1257 l 313 1257 l 417 1143 l 521 1257 l 656 1257 z "},"ť":{"ha":524,"x_min":21,"x_max":538,"o":"m 538 1000 l 538 918 q 483 796 538 839 q 376 756 442 761 l 376 822 q 442 881 442 833 l 401 881 l 401 1000 l 538 1000 m 419 107 l 419 -7 q 321 -21 368 -21 q 171 42 221 -21 q 128 179 128 93 l 128 608 l 21 608 l 21 722 l 128 722 l 136 896 l 261 896 l 261 722 l 417 722 l 417 608 l 261 608 l 261 176 q 338 96 261 96 q 419 107 374 96 z "},"Ŧ":{"ha":838,"x_min":14,"x_max":824,"o":"m 824 1000 l 824 874 l 488 874 l 488 619 l 685 619 l 685 515 l 488 515 l 488 0 l 346 0 l 346 515 l 153 515 l 153 619 l 346 619 l 346 874 l 14 874 l 14 1000 l 824 1000 z "},"ŧ":{"ha":447,"x_min":21,"x_max":419,"o":"m 417 608 l 261 608 l 261 529 l 403 529 l 403 429 l 261 429 l 261 176 q 338 96 261 96 q 419 107 374 96 l 419 -7 q 321 -21 368 -21 q 171 42 221 -21 q 128 179 128 93 l 128 429 l 31 429 l 31 529 l 128 529 l 128 608 l 21 608 l 21 722 l 128 722 l 136 896 l 261 896 l 261 722 l 417 722 l 417 608 z "},"Ũ":{"ha":982,"x_min":97,"x_max":885,"o":"m 97 1000 l 239 1000 l 239 322 q 314 153 239 213 q 493 99 381 99 q 690 169 622 99 q 747 322 747 228 l 747 1000 l 885 1000 l 885 335 q 763 63 885 160 q 492 -21 658 -21 q 190 89 299 -21 q 97 335 97 183 l 97 1000 m 586 1085 q 492 1114 539 1085 q 419 1138 454 1138 q 301 1085 368 1138 l 301 1197 q 425 1243 365 1243 q 519 1214 472 1243 q 592 1190 558 1190 q 704 1243 638 1190 l 704 1131 q 586 1085 640 1085 z "},"ũ":{"ha":782,"x_min":90,"x_max":685,"o":"m 90 722 l 224 722 l 224 249 q 374 93 224 93 q 514 158 465 93 q 551 282 551 208 l 551 722 l 685 722 l 685 0 l 575 0 l 560 83 q 343 -21 483 -21 q 153 56 219 -21 q 90 251 90 126 l 90 722 m 464 849 q 369 878 417 849 q 297 901 332 901 q 179 849 246 901 l 179 961 q 303 1007 243 1007 q 397 978 350 1007 q 469 954 436 954 q 582 1007 515 954 l 582 894 q 464 849 518 849 z "},"Ū":{"ha":982,"x_min":97,"x_max":885,"o":"m 97 1000 l 239 1000 l 239 322 q 314 153 239 213 q 493 99 381 99 q 690 169 622 99 q 747 322 747 228 l 747 1000 l 885 1000 l 885 335 q 763 63 885 160 q 492 -21 658 -21 q 190 89 299 -21 q 97 335 97 183 l 97 1000 m 681 1115 l 306 1115 l 306 1229 l 681 1229 l 681 1115 z "},"ū":{"ha":782,"x_min":90,"x_max":685,"o":"m 90 722 l 224 722 l 224 249 q 374 93 224 93 q 514 158 465 93 q 551 282 551 208 l 551 722 l 685 722 l 685 0 l 575 0 l 560 83 q 343 -21 483 -21 q 153 56 219 -21 q 90 251 90 126 l 90 722 m 575 879 l 200 879 l 200 993 l 575 993 l 575 879 z "},"Ŭ":{"ha":982,"x_min":97,"x_max":885,"o":"m 97 1000 l 239 1000 l 239 322 q 314 153 239 213 q 493 99 381 99 q 690 169 622 99 q 747 322 747 228 l 747 1000 l 885 1000 l 885 335 q 763 63 885 160 q 492 -21 658 -21 q 190 89 299 -21 q 97 335 97 183 l 97 1000 m 490 1072 q 346 1126 399 1072 q 289 1257 300 1174 l 406 1257 q 490 1161 413 1161 q 575 1257 568 1161 l 692 1257 q 621 1114 679 1163 q 490 1072 569 1072 z "},"ŭ":{"ha":782,"x_min":90,"x_max":685,"o":"m 90 722 l 224 722 l 224 249 q 374 93 224 93 q 514 158 465 93 q 551 282 551 208 l 551 722 l 685 722 l 685 0 l 575 0 l 560 83 q 343 -21 483 -21 q 153 56 219 -21 q 90 251 90 126 l 90 722 m 382 836 q 238 890 290 836 q 181 1021 192 938 l 297 1021 q 382 925 304 925 q 467 1021 460 925 l 583 1021 q 513 878 571 926 q 382 836 461 836 z "},"Ů":{"ha":982,"x_min":97,"x_max":885,"o":"m 97 1000 l 239 1000 l 239 322 q 314 153 239 213 q 493 99 381 99 q 690 169 622 99 q 747 322 747 228 l 747 1000 l 885 1000 l 885 335 q 763 63 885 160 q 492 -21 658 -21 q 190 89 299 -21 q 97 335 97 183 l 97 1000 m 404 1208 q 428 1144 404 1168 q 492 1121 451 1121 q 556 1145 532 1121 q 581 1208 581 1169 q 556 1272 581 1249 q 492 1296 532 1296 q 428 1272 451 1296 q 404 1208 404 1249 m 675 1208 q 619 1085 675 1132 q 492 1042 569 1042 q 351 1096 403 1042 q 310 1208 310 1142 q 364 1332 310 1286 q 492 1375 414 1375 q 632 1321 581 1375 q 675 1208 675 1275 z "},"ů":{"ha":782,"x_min":90,"x_max":685,"o":"m 90 722 l 224 722 l 224 249 q 374 93 224 93 q 514 158 465 93 q 551 282 551 208 l 551 722 l 685 722 l 685 0 l 575 0 l 560 83 q 343 -21 483 -21 q 153 56 219 -21 q 90 251 90 126 l 90 722 m 301 972 q 325 908 301 932 q 389 885 349 885 q 453 909 429 885 q 478 972 478 933 q 453 1036 478 1013 q 389 1060 429 1060 q 325 1036 349 1060 q 301 972 301 1013 m 572 972 q 517 849 572 896 q 389 806 467 806 q 249 860 300 806 q 207 972 207 906 q 261 1096 207 1050 q 389 1139 311 1139 q 529 1085 478 1139 q 572 972 572 1039 z "},"Ű":{"ha":982,"x_min":97,"x_max":885,"o":"m 97 1000 l 239 1000 l 239 322 q 314 153 239 213 q 493 99 381 99 q 690 169 622 99 q 747 322 747 228 l 747 1000 l 885 1000 l 885 335 q 763 63 885 160 q 492 -21 658 -21 q 190 89 299 -21 q 97 335 97 183 l 97 1000 m 307 1067 l 442 1257 l 590 1257 l 413 1067 l 307 1067 m 549 1067 l 683 1257 l 832 1257 l 654 1067 l 549 1067 z "},"ű":{"ha":782,"x_min":90,"x_max":742,"o":"m 90 722 l 224 722 l 224 249 q 374 93 224 93 q 514 158 465 93 q 551 282 551 208 l 551 722 l 685 722 l 685 0 l 575 0 l 560 83 q 343 -21 483 -21 q 153 56 219 -21 q 90 251 90 126 l 90 722 m 217 831 l 351 1021 l 500 1021 l 322 831 l 217 831 m 458 831 l 593 1021 l 742 1021 l 564 831 l 458 831 z "},"Ų":{"ha":982,"x_min":97,"x_max":885,"o":"m 567 -343 q 431 -299 482 -343 q 386 -196 386 -258 q 415 -103 386 -150 q 494 -21 444 -56 q 190 89 299 -21 q 97 335 97 183 l 97 1000 l 239 1000 l 239 322 q 314 153 239 213 q 493 99 381 99 q 690 169 622 99 q 747 322 747 228 l 747 1000 l 885 1000 l 885 335 q 669 8 885 103 q 544 -75 596 -24 q 493 -175 493 -128 q 572 -254 493 -254 q 642 -207 631 -254 l 750 -207 q 676 -311 731 -275 q 567 -343 631 -343 z "},"ų":{"ha":782,"x_min":90,"x_max":785,"o":"m 551 722 l 685 722 l 685 0 q 528 -175 528 -89 q 607 -254 528 -254 q 676 -207 665 -254 l 785 -207 q 711 -308 765 -272 q 601 -339 664 -339 q 468 -296 517 -339 q 425 -196 425 -258 q 466 -85 425 -140 q 574 4 507 -29 l 560 83 q 343 -21 483 -21 q 153 56 219 -21 q 90 251 90 126 l 90 722 l 224 722 l 224 249 q 374 93 224 93 q 513 154 464 93 q 551 274 551 203 l 551 722 z "},"Ŵ":{"ha":1338,"x_min":7,"x_max":1331,"o":"m 1200 1000 l 1331 1000 l 1067 0 l 903 0 l 676 847 l 443 0 l 269 0 l 7 1000 l 151 1000 l 364 168 l 593 1000 l 769 1000 l 986 171 l 1200 1000 m 747 1257 l 910 1067 l 775 1067 l 671 1181 l 567 1067 l 432 1067 l 596 1257 l 747 1257 z "},"ŵ":{"ha":1125,"x_min":21,"x_max":1104,"o":"m 971 722 l 1104 722 l 893 0 l 739 0 l 564 571 l 392 0 l 232 0 l 21 722 l 160 722 l 315 142 l 488 722 l 647 722 l 817 144 l 971 722 m 639 1021 l 801 831 l 667 831 l 563 944 l 458 831 l 324 831 l 488 1021 l 639 1021 z "},"Ŷ":{"ha":874,"x_min":0,"x_max":874,"o":"m 507 0 l 367 0 l 367 397 l 0 1000 l 156 1000 l 438 519 l 729 1000 l 874 1000 l 507 397 l 507 0 m 513 1257 l 675 1067 l 540 1067 l 436 1181 l 332 1067 l 197 1067 l 361 1257 l 513 1257 z "},"ŷ":{"ha":714,"x_min":14,"x_max":700,"o":"m 700 722 l 449 -10 q 353 -208 399 -156 q 213 -271 299 -271 q 126 -258 176 -271 l 126 -150 q 196 -160 165 -160 q 263 -130 239 -160 q 322 0 286 -100 l 279 0 l 14 722 l 158 722 l 363 108 l 567 722 l 700 722 m 435 1021 l 597 831 l 463 831 l 358 944 l 254 831 l 119 831 l 283 1021 l 435 1021 z "},"Ź":{"ha":888,"x_min":56,"x_max":832,"o":"m 832 881 l 222 122 l 818 122 l 818 0 l 56 0 l 56 124 l 664 878 l 88 878 l 88 1000 l 832 1000 l 832 881 m 361 1067 l 503 1257 l 675 1257 l 481 1067 l 361 1067 z "},"ź":{"ha":669,"x_min":42,"x_max":628,"o":"m 628 596 l 199 114 l 628 114 l 628 0 l 42 0 l 42 126 l 471 610 l 63 610 l 63 722 l 628 722 l 628 596 m 276 831 l 418 1021 l 590 1021 l 396 831 l 276 831 z "},"Ż":{"ha":888,"x_min":56,"x_max":832,"o":"m 832 881 l 222 122 l 818 122 l 818 0 l 56 0 l 56 124 l 664 878 l 88 878 l 88 1000 l 832 1000 l 832 881 m 526 1079 l 376 1079 l 376 1236 l 526 1236 l 526 1079 z "},"ż":{"ha":669,"x_min":42,"x_max":628,"o":"m 628 596 l 199 114 l 628 114 l 628 0 l 42 0 l 42 126 l 471 610 l 63 610 l 63 722 l 628 722 l 628 596 m 424 843 l 274 843 l 274 1000 l 424 1000 l 424 843 z "},"Ž":{"ha":888,"x_min":56,"x_max":832,"o":"m 832 881 l 222 122 l 818 122 l 818 0 l 56 0 l 56 124 l 664 878 l 88 878 l 88 1000 l 832 1000 l 832 881 m 700 1257 l 538 1067 l 386 1067 l 222 1257 l 357 1257 l 461 1143 l 565 1257 l 700 1257 z "},"ž":{"ha":669,"x_min":42,"x_max":628,"o":"m 628 596 l 199 114 l 628 114 l 628 0 l 42 0 l 42 126 l 471 610 l 63 610 l 63 722 l 628 722 l 628 596 m 596 1021 l 433 831 l 282 831 l 118 1021 l 253 1021 l 357 907 l 461 1021 l 596 1021 z "},"ſ":{"ha":447,"x_min":28,"x_max":454,"o":"m 268 0 l 135 0 l 135 608 l 28 608 l 28 722 l 135 722 l 135 824 q 197 974 135 919 q 336 1021 253 1021 q 454 1004 390 1021 l 454 889 q 344 906 388 906 q 288 886 308 906 q 268 832 268 867 l 268 0 z "},"Ə":{"ha":1013,"x_min":40,"x_max":950,"o":"m 208 721 l 65 721 q 226 949 97 867 q 488 1021 338 1021 q 842 865 718 1021 q 950 506 950 729 q 810 104 950 247 q 490 -21 686 -21 q 142 132 256 -21 q 40 511 42 267 l 806 511 q 708 815 801 714 q 489 903 629 903 q 208 721 279 903 m 797 394 l 192 394 q 290 169 199 250 q 490 99 369 99 q 704 183 624 99 q 797 394 774 258 z "},"Ơ":{"ha":1090,"x_min":63,"x_max":1072,"o":"m 847 917 l 863 914 q 886 911 876 911 q 936 933 922 911 q 950 1015 950 956 l 950 1097 l 1072 1097 l 1072 999 q 986 849 1072 883 q 921 833 956 838 l 922 833 q 1013 500 1013 696 q 865 104 1013 247 q 536 -21 738 -21 q 175 139 304 -21 q 63 500 63 278 q 211 896 63 751 q 539 1021 339 1021 q 847 917 724 1019 m 538 94 q 790 218 701 94 q 868 500 868 325 q 768 811 868 701 q 538 906 681 906 q 285 782 374 906 q 207 500 207 675 q 307 189 207 299 q 538 94 394 94 z "},"ơ":{"ha":825,"x_min":56,"x_max":863,"o":"m 663 651 q 682 650 674 650 q 732 672 718 650 q 746 754 746 694 l 746 836 l 863 836 l 863 738 q 779 588 863 622 q 721 574 751 576 q 768 361 768 485 q 660 69 768 172 q 411 -21 565 -21 q 139 96 236 -21 q 56 363 56 199 q 164 653 56 550 q 413 743 260 743 q 661 654 569 743 l 663 651 m 194 363 q 261 151 194 226 q 414 88 319 88 q 579 169 522 88 q 629 361 629 242 q 564 571 629 497 q 413 635 507 635 q 246 551 306 635 q 194 363 194 479 z "},"Ư":{"ha":1018,"x_min":97,"x_max":1072,"o":"m 885 911 l 886 911 q 936 933 922 911 q 950 1015 950 954 l 950 1097 l 1072 1097 l 1072 999 q 986 849 1072 882 q 901 832 943 832 l 899 832 l 885 833 l 885 335 q 764 64 885 160 q 492 -21 660 -21 q 192 89 299 -21 q 97 335 97 183 l 97 1000 l 239 1000 l 239 322 q 315 150 239 210 q 493 99 382 99 q 688 165 621 99 q 747 322 747 225 l 747 1000 l 885 1000 l 885 911 z "},"ư":{"ha":836,"x_min":90,"x_max":863,"o":"m 685 650 q 733 672 721 651 q 746 754 746 693 l 746 836 l 863 836 l 863 738 q 779 588 863 621 q 697 571 739 571 q 694 571 696 571 l 685 571 l 685 0 l 575 0 l 560 83 q 343 -21 481 -21 q 149 60 215 -21 q 90 251 90 131 l 90 722 l 224 722 l 224 249 q 374 93 224 93 q 508 151 460 93 q 551 282 551 203 l 551 722 l 685 722 l 685 650 z "},"Ǎ":{"ha":981,"x_min":0,"x_max":981,"o":"m 824 0 l 725 253 l 249 253 l 149 0 l 0 0 l 411 1000 l 571 1000 l 981 0 l 824 0 m 294 368 l 679 368 l 489 858 l 294 368 m 729 1257 l 567 1067 l 415 1067 l 251 1257 l 386 1257 l 490 1143 l 594 1257 l 729 1257 z "},"ǎ":{"ha":764,"x_min":56,"x_max":674,"o":"m 211 521 l 69 521 q 172 689 81 629 q 379 743 254 743 q 607 665 528 743 q 674 493 674 599 l 674 0 l 564 0 l 547 99 q 306 -21 463 -21 q 113 46 182 -21 q 56 186 56 101 q 129 351 56 293 q 329 426 194 403 l 540 463 l 540 499 q 492 606 540 569 q 374 638 449 638 q 211 521 226 638 m 338 92 q 485 147 422 92 q 540 265 540 199 l 540 358 l 361 326 q 226 275 263 310 q 197 200 197 247 q 233 119 197 147 q 338 92 269 92 m 617 1021 l 454 831 l 303 831 l 139 1021 l 274 1021 l 378 907 l 482 1021 l 617 1021 z "},"Ǔ":{"ha":982,"x_min":97,"x_max":885,"o":"m 239 1000 l 239 322 q 315 150 239 210 q 493 99 382 99 q 688 165 621 99 q 747 322 747 225 l 747 1000 l 885 1000 l 885 335 q 764 64 885 160 q 492 -21 660 -21 q 192 89 299 -21 q 97 335 97 183 l 97 1000 l 239 1000 m 556 1067 l 404 1067 l 240 1257 l 375 1257 l 479 1143 l 583 1257 l 718 1257 l 556 1067 z "},"ǝ":{"ha":804,"x_min":56,"x_max":742,"o":"m 64 514 q 196 689 96 628 q 396 743 281 743 q 663 629 571 743 q 742 361 742 531 q 639 68 742 169 q 401 -21 550 -21 q 133 99 222 -21 q 56 390 57 201 l 604 390 q 550 563 596 507 q 392 631 493 631 q 269 594 322 631 q 208 514 225 563 l 64 514 m 600 285 l 190 285 q 260 131 200 182 q 397 86 313 86 q 600 285 568 86 z "},"Ǻ":{"ha":981,"x_min":0,"x_max":981,"o":"m 750 1333 l 560 1164 l 449 1164 l 588 1333 l 750 1333 m 493 1136 q 631 1088 582 1136 q 671 986 671 1046 q 585 858 671 900 l 981 0 l 824 0 l 715 253 l 260 253 l 149 0 l 0 0 l 397 858 q 315 986 315 901 q 367 1097 315 1056 q 493 1136 415 1136 m 493 1065 q 430 1044 453 1065 q 407 986 407 1024 q 430 928 407 950 q 493 907 453 907 q 556 928 533 907 q 579 986 579 949 q 556 1044 579 1024 q 493 1065 533 1065 m 489 778 l 310 368 l 665 368 l 489 778 z "},"ǻ":{"ha":764,"x_min":56,"x_max":674,"o":"m 211 521 l 69 521 q 172 689 81 629 q 379 743 254 743 q 607 665 528 743 q 674 493 674 599 l 674 0 l 564 0 l 547 99 q 306 -21 463 -21 q 113 46 182 -21 q 56 186 56 101 q 129 351 56 293 q 329 426 194 403 l 540 463 l 540 499 q 492 606 540 569 q 374 638 449 638 q 211 521 226 638 m 338 92 q 485 147 422 92 q 540 265 540 199 l 540 358 l 361 326 q 226 275 263 310 q 197 200 197 247 q 233 119 197 147 q 338 92 269 92 m 293 917 q 317 859 293 881 q 381 838 342 838 q 445 860 421 838 q 469 917 469 882 q 445 974 469 953 q 381 996 421 996 q 317 974 342 996 q 293 917 293 953 m 564 917 q 508 806 564 847 q 381 767 458 767 q 240 815 292 767 q 199 917 199 857 q 253 1028 199 986 q 381 1067 303 1067 q 521 1018 469 1067 q 564 917 564 976 m 315 1090 l 457 1261 l 629 1261 l 435 1090 l 315 1090 z "},"Ǽ":{"ha":1357,"x_min":0,"x_max":1288,"o":"m 1288 119 l 1288 0 l 692 0 l 692 253 l 307 253 l 153 0 l 0 0 l 615 1000 l 1288 1000 l 1288 881 l 833 881 l 833 567 l 1247 567 l 1247 450 l 833 450 l 833 119 l 1288 119 m 378 368 l 692 368 l 692 879 l 378 368 m 806 1067 l 947 1257 l 1119 1257 l 925 1067 l 806 1067 z "},"ǽ":{"ha":1289,"x_min":56,"x_max":1226,"o":"m 1074 208 l 1218 208 q 1094 35 1189 97 q 894 -21 1010 -21 q 601 128 693 -21 q 483 18 560 58 q 321 -21 410 -21 q 122 38 193 -21 q 56 189 56 92 q 321 413 56 379 l 540 440 l 540 499 q 493 604 540 568 q 374 638 450 638 q 263 610 306 638 q 211 521 218 581 l 69 521 q 176 692 83 633 q 379 743 257 743 q 628 626 554 743 q 888 743 722 743 q 1143 636 1056 743 q 1226 342 1226 533 l 676 342 q 765 133 682 196 q 899 92 819 92 q 1018 129 968 92 q 1074 208 1058 161 m 338 92 q 478 142 415 92 q 540 254 536 189 l 540 336 l 353 313 q 233 275 268 301 q 197 196 197 249 q 232 119 197 147 q 338 92 268 92 m 890 636 q 754 588 808 636 q 683 447 700 538 l 1090 447 q 1021 596 1083 547 q 890 636 971 636 m 582 831 l 724 1021 l 896 1021 l 701 831 l 582 831 z "},"Ǿ":{"ha":1075,"x_min":63,"x_max":1013,"o":"m 538 -21 q 414 -6 478 -21 l 363 -153 l 239 -153 l 304 33 q 124 215 186 94 q 63 500 63 333 q 235 918 63 778 q 538 1021 363 1021 q 663 1006 597 1021 l 713 1139 l 836 1139 l 772 965 q 951 785 889 904 q 1013 500 1013 665 q 840 82 1013 222 q 538 -21 713 -21 m 538 94 q 788 213 699 94 q 868 500 868 319 q 721 851 868 749 l 449 106 q 538 94 493 94 m 207 500 q 354 147 207 250 l 624 894 q 538 906 582 906 q 288 788 376 906 q 207 500 207 681 m 436 1067 l 578 1257 l 750 1257 l 556 1067 l 436 1067 z "},"ǿ":{"ha":824,"x_min":56,"x_max":768,"o":"m 56 361 q 174 661 56 560 q 413 743 268 743 q 519 729 472 743 l 588 875 l 711 875 l 622 683 q 768 361 768 583 q 653 63 768 165 q 411 -21 558 -21 q 306 -7 353 -21 l 239 -153 l 113 -153 l 201 39 q 56 361 56 142 m 194 361 q 261 153 194 226 l 476 625 q 413 635 447 635 q 250 556 308 635 q 194 361 194 483 m 629 361 q 564 569 629 496 l 350 96 q 414 88 382 88 q 576 167 519 88 q 629 361 629 239 m 324 831 l 465 1021 l 638 1021 l 443 831 l 324 831 z "},"Ș":{"ha":907,"x_min":49,"x_max":844,"o":"m 703 271 q 681 350 703 321 q 589 414 656 385 q 388 481 522 443 q 139 604 207 531 q 83 764 83 664 q 189 956 83 885 q 442 1021 286 1021 q 724 939 615 1021 q 838 750 821 867 l 692 750 q 608 868 679 829 q 442 904 546 904 q 269 860 325 904 q 225 769 225 825 q 237 710 225 733 q 278 669 249 688 q 488 590 332 633 q 781 451 704 529 q 844 276 844 388 q 729 58 844 144 q 454 -21 621 -21 q 167 72 281 -21 q 49 281 68 153 l 194 281 q 282 140 208 189 q 451 96 349 96 q 647 154 579 96 q 703 271 703 201 m 526 -83 l 526 -193 q 460 -354 526 -292 q 343 -410 410 -401 l 343 -340 q 406 -298 382 -332 q 429 -217 429 -264 l 388 -217 l 388 -83 l 526 -83 z "},"ș":{"ha":710,"x_min":42,"x_max":654,"o":"m 519 196 q 456 288 519 257 q 310 329 418 304 q 119 414 176 358 q 72 538 72 461 q 154 693 72 639 q 353 743 228 743 q 563 679 482 743 q 649 532 632 624 l 513 532 q 351 638 489 638 q 238 610 275 638 q 207 550 207 586 q 241 483 207 506 q 375 439 275 461 q 588 357 528 406 q 654 206 654 303 q 565 35 654 97 q 353 -21 485 -21 q 124 49 208 -21 q 42 207 50 110 l 178 207 q 354 85 200 85 q 483 121 438 85 q 519 196 519 150 m 429 -83 l 429 -193 q 363 -354 429 -292 q 246 -410 313 -401 l 246 -340 q 308 -298 285 -332 q 332 -217 332 -264 l 290 -217 l 290 -83 l 429 -83 z "},"Ț":{"ha":838,"x_min":14,"x_max":824,"o":"m 824 1000 l 824 874 l 488 874 l 488 0 l 346 0 l 346 874 l 14 874 l 14 1000 l 824 1000 m 485 -83 l 485 -193 q 418 -354 485 -292 q 301 -410 368 -401 l 301 -340 q 364 -298 340 -332 q 388 -217 388 -264 l 346 -217 l 346 -83 l 485 -83 z "},"ț":{"ha":447,"x_min":21,"x_max":419,"o":"m 419 107 l 419 -7 q 321 -21 368 -21 q 171 42 221 -21 q 128 179 128 93 l 128 608 l 21 608 l 21 722 l 128 722 l 136 896 l 261 896 l 261 722 l 417 722 l 417 608 l 261 608 l 261 176 q 338 96 261 96 q 419 107 374 96 m 306 -83 l 306 -193 q 239 -354 306 -292 q 122 -410 189 -401 l 122 -340 q 185 -298 161 -332 q 208 -217 208 -264 l 167 -217 l 167 -83 l 306 -83 z "},"ȷ":{"ha":328,"x_min":-68,"x_max":231,"o":"m -68 -254 l -68 -144 q 15 -157 -12 -157 q 80 -137 63 -157 q 97 -65 97 -118 l 97 722 l 231 722 l 231 -72 q 174 -222 231 -169 q 36 -271 122 -271 q -68 -254 -17 -271 z "},"ə":{"ha":804,"x_min":56,"x_max":742,"o":"m 64 514 q 196 689 96 628 q 396 743 281 743 q 663 629 571 743 q 742 361 742 531 q 639 68 742 169 q 401 -21 550 -21 q 133 99 222 -21 q 56 390 57 201 l 604 390 q 550 563 596 507 q 392 631 493 631 q 269 594 322 631 q 208 514 225 563 l 64 514 m 600 285 l 190 285 q 260 131 200 182 q 397 86 313 86 q 600 285 568 86 z "},"ˉ":{"ha":458,"x_min":42,"x_max":417,"o":"m 417 879 l 42 879 l 42 993 l 417 993 l 417 879 z "},"̉":{"ha":422,"x_min":39,"x_max":386,"o":"m 88 1222 l 39 1286 q 124 1331 86 1318 q 210 1343 161 1343 q 343 1306 294 1343 q 386 1221 386 1272 q 260 1088 386 1117 l 260 1042 l 167 1042 l 167 1156 q 257 1174 231 1158 q 283 1222 283 1189 q 208 1258 283 1258 q 150 1251 175 1258 q 88 1222 125 1243 z "},"̒":{"ha":232,"x_min":40,"x_max":224,"o":"m 40 806 l 40 915 q 107 1061 40 1006 q 224 1111 156 1103 l 224 1042 q 138 939 138 1024 l 179 939 l 179 806 l 40 806 z "},"̣":{"ha":233,"x_min":47,"x_max":197,"o":"m 197 -250 l 47 -250 l 47 -93 l 197 -93 l 197 -250 z "},";":{"ha":417,"x_min":107,"x_max":289,"o":"m 289 561 l 128 561 l 128 722 l 289 722 l 289 561 m 289 161 l 289 21 q 224 -156 289 -94 q 107 -208 178 -200 l 107 -139 q 193 0 193 -121 l 128 0 l 128 161 l 289 161 z "},"΄":{"ha":286,"x_min":42,"x_max":244,"o":"m 42 796 l 79 1000 l 244 1000 l 140 796 l 42 796 z "},"΅":{"ha":542,"x_min":47,"x_max":478,"o":"m 214 978 l 251 1182 l 417 1182 l 313 978 l 214 978 m 192 819 l 47 819 l 47 958 l 192 958 l 192 819 m 478 819 l 333 819 l 333 958 l 478 958 l 478 819 z "},"Ά":{"ha":981,"x_min":0,"x_max":981,"o":"m 981 0 l 824 0 l 725 253 l 249 253 l 149 0 l 0 0 l 411 1000 l 571 1000 l 981 0 m 489 858 l 294 368 l 679 368 l 489 858 m 131 796 l 168 1000 l 333 1000 l 229 796 l 131 796 z "},"·":{"ha":417,"x_min":128,"x_max":289,"o":"m 289 361 l 128 361 l 128 522 l 289 522 l 289 361 z "},"Έ":{"ha":936,"x_min":-22,"x_max":867,"o":"m 826 567 l 826 450 l 385 450 l 385 119 l 867 119 l 867 0 l 243 0 l 243 1000 l 867 1000 l 867 881 l 385 881 l 385 567 l 826 567 m -22 796 l 15 1000 l 181 1000 l 76 796 l -22 796 z "},"Ή":{"ha":1107,"x_min":-22,"x_max":1003,"o":"m 860 1000 l 1003 1000 l 1003 0 l 860 0 l 860 446 l 371 446 l 371 0 l 229 0 l 229 1000 l 371 1000 l 371 565 l 860 565 l 860 1000 m -22 796 l 15 1000 l 181 1000 l 76 796 l -22 796 z "},"Ί":{"ha":475,"x_min":-22,"x_max":371,"o":"m 229 1000 l 371 1000 l 371 0 l 229 0 l 229 1000 m -22 796 l 15 1000 l 181 1000 l 76 796 l -22 796 z "},"Ό":{"ha":1115,"x_min":-1,"x_max":1053,"o":"m 578 94 q 828 213 739 94 q 908 500 908 319 q 804 815 908 707 q 578 906 718 906 q 328 788 417 906 q 247 500 247 681 q 351 185 247 293 q 578 94 438 94 m 578 -21 q 219 133 350 -21 q 103 500 103 274 q 260 904 103 760 q 579 1021 388 1021 q 932 872 801 1021 q 1053 500 1053 732 q 899 99 1053 242 q 578 -21 771 -21 m -1 796 l 36 1000 l 201 1000 l 97 796 l -1 796 z "},"Ύ":{"ha":1060,"x_min":-50,"x_max":1060,"o":"m 693 0 l 553 0 l 553 397 l 186 1000 l 342 1000 l 624 519 l 915 1000 l 1060 1000 l 693 397 l 693 0 m -50 796 l -12 1000 l 153 1000 l 49 796 l -50 796 z "},"Ώ":{"ha":1118,"x_min":-1,"x_max":1056,"o":"m 435 126 l 435 0 l 149 0 l 149 126 l 283 126 q 149 283 197 169 q 106 500 106 382 q 278 918 106 778 q 581 1021 406 1021 q 919 888 789 1021 q 1056 500 1056 750 q 999 257 1056 364 q 874 126 950 164 l 1013 126 l 1013 0 l 726 0 l 726 126 q 867 275 819 172 q 911 500 911 369 q 807 815 911 707 q 581 906 721 906 q 331 788 419 906 q 250 500 250 681 q 306 250 250 350 q 435 126 353 167 m -1 796 l 36 1000 l 201 1000 l 97 796 l -1 796 z "},"ΐ":{"ha":328,"x_min":-51,"x_max":379,"o":"m 231 0 l 97 0 l 97 722 l 231 722 l 231 0 m 115 978 l 153 1182 l 318 1182 l 214 978 l 115 978 m 93 819 l -51 819 l -51 958 l 93 958 l 93 819 m 379 819 l 235 819 l 235 958 l 379 958 l 379 819 z "},"Α":{"ha":981,"x_min":0,"x_max":981,"o":"m 981 0 l 824 0 l 725 253 l 249 253 l 149 0 l 0 0 l 411 1000 l 571 1000 l 981 0 m 489 858 l 294 368 l 679 368 l 489 858 z "},"Β":{"ha":906,"x_min":104,"x_max":843,"o":"m 104 1000 l 464 1000 q 736 919 646 1000 q 813 735 813 851 q 760 599 813 660 q 651 529 715 546 q 793 439 738 514 q 843 282 843 371 q 733 65 843 139 q 461 0 635 0 l 104 0 l 104 1000 m 488 469 l 246 469 l 246 115 l 482 115 q 696 282 696 115 q 488 469 696 469 m 475 893 l 246 893 l 246 578 l 483 578 q 628 626 579 578 q 669 735 669 668 q 611 856 669 814 q 475 893 561 893 z "},"Γ":{"ha":689,"x_min":104,"x_max":675,"o":"m 675 1000 l 675 881 l 246 881 l 246 0 l 104 0 l 104 1000 l 675 1000 z "},"Δ":{"ha":981,"x_min":0,"x_max":981,"o":"m 981 0 l 0 0 l 411 1000 l 571 1000 l 981 0 m 489 858 l 196 119 l 776 119 l 489 858 z "},"Ε":{"ha":797,"x_min":104,"x_max":728,"o":"m 688 567 l 688 450 l 246 450 l 246 119 l 728 119 l 728 0 l 104 0 l 104 1000 l 728 1000 l 728 881 l 246 881 l 246 567 l 688 567 z "},"Ζ":{"ha":888,"x_min":56,"x_max":832,"o":"m 832 881 l 222 122 l 818 122 l 818 0 l 56 0 l 56 124 l 664 878 l 88 878 l 88 1000 l 832 1000 l 832 881 z "},"Η":{"ha":982,"x_min":104,"x_max":878,"o":"m 735 1000 l 878 1000 l 878 0 l 735 0 l 735 446 l 246 446 l 246 0 l 104 0 l 104 1000 l 246 1000 l 246 565 l 735 565 l 735 1000 z "},"Θ":{"ha":1075,"x_min":63,"x_max":1013,"o":"m 781 567 l 781 450 l 294 450 l 294 567 l 781 567 m 538 -21 q 179 133 310 -21 q 63 500 63 274 q 219 904 63 760 q 539 1021 347 1021 q 892 872 761 1021 q 1013 500 1013 732 q 858 99 1013 242 q 538 -21 731 -21 m 538 94 q 788 213 699 94 q 868 500 868 319 q 764 815 868 707 q 538 906 678 906 q 288 788 376 906 q 207 500 207 681 q 311 185 207 293 q 538 94 397 94 z "},"Ι":{"ha":350,"x_min":104,"x_max":246,"o":"m 104 1000 l 246 1000 l 246 0 l 104 0 l 104 1000 z "},"Κ":{"ha":878,"x_min":104,"x_max":871,"o":"m 871 0 l 683 0 l 246 471 l 246 0 l 104 0 l 104 1000 l 246 1000 l 246 556 l 653 1000 l 828 1000 l 374 522 l 871 0 z "},"Λ":{"ha":967,"x_min":0,"x_max":967,"o":"m 967 0 l 810 0 l 482 858 l 149 0 l 0 0 l 404 1000 l 564 1000 l 967 0 z "},"Μ":{"ha":1210,"x_min":104,"x_max":1106,"o":"m 683 0 l 550 0 l 242 783 l 242 0 l 104 0 l 104 1000 l 301 1000 l 619 167 l 919 1000 l 1106 1000 l 1106 0 l 972 0 l 972 776 l 683 0 z "},"Ν":{"ha":999,"x_min":104,"x_max":894,"o":"m 768 1000 l 894 1000 l 894 0 l 715 0 l 233 838 l 233 0 l 104 0 l 104 1000 l 292 1000 l 768 169 l 768 1000 z "},"Ξ":{"ha":804,"x_min":69,"x_max":735,"o":"m 735 126 l 735 0 l 69 0 l 69 126 l 735 126 m 735 1000 l 735 875 l 69 875 l 69 1000 l 735 1000 m 631 571 l 631 446 l 172 446 l 172 571 l 631 571 z "},"Ο":{"ha":1075,"x_min":63,"x_max":1013,"o":"m 538 94 q 788 213 699 94 q 868 500 868 319 q 764 815 868 707 q 538 906 678 906 q 288 788 376 906 q 207 500 207 681 q 311 185 207 293 q 538 94 397 94 m 538 -21 q 179 133 310 -21 q 63 500 63 274 q 219 904 63 760 q 539 1021 347 1021 q 892 872 761 1021 q 1013 500 1013 732 q 858 99 1013 242 q 538 -21 731 -21 z "},"Π":{"ha":982,"x_min":104,"x_max":878,"o":"m 104 1000 l 878 1000 l 878 0 l 735 0 l 735 881 l 246 881 l 246 0 l 104 0 l 104 1000 z "},"Ρ":{"ha":876,"x_min":104,"x_max":821,"o":"m 104 1000 l 429 1000 q 732 906 631 1000 q 821 675 821 822 q 707 429 821 511 q 424 357 606 357 l 246 357 l 246 0 l 104 0 l 104 1000 m 432 885 l 246 885 l 246 472 l 426 472 q 624 532 564 472 q 674 675 674 581 q 603 836 674 782 q 432 885 540 885 z "},"Σ":{"ha":790,"x_min":49,"x_max":742,"o":"m 517 451 l 218 118 l 742 118 l 742 0 l 49 0 l 49 119 l 389 501 l 49 881 l 49 1000 l 742 1000 l 742 882 l 218 882 l 517 550 l 517 451 z "},"Τ":{"ha":838,"x_min":14,"x_max":824,"o":"m 824 1000 l 824 874 l 488 874 l 488 0 l 346 0 l 346 874 l 14 874 l 14 1000 l 824 1000 z "},"Υ":{"ha":874,"x_min":0,"x_max":874,"o":"m 507 0 l 367 0 l 367 397 l 0 1000 l 156 1000 l 438 519 l 729 1000 l 874 1000 l 507 397 l 507 0 z "},"Φ":{"ha":1189,"x_min":63,"x_max":1126,"o":"m 524 1021 l 665 1021 l 665 965 q 1008 826 882 960 q 1126 500 1126 703 q 981 142 1126 267 q 665 35 858 39 l 665 -21 l 524 -21 l 524 35 q 175 174 300 39 q 63 500 63 296 q 214 858 63 732 q 524 965 336 960 l 524 1021 m 207 500 q 306 224 207 313 q 524 150 385 153 l 524 850 q 283 753 364 846 q 207 500 207 664 m 982 500 q 882 775 982 686 q 665 850 803 846 l 665 150 q 904 247 824 154 q 982 500 982 335 z "},"Χ":{"ha":906,"x_min":14,"x_max":892,"o":"m 881 1000 l 532 521 l 892 0 l 722 0 l 454 404 l 174 0 l 14 0 l 375 517 l 39 1000 l 206 1000 l 460 628 l 719 1000 l 881 1000 z "},"Ψ":{"ha":1065,"x_min":83,"x_max":982,"o":"m 83 1000 l 225 1000 l 225 568 q 465 351 225 378 l 465 1000 l 607 1000 l 607 353 q 793 431 733 367 q 844 568 844 485 l 844 1000 l 982 1000 l 982 581 q 874 326 982 418 q 607 232 776 246 l 607 0 l 465 0 l 465 232 q 168 351 267 247 q 83 581 83 440 l 83 1000 z "},"Ω":{"ha":1075,"x_min":63,"x_max":1013,"o":"m 392 126 l 392 0 l 106 0 l 106 126 l 240 126 q 106 283 154 169 q 63 500 63 382 q 235 918 63 778 q 538 1021 363 1021 q 876 888 746 1021 q 1013 500 1013 750 q 956 257 1013 364 q 831 126 907 164 l 969 126 l 969 0 l 683 0 l 683 126 q 824 275 776 172 q 868 500 868 369 q 764 815 868 707 q 538 906 678 906 q 288 788 376 906 q 207 500 207 681 q 263 250 207 350 q 392 126 310 167 z "},"Ϊ":{"ha":350,"x_min":-54,"x_max":404,"o":"m 104 1000 l 246 1000 l 246 0 l 104 0 l 104 1000 m 90 1097 l -54 1097 l -54 1236 l 90 1236 l 90 1097 m 404 1097 l 260 1097 l 260 1236 l 404 1236 l 404 1097 z "},"Ϋ":{"ha":874,"x_min":0,"x_max":874,"o":"m 507 0 l 367 0 l 367 397 l 0 1000 l 156 1000 l 438 519 l 729 1000 l 874 1000 l 507 397 l 507 0 m 351 1097 l 207 1097 l 207 1236 l 351 1236 l 351 1097 m 665 1097 l 521 1097 l 521 1236 l 665 1236 l 665 1097 z "},"ά":{"ha":839,"x_min":56,"x_max":742,"o":"m 742 0 l 632 0 l 608 100 q 371 -21 524 -21 q 135 89 221 -21 q 56 357 56 190 q 157 660 56 557 q 375 743 240 743 q 608 625 524 743 l 629 722 l 742 722 l 742 0 m 194 354 q 260 150 194 219 q 400 93 313 93 q 565 175 506 93 q 615 353 615 246 q 547 567 615 492 q 400 629 490 629 q 243 553 296 629 q 194 354 194 483 m 340 796 l 378 1000 l 543 1000 l 439 796 l 340 796 z "},"έ":{"ha":742,"x_min":56,"x_max":686,"o":"m 364 90 q 493 128 450 90 q 540 225 529 160 l 686 225 q 578 40 668 107 q 365 -21 493 -21 q 122 49 204 -21 q 56 197 56 106 q 104 318 56 267 q 219 379 149 363 q 110 449 147 400 q 79 542 79 490 q 158 693 79 638 q 356 743 232 743 q 589 671 497 743 q 682 515 667 610 l 535 515 q 476 604 522 572 q 358 636 429 636 q 246 604 283 636 q 215 535 215 578 q 353 431 215 431 l 425 431 l 425 315 l 350 315 q 226 279 268 315 q 192 201 192 250 q 364 90 192 90 m 317 796 l 354 1000 l 519 1000 l 415 796 l 317 796 z "},"ή":{"ha":788,"x_min":97,"x_max":697,"o":"m 231 0 l 97 0 l 97 722 l 207 722 l 222 631 q 442 743 303 743 q 638 664 569 743 q 697 471 697 593 l 697 -250 l 564 -250 l 564 469 q 410 629 564 629 q 278 574 329 629 q 231 444 231 522 l 231 0 m 331 796 l 368 1000 l 533 1000 l 429 796 l 331 796 z "},"ί":{"ha":328,"x_min":97,"x_max":314,"o":"m 231 0 l 97 0 l 97 722 l 231 722 l 231 0 m 111 796 l 149 1000 l 314 1000 l 210 796 l 111 796 z "},"ΰ":{"ha":790,"x_min":97,"x_max":693,"o":"m 396 -21 q 171 56 249 -21 q 97 251 97 126 l 97 722 l 231 722 l 231 249 q 285 126 231 167 q 396 93 328 93 q 518 136 475 93 q 560 249 560 176 l 560 722 l 693 722 l 693 251 q 600 38 693 108 q 396 -21 524 -21 m 350 978 l 388 1182 l 553 1182 l 449 978 l 350 978 m 328 819 l 183 819 l 183 958 l 328 958 l 328 819 m 614 819 l 469 819 l 469 958 l 614 958 l 614 819 z "},"α":{"ha":839,"x_min":56,"x_max":742,"o":"m 742 0 l 632 0 l 608 100 q 371 -21 524 -21 q 135 89 221 -21 q 56 357 56 190 q 157 660 56 557 q 375 743 240 743 q 608 625 524 743 l 629 722 l 742 722 l 742 0 m 194 354 q 260 150 194 219 q 400 93 313 93 q 565 175 506 93 q 615 353 615 246 q 547 567 615 492 q 400 629 490 629 q 243 553 296 629 q 194 354 194 483 z "},"β":{"ha":792,"x_min":97,"x_max":729,"o":"m 231 -250 l 97 -250 l 97 722 q 183 953 97 875 q 383 1021 257 1021 q 606 943 525 1021 q 675 767 675 875 q 635 625 675 683 q 528 547 596 569 q 678 446 618 533 q 729 281 729 371 q 636 50 729 135 q 442 -21 557 -21 q 231 78 300 -21 l 231 -250 m 381 910 q 264 861 300 910 q 231 729 231 818 l 231 263 q 293 132 231 183 q 414 90 344 90 q 550 143 503 90 q 593 276 593 192 q 538 436 593 382 q 419 479 493 479 l 374 479 l 374 594 l 417 594 q 510 643 476 594 q 539 753 539 686 q 494 872 539 832 q 381 910 454 910 z "},"γ":{"ha":714,"x_min":14,"x_max":700,"o":"m 421 -250 l 288 -250 l 288 0 l 14 722 l 158 722 l 357 128 l 560 722 l 700 722 l 421 0 l 421 -250 z "},"δ":{"ha":796,"x_min":56,"x_max":740,"o":"m 186 897 l 186 1000 l 681 1000 l 681 886 l 458 886 q 671 719 594 850 q 740 431 740 600 q 633 82 740 203 q 392 -21 542 -21 q 139 83 232 -21 q 56 331 56 178 q 158 589 56 492 q 372 671 246 671 q 528 631 456 671 q 615 544 592 594 q 457 797 594 696 q 186 897 342 882 m 392 560 q 239 490 293 560 q 192 324 192 428 q 251 143 192 203 q 389 90 301 90 q 553 163 489 90 q 611 326 611 228 q 543 503 611 438 q 392 560 483 560 z "},"ε":{"ha":742,"x_min":56,"x_max":686,"o":"m 364 90 q 493 128 450 90 q 540 225 529 160 l 686 225 q 578 40 668 107 q 365 -21 493 -21 q 122 49 204 -21 q 56 197 56 106 q 104 318 56 267 q 219 379 149 363 q 110 449 147 400 q 79 542 79 490 q 158 693 79 638 q 356 743 232 743 q 589 671 497 743 q 682 515 667 610 l 535 515 q 476 604 522 572 q 358 636 429 636 q 246 604 283 636 q 215 535 215 578 q 353 431 215 431 l 425 431 l 425 315 l 350 315 q 226 279 268 315 q 192 201 192 250 q 364 90 192 90 z "},"ζ":{"ha":622,"x_min":56,"x_max":608,"o":"m 418 892 l 56 892 l 56 1000 l 608 1000 l 608 906 q 286 665 396 824 q 193 361 193 529 q 407 89 193 129 q 568 19 524 67 q 606 -90 606 -21 q 503 -271 606 -186 l 422 -210 q 482 -106 482 -147 q 453 -50 482 -69 q 351 -18 424 -31 q 124 114 201 6 q 57 336 57 206 q 165 694 57 542 q 418 892 260 826 z "},"η":{"ha":788,"x_min":97,"x_max":697,"o":"m 231 0 l 97 0 l 97 722 l 207 722 l 222 631 q 442 743 303 743 q 638 664 569 743 q 697 471 697 593 l 697 -250 l 564 -250 l 564 469 q 410 629 564 629 q 278 574 329 629 q 231 444 231 522 l 231 0 z "},"θ":{"ha":819,"x_min":56,"x_max":764,"o":"m 410 -21 q 146 122 242 -21 q 56 503 56 260 q 172 917 56 783 q 410 1021 263 1021 q 672 885 579 1021 q 764 503 764 750 q 647 89 764 226 q 410 -21 556 -21 m 410 90 q 622 451 610 90 l 196 451 q 410 90 208 90 m 410 910 q 251 817 304 910 q 197 565 204 732 l 622 565 q 554 839 614 756 q 410 910 503 910 z "},"ι":{"ha":328,"x_min":97,"x_max":231,"o":"m 231 0 l 97 0 l 97 722 l 231 722 l 231 0 z "},"κ":{"ha":722,"x_min":97,"x_max":729,"o":"m 231 0 l 97 0 l 97 722 l 231 722 l 231 429 l 514 722 l 689 722 l 365 401 l 729 0 l 551 0 l 231 351 l 231 0 z "},"λ":{"ha":717,"x_min":14,"x_max":703,"o":"m 449 732 l 703 0 l 563 0 l 356 614 l 147 0 l 14 0 l 276 722 l 318 722 q 250 874 276 838 q 181 910 224 910 q 111 900 150 910 l 111 1008 q 197 1021 161 1021 q 339 956 285 1021 q 449 732 390 893 z "},"μ":{"ha":789,"x_min":97,"x_max":692,"o":"m 558 722 l 692 722 l 692 0 l 582 0 l 568 78 q 364 -21 494 -21 q 231 21 293 -21 l 231 -250 l 97 -250 l 97 722 l 231 722 l 231 249 q 381 93 231 93 q 519 156 471 93 q 558 276 558 206 l 558 722 z "},"ν":{"ha":714,"x_min":14,"x_max":700,"o":"m 561 722 l 700 722 l 446 0 l 265 0 l 14 722 l 160 722 l 360 108 l 561 722 z "},"ξ":{"ha":701,"x_min":63,"x_max":646,"o":"m 279 892 l 63 892 l 63 1000 l 608 1000 l 608 904 l 581 904 q 297 833 389 904 q 226 690 226 779 q 271 585 226 625 q 367 549 311 549 l 519 549 l 519 433 l 364 433 q 240 379 288 433 q 200 271 200 333 q 258 150 200 194 q 414 89 311 110 q 603 14 550 63 q 646 -94 646 -26 q 618 -177 646 -136 q 526 -271 590 -218 l 444 -210 q 508 -106 508 -143 q 478 -51 508 -68 q 358 -18 447 -33 q 128 89 204 8 q 64 260 64 158 q 249 497 64 450 q 136 579 179 518 q 101 685 101 629 q 279 892 101 838 z "},"ο":{"ha":824,"x_min":56,"x_max":768,"o":"m 56 361 q 174 661 56 560 q 413 743 268 743 q 676 636 581 743 q 768 361 768 536 q 653 63 768 165 q 411 -21 558 -21 q 146 90 243 -21 q 56 361 56 192 m 194 361 q 265 149 194 222 q 414 88 324 88 q 576 167 519 88 q 629 361 629 239 q 560 575 629 503 q 413 635 503 635 q 250 556 308 635 q 194 361 194 483 z "},"ρ":{"ha":839,"x_min":90,"x_max":783,"o":"m 90 375 q 190 657 93 563 q 444 743 281 743 q 701 631 608 743 q 783 367 783 531 q 679 67 783 171 q 456 -21 592 -21 q 224 93 301 -21 l 224 -250 l 90 -250 l 90 375 m 217 369 q 285 157 217 231 q 435 93 342 93 q 593 169 539 93 q 644 369 644 240 q 576 574 644 506 q 435 629 522 629 q 269 556 328 629 q 217 369 217 488 z "},"ς":{"ha":764,"x_min":56,"x_max":708,"o":"m 197 374 q 265 172 197 235 q 468 94 328 113 q 649 25 596 78 q 692 -89 692 -17 q 574 -271 692 -171 l 493 -210 q 554 -106 554 -149 q 521 -44 554 -64 q 407 -17 488 -24 q 140 107 233 -3 q 56 371 56 207 q 161 653 56 549 q 396 743 254 743 q 615 672 529 743 q 708 508 692 610 l 561 508 q 505 599 547 567 q 399 631 463 631 q 247 556 301 631 q 197 374 197 489 z "},"σ":{"ha":824,"x_min":56,"x_max":796,"o":"m 796 610 l 686 614 q 768 361 768 515 q 653 63 768 165 q 411 -21 558 -21 q 146 90 243 -21 q 56 361 56 192 q 171 660 56 557 q 407 743 264 743 q 539 722 476 743 l 796 722 l 796 610 m 194 361 q 265 149 194 222 q 414 88 324 88 q 576 167 519 88 q 629 361 629 239 q 592 532 629 458 q 514 624 563 593 q 413 635 461 635 q 250 556 308 635 q 194 361 194 483 z "},"τ":{"ha":667,"x_min":21,"x_max":646,"o":"m 400 0 l 267 0 l 267 608 l 21 608 l 21 722 l 646 722 l 646 608 l 400 608 l 400 0 z "},"υ":{"ha":790,"x_min":97,"x_max":693,"o":"m 396 -21 q 171 56 249 -21 q 97 251 97 126 l 97 722 l 231 722 l 231 249 q 285 126 231 167 q 396 93 328 93 q 518 136 475 93 q 560 249 560 176 l 560 722 l 693 722 l 693 251 q 600 38 693 108 q 396 -21 524 -21 z "},"φ":{"ha":1017,"x_min":56,"x_max":961,"o":"m 429 453 q 501 676 429 603 q 682 743 567 743 q 961 389 961 743 q 857 86 961 186 q 563 -18 760 -7 l 563 -250 l 429 -250 l 429 -18 q 131 89 218 -6 q 56 321 56 169 q 150 722 56 501 l 283 722 q 210 499 231 585 q 189 326 189 413 q 249 151 189 204 q 429 93 304 103 l 429 453 m 563 428 l 563 92 q 775 176 719 100 q 824 390 824 243 q 782 586 824 532 q 681 629 749 629 q 590 583 617 629 q 563 428 563 536 z "},"χ":{"ha":735,"x_min":14,"x_max":721,"o":"m 679 722 l 438 260 l 721 -250 l 558 -250 l 363 147 l 171 -250 l 14 -250 l 283 250 l 31 722 l 190 722 l 363 361 l 526 722 l 679 722 z "},"ψ":{"ha":1038,"x_min":97,"x_max":940,"o":"m 97 722 l 232 722 l 232 322 q 296 168 232 225 q 456 103 353 115 l 456 722 l 589 722 l 589 103 q 761 185 703 118 q 810 322 810 240 l 810 722 l 940 722 l 940 335 q 835 79 940 174 q 589 -17 743 -3 l 589 -250 l 456 -250 l 456 -18 q 179 104 274 -1 q 97 335 97 196 l 97 722 z "},"ω":{"ha":1043,"x_min":56,"x_max":988,"o":"m 726 -21 q 593 19 649 -21 q 521 111 546 53 q 433 10 492 44 q 314 -21 382 -21 q 115 72 182 -21 q 56 308 56 157 q 150 722 56 501 l 283 722 q 208 492 228 576 q 189 314 189 407 q 232 135 189 188 q 331 93 265 93 q 454 258 454 93 l 454 528 l 589 528 l 589 258 q 713 93 589 93 q 821 149 786 93 q 854 314 854 203 q 835 492 854 407 q 760 722 815 576 l 893 722 q 988 308 988 501 q 726 -21 988 -21 z "},"ϊ":{"ha":328,"x_min":-65,"x_max":393,"o":"m 231 0 l 97 0 l 97 722 l 231 722 l 231 0 m 79 861 l -65 861 l -65 1000 l 79 1000 l 79 861 m 393 861 l 249 861 l 249 1000 l 393 1000 l 393 861 z "},"ϋ":{"ha":790,"x_min":97,"x_max":693,"o":"m 396 -21 q 171 56 249 -21 q 97 251 97 126 l 97 722 l 231 722 l 231 249 q 285 126 231 167 q 396 93 328 93 q 518 136 475 93 q 560 249 560 176 l 560 722 l 693 722 l 693 251 q 600 38 693 108 q 396 -21 524 -21 m 314 861 l 169 861 l 169 1000 l 314 1000 l 314 861 m 628 861 l 483 861 l 483 1000 l 628 1000 l 628 861 z "},"ό":{"ha":824,"x_min":56,"x_max":768,"o":"m 56 361 q 174 661 56 560 q 413 743 268 743 q 676 636 581 743 q 768 361 768 536 q 653 63 768 165 q 411 -21 558 -21 q 146 90 243 -21 q 56 361 56 192 m 194 361 q 265 149 194 222 q 414 88 324 88 q 576 167 519 88 q 629 361 629 239 q 560 575 629 503 q 413 635 503 635 q 250 556 308 635 q 194 361 194 483 m 367 796 l 404 1000 l 569 1000 l 465 796 l 367 796 z "},"ύ":{"ha":790,"x_min":97,"x_max":693,"o":"m 396 -21 q 171 56 249 -21 q 97 251 97 126 l 97 722 l 231 722 l 231 249 q 285 126 231 167 q 396 93 328 93 q 518 136 475 93 q 560 249 560 176 l 560 722 l 693 722 l 693 251 q 600 38 693 108 q 396 -21 524 -21 m 338 796 l 375 1000 l 540 1000 l 436 796 l 338 796 z "},"ώ":{"ha":1043,"x_min":56,"x_max":988,"o":"m 726 -21 q 593 19 649 -21 q 521 111 546 53 q 433 10 492 44 q 314 -21 382 -21 q 115 72 182 -21 q 56 308 56 157 q 150 722 56 501 l 283 722 q 208 492 228 576 q 189 314 189 407 q 232 135 189 188 q 331 93 265 93 q 454 258 454 93 l 454 528 l 589 528 l 589 258 q 713 93 589 93 q 821 149 786 93 q 854 314 854 203 q 835 492 854 407 q 760 722 815 576 l 893 722 q 988 308 988 501 q 726 -21 988 -21 m 469 796 l 507 1000 l 672 1000 l 568 796 l 469 796 z "},"Ѐ":{"ha":797,"x_min":104,"x_max":728,"o":"m 688 567 l 688 450 l 246 450 l 246 119 l 728 119 l 728 0 l 104 0 l 104 1000 l 728 1000 l 728 881 l 246 881 l 246 567 l 688 567 m 386 1257 l 528 1067 l 408 1067 l 214 1257 l 386 1257 z "},"Ё":{"ha":797,"x_min":104,"x_max":728,"o":"m 688 567 l 688 450 l 246 450 l 246 119 l 728 119 l 728 0 l 104 0 l 104 1000 l 728 1000 l 728 881 l 246 881 l 246 567 l 688 567 m 333 1097 l 189 1097 l 189 1236 l 333 1236 l 333 1097 m 647 1097 l 503 1097 l 503 1236 l 647 1236 l 647 1097 z "},"Ђ":{"ha":1096,"x_min":14,"x_max":1026,"o":"m 682 686 q 943 583 849 686 q 1026 340 1026 490 l 1026 176 q 969 26 1026 79 q 832 -22 918 -22 q 728 -6 781 -22 l 728 104 q 811 92 783 92 q 869 111 854 92 q 885 183 885 131 l 885 344 q 664 568 885 568 q 506 514 567 568 q 446 378 446 461 l 446 0 l 304 0 l 304 874 l 14 874 l 14 1000 l 740 1000 l 740 874 l 446 874 l 446 594 q 682 686 540 686 z "},"Ѓ":{"ha":689,"x_min":104,"x_max":675,"o":"m 675 1000 l 675 881 l 246 881 l 246 0 l 104 0 l 104 1000 l 675 1000 m 274 1067 l 415 1257 l 588 1257 l 393 1067 l 274 1067 z "},"Є":{"ha":1013,"x_min":63,"x_max":957,"o":"m 638 567 l 638 450 l 208 450 q 317 178 221 271 q 524 99 399 99 q 736 181 653 99 q 814 353 808 251 l 957 353 q 896 169 951 254 q 744 33 839 83 q 521 -21 643 -21 q 171 133 294 -21 q 63 500 63 269 q 211 904 63 764 q 532 1021 335 1021 q 843 906 719 1021 q 956 679 946 811 l 813 679 q 714 850 799 789 q 532 903 639 903 q 301 807 388 903 q 210 567 224 721 l 638 567 z "},"Ѕ":{"ha":907,"x_min":49,"x_max":844,"o":"m 703 271 q 681 350 703 321 q 589 414 656 385 q 388 481 522 443 q 139 604 207 531 q 83 764 83 664 q 189 956 83 885 q 442 1021 286 1021 q 724 939 615 1021 q 838 750 821 867 l 692 750 q 608 868 679 829 q 442 904 546 904 q 269 860 325 904 q 225 769 225 825 q 237 710 225 733 q 278 669 249 688 q 488 590 332 633 q 781 451 704 529 q 844 276 844 388 q 729 58 844 144 q 454 -21 621 -21 q 167 72 281 -21 q 49 281 68 153 l 194 281 q 282 140 208 189 q 451 96 349 96 q 647 154 579 96 q 703 271 703 201 z "},"І":{"ha":350,"x_min":104,"x_max":246,"o":"m 104 1000 l 246 1000 l 246 0 l 104 0 l 104 1000 z "},"Ї":{"ha":350,"x_min":-54,"x_max":404,"o":"m 104 1000 l 246 1000 l 246 0 l 104 0 l 104 1000 m 90 1097 l -54 1097 l -54 1236 l 90 1236 l 90 1097 m 404 1097 l 260 1097 l 260 1236 l 404 1236 l 404 1097 z "},"Ј":{"ha":750,"x_min":35,"x_max":653,"o":"m 35 281 l 178 281 q 347 99 186 99 q 474 157 431 99 q 511 294 511 207 l 511 1000 l 653 1000 l 653 293 q 561 50 653 132 q 342 -21 481 -21 q 111 76 197 -21 q 35 281 39 158 z "},"Љ":{"ha":1468,"x_min":14,"x_max":1413,"o":"m 696 0 l 696 881 l 319 881 l 260 236 q 190 56 247 111 q 14 0 132 0 l 14 125 q 93 144 71 125 q 124 231 118 168 l 193 1000 l 838 1000 l 838 643 l 1021 643 q 1324 549 1222 643 q 1413 318 1413 465 q 1299 72 1413 154 q 1015 0 1197 0 l 696 0 m 1024 528 l 838 528 l 838 115 l 1018 115 q 1215 175 1156 115 q 1265 318 1265 224 q 1194 479 1265 425 q 1024 528 1132 528 z "},"Њ":{"ha":1453,"x_min":104,"x_max":1397,"o":"m 679 1000 l 822 1000 l 822 601 l 1006 601 q 1308 514 1208 601 q 1397 299 1397 436 q 1283 68 1397 146 q 1000 0 1182 0 l 679 0 l 679 485 l 246 485 l 246 0 l 104 0 l 104 1000 l 246 1000 l 246 601 l 679 601 l 679 1000 m 1008 486 l 822 486 l 822 115 l 1003 115 q 1250 299 1250 115 q 1179 443 1250 394 q 1008 486 1117 486 z "},"Ћ":{"ha":1096,"x_min":14,"x_max":1026,"o":"m 446 0 l 304 0 l 304 874 l 14 874 l 14 1000 l 740 1000 l 740 874 l 446 874 l 446 594 q 682 686 540 686 q 943 583 849 686 q 1026 340 1026 490 l 1026 0 l 885 0 l 885 344 q 664 568 885 568 q 506 514 569 568 q 446 382 446 463 l 446 0 z "},"Ќ":{"ha":878,"x_min":104,"x_max":864,"o":"m 324 1067 l 465 1257 l 638 1257 l 443 1067 l 324 1067 m 864 0 l 697 0 l 393 457 l 246 457 l 246 0 l 104 0 l 104 1000 l 246 1000 l 246 575 l 400 575 l 671 1000 l 821 1000 l 504 522 l 864 0 z "},"Ѝ":{"ha":999,"x_min":104,"x_max":894,"o":"m 243 0 l 104 0 l 104 1000 l 243 1000 l 243 242 l 753 946 l 753 1000 l 894 1000 l 894 0 l 753 0 l 753 758 l 243 56 l 243 0 m 429 1257 l 571 1067 l 451 1067 l 257 1257 l 429 1257 z "},"Ў":{"ha":822,"x_min":0,"x_max":822,"o":"m 822 1000 l 503 192 q 404 29 454 75 q 261 -21 349 -21 q 175 -8 225 -21 l 175 106 q 244 96 214 96 q 323 124 296 96 q 376 232 350 153 l 329 232 l 0 1000 l 149 1000 l 421 335 l 685 1000 l 822 1000 m 414 1051 q 274 1092 325 1051 q 213 1207 222 1132 l 329 1207 q 414 1140 333 1140 q 499 1207 494 1140 l 615 1207 q 540 1082 604 1122 q 414 1051 490 1051 z "},"Џ":{"ha":982,"x_min":104,"x_max":878,"o":"m 878 0 l 554 0 l 554 -194 l 422 -194 l 422 0 l 104 0 l 104 1000 l 246 1000 l 246 119 l 735 119 l 735 1000 l 878 1000 l 878 0 z "},"А":{"ha":981,"x_min":0,"x_max":981,"o":"m 981 0 l 824 0 l 725 253 l 249 253 l 149 0 l 0 0 l 411 1000 l 571 1000 l 981 0 m 489 858 l 294 368 l 679 368 l 489 858 z "},"Б":{"ha":876,"x_min":104,"x_max":821,"o":"m 689 1000 l 689 881 l 246 881 l 246 643 l 429 643 q 732 549 631 643 q 821 318 821 465 q 707 72 821 154 q 424 0 606 0 l 104 0 l 104 1000 l 689 1000 m 432 528 l 246 528 l 246 115 l 426 115 q 624 175 564 115 q 674 318 674 224 q 603 479 674 425 q 432 528 540 528 z "},"В":{"ha":906,"x_min":104,"x_max":843,"o":"m 104 1000 l 464 1000 q 736 919 646 1000 q 813 735 813 851 q 760 599 813 660 q 651 529 715 546 q 793 439 738 514 q 843 282 843 371 q 733 65 843 139 q 461 0 635 0 l 104 0 l 104 1000 m 488 469 l 246 469 l 246 115 l 482 115 q 696 282 696 115 q 488 469 696 469 m 475 893 l 246 893 l 246 578 l 483 578 q 628 626 579 578 q 669 735 669 668 q 611 856 669 814 q 475 893 561 893 z "},"Г":{"ha":689,"x_min":104,"x_max":675,"o":"m 675 1000 l 675 881 l 246 881 l 246 0 l 104 0 l 104 1000 l 675 1000 z "},"Д":{"ha":928,"x_min":21,"x_max":914,"o":"m 185 1000 l 824 1000 l 824 122 l 914 122 l 914 -194 l 782 -194 l 782 0 l 153 0 l 153 -194 l 21 -194 l 21 122 l 75 122 q 132 197 110 144 q 157 324 154 250 l 185 1000 m 317 881 l 293 332 q 204 122 288 185 l 682 122 l 682 881 l 317 881 z "},"Е":{"ha":797,"x_min":104,"x_max":728,"o":"m 688 567 l 688 450 l 246 450 l 246 119 l 728 119 l 728 0 l 104 0 l 104 1000 l 728 1000 l 728 881 l 246 881 l 246 567 l 688 567 z "},"Ж":{"ha":1240,"x_min":7,"x_max":1233,"o":"m 50 1000 l 196 1000 l 404 576 l 553 576 l 553 1000 l 688 1000 l 688 576 l 835 576 l 1044 1000 l 1190 1000 l 940 521 l 1233 0 l 1071 0 l 832 456 l 688 456 l 688 0 l 553 0 l 553 456 l 408 456 l 169 0 l 7 0 l 300 521 l 50 1000 z "},"З":{"ha":856,"x_min":49,"x_max":793,"o":"m 793 272 q 681 53 793 135 q 424 -21 581 -21 q 147 61 249 -21 q 49 240 64 129 l 194 240 q 271 124 213 160 q 421 90 326 90 q 599 149 536 90 q 650 275 650 197 q 583 418 650 364 q 444 465 526 465 l 357 465 l 357 581 l 442 581 q 569 635 517 581 q 617 750 617 683 q 556 871 617 826 q 413 910 501 910 q 253 867 311 910 q 196 771 206 831 l 51 771 q 174 957 69 889 q 419 1021 271 1021 q 681 939 586 1021 q 760 760 760 868 q 706 611 760 676 q 585 531 657 554 q 743 432 686 511 q 793 272 793 364 z "},"И":{"ha":999,"x_min":104,"x_max":894,"o":"m 243 0 l 104 0 l 104 1000 l 243 1000 l 243 242 l 753 946 l 753 1000 l 894 1000 l 894 0 l 753 0 l 753 758 l 243 56 l 243 0 z "},"Й":{"ha":999,"x_min":104,"x_max":894,"o":"m 243 0 l 104 0 l 104 1000 l 243 1000 l 243 242 l 753 946 l 753 1000 l 894 1000 l 894 0 l 753 0 l 753 758 l 243 56 l 243 0 m 508 1051 q 368 1092 419 1051 q 307 1207 317 1132 l 424 1207 q 508 1140 428 1140 q 593 1207 589 1140 l 710 1207 q 635 1082 699 1122 q 508 1051 585 1051 z "},"К":{"ha":878,"x_min":104,"x_max":864,"o":"m 864 0 l 697 0 l 393 457 l 246 457 l 246 0 l 104 0 l 104 1000 l 246 1000 l 246 575 l 400 575 l 671 1000 l 821 1000 l 504 522 l 864 0 z "},"Л":{"ha":942,"x_min":14,"x_max":838,"o":"m 193 1000 l 838 1000 l 838 0 l 696 0 l 696 881 l 325 881 l 265 236 q 193 56 253 111 q 14 0 132 0 l 14 125 q 93 144 71 125 q 124 231 118 168 l 193 1000 z "},"М":{"ha":1210,"x_min":104,"x_max":1106,"o":"m 683 0 l 550 0 l 242 783 l 242 0 l 104 0 l 104 1000 l 301 1000 l 619 167 l 919 1000 l 1106 1000 l 1106 0 l 972 0 l 972 776 l 683 0 z "},"Н":{"ha":982,"x_min":104,"x_max":878,"o":"m 735 1000 l 878 1000 l 878 0 l 735 0 l 735 446 l 246 446 l 246 0 l 104 0 l 104 1000 l 246 1000 l 246 565 l 735 565 l 735 1000 z "},"О":{"ha":1075,"x_min":63,"x_max":1013,"o":"m 538 -21 q 179 133 310 -21 q 63 500 63 274 q 219 904 63 760 q 539 1021 347 1021 q 892 872 761 1021 q 1013 500 1013 732 q 858 99 1013 242 q 538 -21 731 -21 m 538 94 q 788 213 699 94 q 868 500 868 319 q 764 815 868 707 q 538 906 678 906 q 288 788 376 906 q 207 500 207 681 q 311 185 207 293 q 538 94 397 94 z "},"П":{"ha":982,"x_min":104,"x_max":878,"o":"m 104 1000 l 878 1000 l 878 0 l 735 0 l 735 881 l 246 881 l 246 0 l 104 0 l 104 1000 z "},"Р":{"ha":876,"x_min":104,"x_max":821,"o":"m 104 1000 l 429 1000 q 732 906 631 1000 q 821 675 821 822 q 707 429 821 511 q 424 357 606 357 l 246 357 l 246 0 l 104 0 l 104 1000 m 432 885 l 246 885 l 246 472 l 426 472 q 624 532 564 472 q 674 675 674 581 q 603 836 674 782 q 432 885 540 885 z "},"С":{"ha":1013,"x_min":63,"x_max":957,"o":"m 524 99 q 736 181 653 99 q 814 353 808 251 l 957 353 q 896 169 951 254 q 744 33 839 83 q 521 -21 643 -21 q 171 133 294 -21 q 63 500 63 269 q 211 904 63 764 q 532 1021 335 1021 q 843 906 719 1021 q 956 679 946 811 l 813 679 q 714 850 799 789 q 532 903 639 903 q 286 789 372 903 q 207 500 207 685 q 307 189 207 297 q 524 99 390 99 z "},"Т":{"ha":838,"x_min":14,"x_max":824,"o":"m 824 1000 l 824 874 l 488 874 l 488 0 l 346 0 l 346 874 l 14 874 l 14 1000 l 824 1000 z "},"У":{"ha":822,"x_min":0,"x_max":822,"o":"m 822 1000 l 503 192 q 404 29 454 75 q 261 -21 349 -21 q 175 -8 225 -21 l 175 106 q 244 96 214 96 q 323 124 296 96 q 376 232 350 153 l 329 232 l 0 1000 l 149 1000 l 421 335 l 685 1000 l 822 1000 z "},"Ф":{"ha":1189,"x_min":63,"x_max":1126,"o":"m 524 1021 l 665 1021 l 665 965 q 1008 826 882 960 q 1126 500 1126 703 q 981 142 1126 267 q 665 35 858 39 l 665 -21 l 524 -21 l 524 35 q 175 174 300 39 q 63 500 63 296 q 214 858 63 732 q 524 965 336 960 l 524 1021 m 207 500 q 306 224 207 313 q 524 150 385 153 l 524 850 q 283 753 364 846 q 207 500 207 664 m 982 500 q 882 775 982 686 q 665 850 803 846 l 665 150 q 904 247 824 154 q 982 500 982 335 z "},"Х":{"ha":906,"x_min":14,"x_max":892,"o":"m 881 1000 l 532 521 l 892 0 l 722 0 l 454 404 l 174 0 l 14 0 l 375 517 l 39 1000 l 206 1000 l 460 628 l 719 1000 l 881 1000 z "},"Ц":{"ha":982,"x_min":104,"x_max":968,"o":"m 246 1000 l 246 119 l 735 119 l 735 1000 l 878 1000 l 878 119 l 968 119 l 968 -194 l 836 -194 l 836 0 l 104 0 l 104 1000 l 246 1000 z "},"Ч":{"ha":910,"x_min":83,"x_max":806,"o":"m 664 1000 l 806 1000 l 806 0 l 664 0 l 664 425 q 413 314 579 314 q 161 413 249 314 q 83 660 83 501 l 83 1000 l 225 1000 l 225 656 q 286 481 225 535 q 447 432 340 432 q 608 500 547 432 q 664 650 664 561 l 664 1000 z "},"Ш":{"ha":1344,"x_min":104,"x_max":1240,"o":"m 1240 0 l 104 0 l 104 1000 l 246 1000 l 246 122 l 604 122 l 604 1000 l 740 1000 l 740 122 l 1099 122 l 1099 1000 l 1240 1000 l 1240 0 z "},"Щ":{"ha":1344,"x_min":104,"x_max":1331,"o":"m 1240 1000 l 1240 119 l 1331 119 l 1331 -194 l 1199 -194 l 1199 0 l 104 0 l 104 1000 l 246 1000 l 246 122 l 604 122 l 604 1000 l 740 1000 l 740 122 l 1099 122 l 1099 1000 l 1240 1000 z "},"Ъ":{"ha":1111,"x_min":14,"x_max":1056,"o":"m 339 0 l 339 881 l 14 881 l 14 1000 l 481 1000 l 481 643 l 664 643 q 967 549 865 643 q 1056 318 1056 465 q 942 72 1056 154 q 658 0 840 0 l 339 0 m 667 528 l 481 528 l 481 115 l 661 115 q 858 175 799 115 q 908 318 908 224 q 838 479 908 425 q 667 528 775 528 z "},"Ы":{"ha":1183,"x_min":104,"x_max":1079,"o":"m 104 0 l 104 1000 l 246 1000 l 246 643 l 429 643 q 732 549 631 643 q 821 318 821 465 q 707 72 821 154 q 424 0 606 0 l 104 0 m 432 528 l 246 528 l 246 115 l 426 115 q 624 175 564 115 q 674 318 674 224 q 603 479 674 425 q 432 528 540 528 m 938 1000 l 1079 1000 l 1079 0 l 938 0 l 938 1000 z "},"Ь":{"ha":876,"x_min":104,"x_max":821,"o":"m 104 0 l 104 1000 l 246 1000 l 246 643 l 429 643 q 732 549 631 643 q 821 318 821 465 q 707 72 821 154 q 424 0 606 0 l 104 0 m 432 528 l 246 528 l 246 115 l 426 115 q 624 175 564 115 q 674 318 674 224 q 603 479 674 425 q 432 528 540 528 z "},"Э":{"ha":1013,"x_min":56,"x_max":950,"o":"m 375 450 l 375 567 l 803 567 q 696 831 788 744 q 494 903 619 903 q 286 833 369 903 q 200 679 213 774 l 57 679 q 206 932 68 833 q 494 1021 326 1021 q 842 869 721 1021 q 950 506 950 735 q 810 103 950 246 q 497 -21 689 -21 q 167 107 293 -21 q 56 353 64 211 l 199 353 q 296 163 206 233 q 497 99 376 99 q 719 201 636 99 q 804 450 793 293 l 375 450 z "},"Ю":{"ha":1417,"x_min":104,"x_max":1354,"o":"m 893 -21 q 561 118 688 -21 q 433 446 447 242 l 246 446 l 246 0 l 104 0 l 104 1000 l 246 1000 l 246 565 l 435 565 q 603 918 454 793 q 894 1021 725 1021 q 1235 872 1107 1021 q 1354 500 1354 732 q 1203 99 1354 243 q 893 -21 1078 -21 m 893 94 q 1131 213 1044 94 q 1210 500 1210 321 q 1108 815 1210 706 q 893 906 1024 906 q 656 788 742 906 q 576 500 576 679 q 678 185 576 294 q 893 94 763 94 z "},"Я":{"ha":914,"x_min":14,"x_max":810,"o":"m 181 0 l 14 0 l 288 404 q 144 513 196 440 q 94 689 94 586 q 211 936 94 854 q 450 1000 303 1000 l 810 1000 l 810 0 l 668 0 l 668 381 l 433 381 l 181 0 m 239 689 q 304 539 239 590 q 443 496 357 496 l 668 496 l 668 885 l 447 885 q 289 828 346 885 q 239 689 239 778 z "},"а":{"ha":764,"x_min":56,"x_max":674,"o":"m 211 521 l 69 521 q 172 689 81 629 q 379 743 254 743 q 607 665 528 743 q 674 493 674 599 l 674 0 l 564 0 l 547 99 q 306 -21 463 -21 q 113 46 182 -21 q 56 186 56 101 q 129 351 56 293 q 329 426 194 403 l 540 463 l 540 499 q 492 606 540 569 q 374 638 449 638 q 211 521 226 638 m 338 92 q 485 147 422 92 q 540 265 540 199 l 540 358 l 361 326 q 226 275 263 310 q 197 200 197 247 q 233 119 197 147 q 338 92 269 92 z "},"б":{"ha":813,"x_min":56,"x_max":757,"o":"m 56 408 q 132 765 56 646 q 356 913 204 878 q 476 951 444 933 q 508 1000 508 969 l 658 1000 q 639 926 658 951 q 566 877 618 900 q 381 815 514 854 q 249 735 289 788 q 189 558 210 682 q 436 688 268 688 q 671 583 579 688 q 757 340 757 488 q 643 67 757 168 q 407 -21 547 -21 q 133 106 225 -21 q 56 408 56 217 m 197 333 q 267 147 197 218 q 410 88 325 88 q 569 167 511 88 q 618 340 618 233 q 554 524 618 458 q 413 579 499 579 q 250 504 311 579 q 197 333 197 438 z "},"в":{"ha":717,"x_min":97,"x_max":668,"o":"m 375 722 q 644 532 644 722 q 609 437 644 478 q 513 379 574 396 q 632 311 590 363 q 668 208 668 267 q 585 47 668 101 q 381 0 511 0 l 97 0 l 97 722 l 375 722 m 231 110 l 379 110 q 532 211 532 110 q 497 290 532 261 q 403 319 463 319 l 231 319 l 231 110 m 371 613 l 231 613 l 231 429 l 379 429 q 508 525 508 429 q 475 592 508 571 q 371 613 442 613 z "},"г":{"ha":549,"x_min":97,"x_max":528,"o":"m 231 0 l 97 0 l 97 722 l 528 722 l 528 608 l 231 608 l 231 0 z "},"д":{"ha":801,"x_min":21,"x_max":774,"o":"m 21 114 l 99 114 q 133 166 122 136 q 147 253 143 196 l 174 722 l 704 722 l 704 114 l 774 114 l 774 -194 l 650 -194 l 650 0 l 144 0 l 144 -194 l 21 -194 l 21 114 m 571 608 l 297 608 l 278 263 q 213 114 272 171 l 571 114 l 571 608 z "},"е":{"ha":804,"x_min":56,"x_max":742,"o":"m 589 208 l 733 208 q 613 36 703 99 q 410 -21 528 -21 q 143 88 239 -21 q 56 361 56 189 q 167 658 56 557 q 403 743 258 743 q 658 633 572 743 q 742 332 742 528 l 192 332 q 269 142 200 204 q 414 92 326 92 q 532 129 482 92 q 589 208 574 161 m 406 636 q 263 581 317 636 q 197 438 211 529 l 606 438 q 536 593 599 542 q 406 636 486 636 z "},"ж":{"ha":1025,"x_min":-7,"x_max":1032,"o":"m 35 722 l 182 722 l 357 432 l 442 432 l 442 722 l 569 722 l 569 432 l 667 432 l 843 722 l 990 722 l 781 385 l 1032 0 l 874 0 l 671 319 l 569 319 l 569 0 l 442 0 l 442 319 l 354 319 l 151 0 l -7 0 l 244 385 l 35 722 z "},"з":{"ha":739,"x_min":56,"x_max":690,"o":"m 379 636 q 260 597 307 636 q 207 508 219 564 l 60 508 q 175 689 79 625 q 378 743 258 743 q 603 676 525 743 q 667 538 667 622 q 628 439 667 482 q 526 379 590 396 q 650 310 606 364 q 690 200 690 261 q 606 38 690 97 q 379 -21 522 -21 q 142 63 231 -21 q 56 232 69 129 l 201 232 q 382 90 224 90 q 519 126 475 90 q 554 203 554 154 q 504 288 554 256 q 385 315 458 315 l 303 315 l 303 431 l 382 431 q 531 532 531 431 q 490 608 531 581 q 379 636 450 636 z "},"и":{"ha":788,"x_min":97,"x_max":690,"o":"m 228 0 l 97 0 l 97 722 l 228 722 l 228 225 l 560 681 l 560 722 l 690 722 l 690 0 l 560 0 l 560 497 l 228 42 l 228 0 z "},"й":{"ha":788,"x_min":97,"x_max":690,"o":"m 228 0 l 97 0 l 97 722 l 228 722 l 228 225 l 560 681 l 560 722 l 690 722 l 690 0 l 560 0 l 560 497 l 228 42 l 228 0 m 397 815 q 257 856 308 815 q 196 971 206 896 l 313 971 q 397 904 317 904 q 482 971 478 904 l 599 971 q 524 846 588 886 q 397 815 474 815 z "},"к":{"ha":722,"x_min":97,"x_max":729,"o":"m 231 0 l 97 0 l 97 722 l 231 722 l 231 432 l 289 432 l 529 722 l 689 722 l 393 382 l 729 0 l 556 0 l 276 319 l 231 319 l 231 0 z "},"л":{"ha":775,"x_min":14,"x_max":678,"o":"m 153 722 l 678 722 l 678 0 l 544 0 l 544 608 l 272 608 l 239 236 q 165 49 226 106 q 14 0 111 0 l 14 119 q 83 142 63 119 q 110 225 104 165 l 153 722 z "},"м":{"ha":968,"x_min":97,"x_max":871,"o":"m 554 0 l 432 0 l 224 531 l 224 0 l 97 0 l 97 722 l 289 722 l 494 181 l 678 722 l 871 722 l 871 0 l 743 0 l 743 519 l 554 0 z "},"н":{"ha":794,"x_min":97,"x_max":697,"o":"m 231 0 l 97 0 l 97 722 l 231 722 l 231 444 l 564 444 l 564 722 l 697 722 l 697 0 l 564 0 l 564 331 l 231 331 l 231 0 z "},"о":{"ha":824,"x_min":56,"x_max":768,"o":"m 56 361 q 174 661 56 560 q 413 743 268 743 q 676 636 581 743 q 768 361 768 536 q 653 63 768 165 q 411 -21 558 -21 q 146 90 243 -21 q 56 361 56 192 m 194 361 q 265 149 194 222 q 414 88 324 88 q 576 167 519 88 q 629 361 629 239 q 560 575 629 503 q 413 635 503 635 q 250 556 308 635 q 194 361 194 483 z "},"п":{"ha":794,"x_min":97,"x_max":697,"o":"m 231 0 l 97 0 l 97 722 l 697 722 l 697 0 l 564 0 l 564 608 l 231 608 l 231 0 z "},"р":{"ha":846,"x_min":97,"x_max":790,"o":"m 97 722 l 207 722 l 228 628 q 472 743 317 743 q 714 632 628 743 q 790 367 790 532 q 686 67 790 171 q 463 -21 599 -21 q 231 93 308 -21 l 231 -250 l 97 -250 l 97 722 m 651 369 q 583 574 651 506 q 442 629 529 629 q 281 556 340 629 q 224 369 224 485 q 292 157 224 231 q 442 93 349 93 q 600 169 546 93 q 651 369 651 240 z "},"с":{"ha":769,"x_min":56,"x_max":714,"o":"m 568 232 l 714 232 q 604 44 697 115 q 397 -21 519 -21 q 143 89 238 -21 q 56 356 56 190 q 161 653 56 547 q 396 743 251 743 q 615 672 529 743 q 708 508 692 610 l 561 508 q 505 599 547 567 q 399 631 463 631 q 247 553 300 631 q 197 351 197 481 q 264 147 197 217 q 400 92 317 92 q 518 133 472 92 q 568 232 558 169 z "},"т":{"ha":667,"x_min":21,"x_max":646,"o":"m 400 0 l 267 0 l 267 608 l 21 608 l 21 722 l 646 722 l 646 608 l 400 608 l 400 0 z "},"у":{"ha":714,"x_min":14,"x_max":700,"o":"m 700 722 l 449 -10 q 353 -208 399 -156 q 213 -271 299 -271 q 126 -258 176 -271 l 126 -150 q 196 -160 165 -160 q 263 -130 239 -160 q 322 0 286 -100 l 279 0 l 14 722 l 158 722 l 363 108 l 567 722 l 700 722 z "},"ф":{"ha":1197,"x_min":56,"x_max":1142,"o":"m 532 -250 l 532 72 q 342 -21 467 -21 q 128 93 207 -21 q 56 367 56 197 q 143 657 56 556 q 332 743 217 743 q 532 649 458 743 l 532 1000 l 665 1000 l 665 649 q 865 743 739 743 q 1074 632 999 743 q 1142 367 1142 532 q 1049 67 1142 172 q 856 -21 972 -21 q 665 72 731 -21 l 665 -250 l 532 -250 m 1003 369 q 947 574 1003 506 q 835 629 903 629 q 701 556 747 629 q 658 369 658 488 q 708 157 658 228 q 835 93 754 93 q 961 169 917 93 q 1003 369 1003 242 m 194 369 q 249 151 194 224 q 363 93 292 93 q 500 175 456 93 q 539 369 539 246 q 483 572 539 504 q 363 629 438 629 q 238 557 283 629 q 194 369 194 489 z "},"х":{"ha":735,"x_min":14,"x_max":721,"o":"m 679 722 l 438 385 l 721 0 l 558 0 l 363 279 l 171 0 l 14 0 l 283 375 l 31 722 l 190 722 l 363 479 l 526 722 l 679 722 z "},"ц":{"ha":794,"x_min":97,"x_max":767,"o":"m 564 722 l 697 722 l 697 114 l 767 114 l 767 -194 l 643 -194 l 643 0 l 97 0 l 97 722 l 231 722 l 231 114 l 564 114 l 564 722 z "},"ч":{"ha":782,"x_min":90,"x_max":685,"o":"m 90 722 l 224 722 l 224 443 q 374 288 224 288 q 513 350 464 288 q 551 471 551 400 l 551 722 l 685 722 l 685 0 l 551 0 l 551 267 q 343 174 475 174 q 153 250 219 174 q 90 446 90 321 l 90 722 z "},"ш":{"ha":1122,"x_min":97,"x_max":1025,"o":"m 1025 0 l 97 0 l 97 722 l 231 722 l 231 114 l 494 114 l 494 722 l 628 722 l 628 114 l 892 114 l 892 722 l 1025 722 l 1025 0 z "},"щ":{"ha":1122,"x_min":97,"x_max":1094,"o":"m 971 0 l 97 0 l 97 722 l 231 722 l 231 114 l 494 114 l 494 722 l 628 722 l 628 114 l 892 114 l 892 722 l 1025 722 l 1025 114 l 1094 114 l 1094 -194 l 971 -194 l 971 0 z "},"ъ":{"ha":856,"x_min":14,"x_max":807,"o":"m 14 722 l 368 722 l 368 504 l 503 504 q 738 425 656 504 q 807 254 807 358 q 711 61 807 131 q 489 0 626 0 l 235 0 l 235 608 l 14 608 l 14 722 m 488 401 l 368 401 l 368 103 l 481 103 q 626 149 576 103 q 668 253 668 188 q 488 401 668 401 z "},"ы":{"ha":974,"x_min":97,"x_max":876,"o":"m 97 722 l 231 722 l 231 504 l 365 504 q 600 425 518 504 q 669 254 669 358 q 574 61 669 131 q 351 0 489 0 l 97 0 l 97 722 m 350 401 l 231 401 l 231 103 l 343 103 q 489 149 439 103 q 531 253 531 188 q 350 401 531 401 m 876 0 l 743 0 l 743 722 l 876 722 l 876 0 z "},"ь":{"ha":725,"x_min":97,"x_max":669,"o":"m 97 722 l 231 722 l 231 504 l 365 504 q 600 425 518 504 q 669 254 669 358 q 574 61 669 131 q 351 0 489 0 l 97 0 l 97 722 m 350 401 l 231 401 l 231 103 l 343 103 q 489 149 439 103 q 531 253 531 188 q 350 401 531 401 z "},"э":{"ha":769,"x_min":56,"x_max":714,"o":"m 56 232 l 201 232 q 268 124 213 161 q 378 92 314 92 q 517 154 465 92 q 571 318 564 214 l 333 318 l 333 424 l 568 424 q 381 631 543 631 q 264 594 311 631 q 208 508 221 563 l 61 508 q 182 689 79 624 q 383 743 267 743 q 636 626 547 743 q 714 356 714 524 q 607 64 714 165 q 381 -21 518 -21 q 147 63 240 -21 q 56 232 69 132 z "},"ю":{"ha":1110,"x_min":97,"x_max":1054,"o":"m 231 0 l 97 0 l 97 722 l 231 722 l 231 444 l 375 444 q 504 679 397 600 q 713 743 590 743 q 967 636 874 743 q 1054 361 1054 536 q 944 63 1054 165 q 711 -21 854 -21 q 464 81 557 -21 q 369 331 378 174 l 231 331 l 231 0 m 508 361 q 575 149 508 222 q 714 88 629 88 q 867 167 813 88 q 915 361 915 239 q 850 575 915 503 q 713 635 797 635 q 560 556 615 635 q 508 361 508 483 z "},"я":{"ha":744,"x_min":14,"x_max":647,"o":"m 171 0 l 14 0 l 231 276 q 111 360 156 299 q 71 488 71 415 q 161 669 71 606 q 349 722 235 722 l 647 722 l 647 0 l 514 0 l 514 267 l 382 267 l 171 0 m 210 493 q 247 406 210 438 q 326 379 278 379 l 514 379 l 514 621 l 364 621 q 243 581 283 621 q 210 493 210 547 z "},"ѐ":{"ha":804,"x_min":56,"x_max":742,"o":"m 589 208 l 733 208 q 613 36 703 99 q 410 -21 528 -21 q 143 88 239 -21 q 56 361 56 189 q 167 658 56 557 q 403 743 258 743 q 658 633 572 743 q 742 332 742 528 l 192 332 q 269 142 200 204 q 414 92 326 92 q 532 129 482 92 q 589 208 574 161 m 406 636 q 263 581 317 636 q 197 438 211 529 l 606 438 q 536 593 599 542 q 406 636 486 636 m 354 1021 l 496 831 l 376 831 l 182 1021 l 354 1021 z "},"ё":{"ha":804,"x_min":56,"x_max":742,"o":"m 589 208 l 733 208 q 613 36 703 99 q 410 -21 528 -21 q 143 88 239 -21 q 56 361 56 189 q 167 658 56 557 q 403 743 258 743 q 658 633 572 743 q 742 332 742 528 l 192 332 q 269 142 200 204 q 414 92 326 92 q 532 129 482 92 q 589 208 574 161 m 406 636 q 263 581 317 636 q 197 438 211 529 l 606 438 q 536 593 599 542 q 406 636 486 636 m 317 861 l 172 861 l 172 1000 l 317 1000 l 317 861 m 631 861 l 486 861 l 486 1000 l 631 1000 l 631 861 z "},"ђ":{"ha":818,"x_min":21,"x_max":728,"o":"m 417 810 l 261 810 l 261 640 q 472 743 340 743 q 668 664 600 743 q 728 471 728 593 l 728 -72 q 671 -222 728 -169 q 533 -271 619 -271 q 429 -254 481 -271 l 429 -144 q 513 -157 485 -157 q 577 -137 560 -157 q 594 -65 594 -118 l 594 469 q 440 629 594 629 q 308 574 360 629 q 261 444 261 522 l 261 0 l 128 0 l 128 810 l 21 810 l 21 924 l 128 924 l 128 1000 l 261 1000 l 261 924 l 417 924 l 417 810 z "},"ѓ":{"ha":549,"x_min":97,"x_max":528,"o":"m 231 0 l 97 0 l 97 722 l 528 722 l 528 608 l 231 608 l 231 0 m 199 831 l 340 1021 l 513 1021 l 318 831 l 199 831 z "},"є":{"ha":769,"x_min":56,"x_max":714,"o":"m 568 232 l 714 232 q 604 44 697 115 q 397 -21 519 -21 q 143 89 238 -21 q 56 356 56 190 q 161 653 56 547 q 396 743 251 743 q 615 672 529 743 q 708 508 692 610 l 561 508 q 505 599 547 567 q 399 631 463 631 q 261 574 314 631 q 201 424 214 519 l 436 424 l 436 318 l 199 318 q 271 140 206 200 q 400 92 322 92 q 518 133 472 92 q 568 232 558 169 z "},"ѕ":{"ha":710,"x_min":42,"x_max":654,"o":"m 519 196 q 456 288 519 257 q 310 329 418 304 q 119 414 176 358 q 72 538 72 461 q 154 693 72 639 q 353 743 228 743 q 563 679 482 743 q 649 532 632 624 l 513 532 q 351 638 489 638 q 238 610 275 638 q 207 550 207 586 q 241 483 207 506 q 375 439 275 461 q 588 357 528 406 q 654 206 654 303 q 565 35 654 97 q 353 -21 485 -21 q 124 49 208 -21 q 42 207 50 110 l 178 207 q 354 85 200 85 q 483 121 438 85 q 519 196 519 150 z "},"і":{"ha":328,"x_min":89,"x_max":239,"o":"m 239 843 l 89 843 l 89 1000 l 239 1000 l 239 843 m 231 0 l 97 0 l 97 722 l 231 722 l 231 0 z "},"ї":{"ha":328,"x_min":-65,"x_max":393,"o":"m 231 0 l 97 0 l 97 722 l 231 722 l 231 0 m 79 861 l -65 861 l -65 1000 l 79 1000 l 79 861 m 393 861 l 249 861 l 249 1000 l 393 1000 l 393 861 z "},"ј":{"ha":328,"x_min":-68,"x_max":239,"o":"m -68 -254 l -68 -144 q 15 -157 -12 -157 q 80 -137 63 -157 q 97 -65 97 -118 l 97 722 l 231 722 l 231 -72 q 174 -222 231 -169 q 36 -271 122 -271 q -68 -254 -17 -271 m 239 843 l 89 843 l 89 1000 l 239 1000 l 239 843 z "},"љ":{"ha":1158,"x_min":14,"x_max":1103,"o":"m 153 722 l 664 722 l 664 504 l 799 504 q 1033 425 951 504 q 1103 254 1103 358 q 1007 61 1103 131 q 785 0 922 0 l 531 0 l 531 608 l 272 608 l 239 236 q 172 56 226 113 q 14 0 118 0 l 14 119 q 81 139 61 119 q 110 225 104 163 l 153 722 m 783 401 l 664 401 l 664 103 l 776 103 q 922 149 872 103 q 964 253 964 188 q 783 401 964 401 z "},"њ":{"ha":1164,"x_min":97,"x_max":1108,"o":"m 231 0 l 97 0 l 97 722 l 231 722 l 231 444 l 536 444 l 536 722 l 669 722 l 669 504 l 804 504 q 1039 425 957 504 q 1108 254 1108 358 q 1013 61 1108 131 q 790 0 928 0 l 536 0 l 536 331 l 231 331 l 231 0 m 789 401 l 669 401 l 669 103 l 782 103 q 928 149 878 103 q 969 253 969 188 q 789 401 969 401 z "},"ћ":{"ha":818,"x_min":21,"x_max":728,"o":"m 261 0 l 128 0 l 128 810 l 21 810 l 21 924 l 128 924 l 128 1000 l 261 1000 l 261 924 l 417 924 l 417 810 l 261 810 l 261 640 q 472 743 340 743 q 668 664 600 743 q 728 471 728 593 l 728 0 l 594 0 l 594 469 q 440 629 594 629 q 308 574 360 629 q 261 444 261 522 l 261 0 z "},"ќ":{"ha":722,"x_min":97,"x_max":729,"o":"m 231 0 l 97 0 l 97 722 l 231 722 l 231 432 l 289 432 l 529 722 l 689 722 l 393 382 l 729 0 l 556 0 l 276 319 l 231 319 l 231 0 m 260 831 l 401 1021 l 574 1021 l 379 831 l 260 831 z "},"ѝ":{"ha":788,"x_min":97,"x_max":690,"o":"m 228 0 l 97 0 l 97 722 l 228 722 l 228 225 l 560 681 l 560 722 l 690 722 l 690 0 l 560 0 l 560 497 l 228 42 l 228 0 m 339 1021 l 481 831 l 361 831 l 167 1021 l 339 1021 z "},"ў":{"ha":714,"x_min":14,"x_max":700,"o":"m 700 722 l 449 -10 q 353 -208 399 -156 q 213 -271 299 -271 q 126 -258 176 -271 l 126 -150 q 196 -160 165 -160 q 263 -130 239 -160 q 322 0 286 -100 l 279 0 l 14 722 l 158 722 l 363 108 l 567 722 l 700 722 m 357 815 q 217 856 268 815 q 156 971 165 896 l 272 971 q 357 904 276 904 q 442 971 438 904 l 558 971 q 483 846 547 886 q 357 815 433 815 z "},"џ":{"ha":794,"x_min":97,"x_max":697,"o":"m 564 722 l 697 722 l 697 0 l 460 0 l 460 -194 l 336 -194 l 336 0 l 97 0 l 97 722 l 231 722 l 231 114 l 564 114 l 564 722 z "},"Ѣ":{"ha":1076,"x_min":14,"x_max":1021,"o":"m 304 0 l 304 874 l 14 874 l 14 1000 l 740 1000 l 740 874 l 446 874 l 446 643 l 629 643 q 932 549 831 643 q 1021 318 1021 465 q 907 72 1021 154 q 624 0 806 0 l 304 0 m 632 528 l 446 528 l 446 115 l 626 115 q 824 175 764 115 q 874 318 874 224 q 803 479 874 425 q 632 528 740 528 z "},"ѣ":{"ha":725,"x_min":-7,"x_max":669,"o":"m 386 694 l 231 694 l 231 504 l 365 504 q 600 425 518 504 q 669 254 669 358 q 574 61 669 131 q 351 0 489 0 l 97 0 l 97 694 l -7 694 l -7 808 l 97 808 l 97 924 l 231 924 l 231 808 l 386 808 l 386 694 m 350 401 l 231 401 l 231 103 l 343 103 q 489 149 439 103 q 531 253 531 188 q 350 401 531 401 z "},"Ѳ":{"ha":1075,"x_min":63,"x_max":1013,"o":"m 538 -21 q 179 133 310 -21 q 63 500 63 274 q 219 904 63 760 q 539 1021 347 1021 q 892 871 761 1021 q 1013 500 1013 732 q 858 99 1013 242 q 538 -21 731 -21 m 538 94 q 776 197 688 94 q 867 450 856 290 l 208 450 q 322 174 221 268 q 538 94 407 94 m 538 906 q 303 807 392 906 q 210 567 224 718 l 864 567 q 749 831 847 740 q 538 906 664 906 z "},"ѳ":{"ha":824,"x_min":56,"x_max":768,"o":"m 56 361 q 174 661 56 560 q 413 743 268 743 q 676 636 581 743 q 768 361 768 536 q 653 63 768 165 q 411 -21 558 -21 q 146 90 243 -21 q 56 361 56 192 m 414 88 q 565 151 508 88 q 626 311 615 210 l 197 311 q 276 138 210 197 q 414 88 333 88 m 413 635 q 263 572 321 635 q 197 417 210 514 l 625 417 q 546 588 613 529 q 413 635 492 635 z "},"Ѵ":{"ha":899,"x_min":0,"x_max":899,"o":"m 760 1000 l 899 1000 l 540 0 l 364 0 l 0 1000 l 150 1000 l 453 133 l 760 1000 z "},"ѵ":{"ha":714,"x_min":14,"x_max":700,"o":"m 561 722 l 700 722 l 446 0 l 265 0 l 14 722 l 160 722 l 360 108 l 561 722 z "},"Ґ":{"ha":689,"x_min":104,"x_max":675,"o":"m 543 1194 l 675 1194 l 675 881 l 246 881 l 246 0 l 104 0 l 104 1000 l 543 1000 l 543 1194 z "},"ґ":{"ha":549,"x_min":97,"x_max":528,"o":"m 231 0 l 97 0 l 97 722 l 404 722 l 404 896 l 528 896 l 528 608 l 231 608 l 231 0 z "},"Ғ":{"ha":689,"x_min":-21,"x_max":675,"o":"m 675 1000 l 675 881 l 246 881 l 246 567 l 507 567 l 507 450 l 246 450 l 246 0 l 104 0 l 104 450 l -21 450 l -21 567 l 104 567 l 104 1000 l 675 1000 z "},"ғ":{"ha":549,"x_min":28,"x_max":528,"o":"m 528 608 l 231 608 l 231 444 l 424 444 l 424 331 l 231 331 l 231 0 l 97 0 l 97 331 l 28 331 l 28 444 l 97 444 l 97 722 l 528 722 l 528 608 z "},"Җ":{"ha":1240,"x_min":7,"x_max":1268,"o":"m 50 1000 l 196 1000 l 404 576 l 553 576 l 553 1000 l 688 1000 l 688 576 l 835 576 l 1044 1000 l 1190 1000 l 940 521 l 1165 119 l 1268 119 l 1268 -194 l 1136 -194 l 1136 0 l 1071 0 l 832 456 l 688 456 l 688 0 l 553 0 l 553 456 l 408 456 l 169 0 l 7 0 l 300 521 l 50 1000 z "},"җ":{"ha":1033,"x_min":-7,"x_max":1068,"o":"m 35 722 l 182 722 l 357 432 l 442 432 l 442 722 l 569 722 l 569 432 l 667 432 l 843 722 l 990 722 l 781 385 l 957 114 l 1068 114 l 1068 -194 l 944 -194 l 944 0 l 874 0 l 671 319 l 569 319 l 569 0 l 442 0 l 442 319 l 354 319 l 151 0 l -7 0 l 244 385 l 35 722 z "},"Ҙ":{"ha":856,"x_min":49,"x_max":793,"o":"m 594 -194 q 538 -310 594 -267 q 415 -346 489 -346 q 290 -304 340 -346 q 236 -206 246 -267 l 340 -206 q 366 -245 344 -229 q 417 -261 388 -261 q 472 -244 451 -261 q 492 -196 492 -226 q 460 -143 492 -160 q 361 -126 429 -126 l 371 -18 q 135 72 219 -6 q 49 240 63 138 l 194 240 q 271 124 213 160 q 421 90 326 90 q 599 149 536 90 q 650 275 650 197 q 583 418 650 364 q 444 465 526 465 l 357 465 l 357 581 l 442 581 q 569 635 517 581 q 617 750 617 683 q 556 871 617 826 q 413 910 501 910 q 253 867 311 910 q 196 771 206 831 l 51 771 q 174 957 69 889 q 419 1021 271 1021 q 681 939 586 1021 q 760 760 760 868 q 706 611 760 676 q 585 531 657 554 q 743 432 686 511 q 793 272 793 364 q 694 64 793 144 q 468 -19 607 -8 l 468 -58 q 594 -194 594 -86 z "},"ҙ":{"ha":739,"x_min":56,"x_max":690,"o":"m 567 -194 q 510 -310 567 -267 q 388 -346 461 -346 q 263 -304 313 -346 q 208 -206 218 -267 l 313 -206 q 338 -245 317 -229 q 389 -261 360 -261 q 444 -244 424 -261 q 464 -196 464 -226 q 433 -143 464 -160 q 333 -126 401 -126 l 343 -19 q 132 71 210 -8 q 56 232 68 136 l 201 232 q 382 90 224 90 q 519 126 475 90 q 554 203 554 154 q 504 288 554 256 q 385 315 458 315 l 303 315 l 303 431 l 382 431 q 531 532 531 431 q 490 608 531 581 q 379 636 450 636 q 260 597 307 636 q 207 508 219 564 l 60 508 q 175 689 79 625 q 378 743 258 743 q 603 676 525 743 q 667 538 667 622 q 628 439 667 482 q 526 379 590 396 q 650 310 606 364 q 690 200 690 261 q 621 50 690 108 q 440 -18 556 -6 l 440 -58 q 567 -194 567 -86 z "},"Қ":{"ha":878,"x_min":104,"x_max":871,"o":"m 671 1000 l 821 1000 l 504 522 l 782 119 l 871 119 l 871 -194 l 739 -194 l 739 0 l 697 0 l 393 457 l 246 457 l 246 0 l 104 0 l 104 1000 l 246 1000 l 246 575 l 400 575 l 671 1000 z "},"қ":{"ha":731,"x_min":97,"x_max":750,"o":"m 529 722 l 689 722 l 393 382 l 626 114 l 750 114 l 750 -194 l 626 -194 l 626 0 l 556 0 l 276 319 l 231 319 l 231 0 l 97 0 l 97 722 l 231 722 l 231 432 l 289 432 l 529 722 z "},"Ҝ":{"ha":906,"x_min":104,"x_max":892,"o":"m 892 0 l 725 0 l 421 457 l 400 457 l 400 129 l 296 129 l 296 457 l 246 457 l 246 0 l 104 0 l 104 1000 l 246 1000 l 246 575 l 296 575 l 296 821 l 400 821 l 400 575 l 418 575 l 690 1000 l 839 1000 l 531 526 l 892 0 z "},"ҝ":{"ha":781,"x_min":97,"x_max":788,"o":"m 231 0 l 97 0 l 97 722 l 231 722 l 231 432 l 253 432 l 253 557 l 349 557 l 349 440 l 583 722 l 747 722 l 456 382 l 788 0 l 610 0 l 349 296 l 349 74 l 253 74 l 253 319 l 231 319 l 231 0 z "},"Ҡ":{"ha":1100,"x_min":1,"x_max":1086,"o":"m 1086 0 l 919 0 l 615 457 l 468 457 l 468 0 l 326 0 l 326 881 l 1 881 l 1 1000 l 468 1000 l 468 575 l 622 575 l 893 1000 l 1043 1000 l 726 522 l 1086 0 z "},"ҡ":{"ha":860,"x_min":14,"x_max":867,"o":"m 368 0 l 235 0 l 235 608 l 14 608 l 14 722 l 368 722 l 368 432 l 426 432 l 667 722 l 826 722 l 531 382 l 867 0 l 693 0 l 414 319 l 368 319 l 368 0 z "},"Ң":{"ha":982,"x_min":104,"x_max":968,"o":"m 735 1000 l 878 1000 l 878 119 l 968 119 l 968 -194 l 836 -194 l 836 0 l 735 0 l 735 446 l 246 446 l 246 0 l 104 0 l 104 1000 l 246 1000 l 246 565 l 735 565 l 735 1000 z "},"ң":{"ha":794,"x_min":97,"x_max":767,"o":"m 231 0 l 97 0 l 97 722 l 231 722 l 231 444 l 564 444 l 564 722 l 697 722 l 697 114 l 767 114 l 767 -194 l 643 -194 l 643 0 l 564 0 l 564 331 l 231 331 l 231 0 z "},"Ҫ":{"ha":1013,"x_min":63,"x_max":957,"o":"m 597 -343 q 461 -299 513 -343 q 417 -196 417 -258 q 446 -103 417 -150 q 525 -21 475 -56 q 171 133 293 -21 q 63 500 63 268 q 211 904 63 764 q 532 1021 335 1021 q 843 906 719 1021 q 956 679 946 811 l 813 679 q 714 850 799 789 q 532 903 639 903 q 286 789 372 903 q 207 500 207 685 q 307 189 207 297 q 524 99 390 99 q 736 181 653 99 q 814 353 808 251 l 957 353 q 881 150 950 242 q 721 21 819 69 q 586 -67 638 -19 q 524 -175 524 -122 q 603 -254 524 -254 q 672 -207 661 -254 l 781 -207 q 707 -311 761 -275 q 597 -343 661 -343 z "},"ҫ":{"ha":769,"x_min":56,"x_max":714,"o":"m 444 -343 q 308 -299 360 -343 q 264 -196 264 -258 q 293 -101 264 -149 q 374 -19 322 -54 q 136 97 222 -11 q 56 356 56 196 q 161 653 56 547 q 396 743 251 743 q 615 672 529 743 q 708 508 692 610 l 561 508 q 505 599 547 567 q 399 631 463 631 q 247 553 300 631 q 197 351 197 481 q 264 147 197 217 q 400 92 317 92 q 518 133 472 92 q 568 232 558 169 l 714 232 q 542 7 692 82 q 421 -78 469 -29 q 371 -175 371 -129 q 450 -254 371 -254 q 519 -207 508 -254 l 628 -207 q 554 -311 608 -275 q 444 -343 508 -343 z "},"Ү":{"ha":874,"x_min":0,"x_max":874,"o":"m 507 0 l 367 0 l 367 397 l 0 1000 l 156 1000 l 438 519 l 729 1000 l 874 1000 l 507 397 l 507 0 z "},"ү":{"ha":714,"x_min":14,"x_max":700,"o":"m 421 -250 l 288 -250 l 288 0 l 14 722 l 158 722 l 357 128 l 560 722 l 700 722 l 421 0 l 421 -250 z "},"Ұ":{"ha":874,"x_min":0,"x_max":874,"o":"m 507 0 l 367 0 l 367 381 l 179 381 l 179 497 l 306 497 l 0 1000 l 156 1000 l 438 519 l 729 1000 l 874 1000 l 567 497 l 693 497 l 693 381 l 507 381 l 507 0 z "},"ұ":{"ha":714,"x_min":14,"x_max":700,"o":"m 560 722 l 700 722 l 464 114 l 569 114 l 569 0 l 421 0 l 421 -250 l 288 -250 l 288 0 l 146 0 l 146 114 l 244 114 l 14 722 l 158 722 l 357 128 l 560 722 z "},"Ҳ":{"ha":906,"x_min":14,"x_max":908,"o":"m 881 1000 l 532 521 l 808 119 l 908 119 l 908 -194 l 776 -194 l 776 0 l 722 0 l 454 404 l 174 0 l 14 0 l 375 517 l 39 1000 l 206 1000 l 460 628 l 719 1000 l 881 1000 z "},"ҳ":{"ha":735,"x_min":14,"x_max":760,"o":"m 679 722 l 438 385 l 636 114 l 760 114 l 760 -194 l 636 -194 l 636 0 l 558 0 l 363 279 l 171 0 l 14 0 l 283 375 l 31 722 l 190 722 l 363 479 l 526 722 l 679 722 z "},"Ҷ":{"ha":910,"x_min":83,"x_max":896,"o":"m 806 1000 l 806 119 l 896 119 l 896 -194 l 764 -194 l 764 0 l 664 0 l 664 425 q 558 340 618 367 q 413 314 497 314 q 158 417 243 314 q 83 660 83 506 l 83 1000 l 225 1000 l 225 656 q 286 479 225 535 q 444 432 340 432 q 610 500 549 432 q 664 647 664 558 l 664 1000 l 806 1000 z "},"ҷ":{"ha":782,"x_min":90,"x_max":754,"o":"m 224 722 l 224 443 q 374 288 224 288 q 508 346 460 288 q 551 476 551 397 l 551 722 l 685 722 l 685 114 l 754 114 l 754 -194 l 631 -194 l 631 0 l 551 0 l 551 267 q 343 174 472 174 q 149 254 215 174 q 90 446 90 325 l 90 722 l 224 722 z "},"Ҹ":{"ha":910,"x_min":83,"x_max":806,"o":"m 664 1000 l 806 1000 l 806 0 l 664 0 l 664 425 q 510 325 606 349 l 510 129 l 406 129 l 406 314 q 160 414 244 317 q 83 660 83 504 l 83 1000 l 225 1000 l 225 656 q 406 433 225 453 l 406 821 l 510 821 l 510 439 q 625 521 582 458 q 664 650 664 578 l 664 1000 z "},"ҹ":{"ha":782,"x_min":90,"x_max":685,"o":"m 342 557 l 438 557 l 438 297 q 521 363 490 314 q 551 476 551 411 l 551 722 l 685 722 l 685 0 l 551 0 l 551 267 q 438 188 504 211 l 438 74 l 342 74 l 342 174 q 151 250 218 174 q 90 446 90 321 l 90 722 l 224 722 l 224 443 q 342 289 224 307 l 342 557 z "},"Һ":{"ha":896,"x_min":104,"x_max":826,"o":"m 246 0 l 104 0 l 104 1000 l 246 1000 l 246 585 q 496 686 343 686 q 746 586 657 686 q 826 340 826 494 l 826 0 l 685 0 l 685 344 q 626 521 685 467 q 478 568 576 568 q 310 510 375 568 q 246 363 246 453 l 246 0 z "},"һ":{"ha":788,"x_min":97,"x_max":697,"o":"m 231 0 l 97 0 l 97 1000 l 231 1000 l 231 543 q 442 646 310 646 q 638 567 569 646 q 697 374 697 496 l 697 0 l 564 0 l 564 372 q 410 532 564 532 q 276 475 328 532 q 231 343 231 424 l 231 0 z "},"Ӏ":{"ha":350,"x_min":104,"x_max":246,"o":"m 104 1000 l 246 1000 l 246 0 l 104 0 l 104 1000 z "},"Ӌ":{"ha":910,"x_min":83,"x_max":806,"o":"m 806 1000 l 806 0 l 706 0 l 706 -194 l 574 -194 l 574 119 l 664 119 l 664 425 q 558 340 618 367 q 413 314 497 314 q 158 417 243 314 q 83 660 83 506 l 83 1000 l 225 1000 l 225 656 q 286 479 225 535 q 444 432 340 432 q 610 500 549 432 q 664 647 664 558 l 664 1000 l 806 1000 z "},"ӌ":{"ha":782,"x_min":90,"x_max":685,"o":"m 685 0 l 606 0 l 606 -194 l 482 -194 l 482 114 l 551 114 l 551 267 q 343 174 472 174 q 149 254 215 174 q 90 446 90 325 l 90 722 l 224 722 l 224 443 q 374 288 224 288 q 508 346 460 288 q 551 476 551 397 l 551 722 l 685 722 l 685 0 z "},"ӏ":{"ha":350,"x_min":104,"x_max":246,"o":"m 104 1000 l 246 1000 l 246 0 l 104 0 l 104 1000 z "},"Ӕ":{"ha":1357,"x_min":0,"x_max":1288,"o":"m 1288 119 l 1288 0 l 692 0 l 692 253 l 307 253 l 153 0 l 0 0 l 615 1000 l 1288 1000 l 1288 881 l 833 881 l 833 567 l 1247 567 l 1247 450 l 833 450 l 833 119 l 1288 119 m 378 368 l 692 368 l 692 879 l 378 368 z "},"ӕ":{"ha":1289,"x_min":56,"x_max":1226,"o":"m 1074 208 l 1218 208 q 1094 35 1189 97 q 894 -21 1010 -21 q 601 128 693 -21 q 483 18 560 58 q 321 -21 410 -21 q 122 38 193 -21 q 56 189 56 92 q 321 413 56 379 l 540 440 l 540 499 q 493 604 540 568 q 374 638 450 638 q 263 610 306 638 q 211 521 218 581 l 69 521 q 176 692 83 633 q 379 743 257 743 q 628 626 554 743 q 888 743 722 743 q 1143 636 1056 743 q 1226 342 1226 533 l 676 342 q 765 133 682 196 q 899 92 819 92 q 1018 129 968 92 q 1074 208 1058 161 m 338 92 q 478 142 415 92 q 540 254 536 189 l 540 336 l 353 313 q 233 275 268 301 q 197 196 197 249 q 232 119 197 147 q 338 92 268 92 m 890 636 q 754 588 808 636 q 683 447 700 538 l 1090 447 q 1021 596 1083 547 q 890 636 971 636 z "},"Ә":{"ha":1013,"x_min":40,"x_max":950,"o":"m 208 721 l 65 721 q 226 949 97 867 q 488 1021 338 1021 q 842 865 718 1021 q 950 506 950 729 q 810 104 950 247 q 490 -21 686 -21 q 142 132 256 -21 q 40 511 42 267 l 806 511 q 708 815 801 714 q 489 903 629 903 q 208 721 279 903 m 797 394 l 192 394 q 290 169 199 250 q 490 99 369 99 q 704 183 624 99 q 797 394 774 258 z "},"ә":{"ha":804,"x_min":56,"x_max":742,"o":"m 64 514 q 196 689 96 628 q 396 743 281 743 q 663 629 571 743 q 742 361 742 531 q 639 68 742 169 q 401 -21 550 -21 q 133 99 222 -21 q 56 390 57 201 l 604 390 q 550 563 596 507 q 392 631 493 631 q 269 594 322 631 q 208 514 225 563 l 64 514 m 600 285 l 190 285 q 260 131 200 182 q 397 86 313 86 q 600 285 568 86 z "},"Ӣ":{"ha":999,"x_min":104,"x_max":894,"o":"m 243 0 l 104 0 l 104 1000 l 243 1000 l 243 242 l 753 946 l 753 1000 l 894 1000 l 894 0 l 753 0 l 753 758 l 243 56 l 243 0 m 693 1115 l 318 1115 l 318 1229 l 693 1229 l 693 1115 z "},"ӣ":{"ha":788,"x_min":97,"x_max":690,"o":"m 228 0 l 97 0 l 97 722 l 228 722 l 228 225 l 560 681 l 560 722 l 690 722 l 690 0 l 560 0 l 560 497 l 228 42 l 228 0 m 583 879 l 208 879 l 208 993 l 583 993 l 583 879 z "},"Ө":{"ha":1075,"x_min":63,"x_max":1013,"o":"m 538 -21 q 179 133 310 -21 q 63 500 63 274 q 219 904 63 760 q 539 1021 347 1021 q 892 871 761 1021 q 1013 500 1013 732 q 858 99 1013 242 q 538 -21 731 -21 m 538 94 q 776 197 688 94 q 867 450 856 290 l 208 450 q 322 174 221 268 q 538 94 407 94 m 538 906 q 303 807 392 906 q 210 567 224 718 l 864 567 q 749 831 847 740 q 538 906 664 906 z "},"ө":{"ha":824,"x_min":56,"x_max":768,"o":"m 56 361 q 174 661 56 560 q 413 743 268 743 q 676 636 581 743 q 768 361 768 536 q 653 63 768 165 q 411 -21 558 -21 q 146 90 243 -21 q 56 361 56 192 m 414 88 q 565 151 508 88 q 626 311 615 210 l 197 311 q 276 138 210 197 q 414 88 333 88 m 413 635 q 263 572 321 635 q 197 417 210 514 l 625 417 q 546 588 613 529 q 413 635 492 635 z "},"Ӯ":{"ha":822,"x_min":0,"x_max":822,"o":"m 822 1000 l 503 192 q 404 29 454 75 q 261 -21 349 -21 q 175 -8 225 -21 l 175 106 q 244 96 214 96 q 323 124 296 96 q 376 232 350 153 l 329 232 l 0 1000 l 149 1000 l 421 335 l 685 1000 l 822 1000 m 610 1115 l 235 1115 l 235 1229 l 610 1229 l 610 1115 z "},"ӯ":{"ha":714,"x_min":14,"x_max":700,"o":"m 700 722 l 449 -10 q 353 -208 399 -156 q 213 -271 299 -271 q 126 -258 176 -271 l 126 -150 q 196 -160 165 -160 q 263 -130 239 -160 q 322 0 286 -100 l 279 0 l 14 722 l 158 722 l 363 108 l 567 722 l 700 722 m 544 879 l 169 879 l 169 993 l 544 993 l 544 879 z "},"Ẁ":{"ha":1338,"x_min":7,"x_max":1331,"o":"m 1200 1000 l 1331 1000 l 1067 0 l 903 0 l 676 847 l 443 0 l 269 0 l 7 1000 l 151 1000 l 364 168 l 593 1000 l 769 1000 l 986 171 l 1200 1000 m 603 1257 l 744 1067 l 625 1067 l 431 1257 l 603 1257 z "},"ẁ":{"ha":1125,"x_min":21,"x_max":1104,"o":"m 971 722 l 1104 722 l 893 0 l 739 0 l 564 571 l 392 0 l 232 0 l 21 722 l 160 722 l 315 142 l 488 722 l 647 722 l 817 144 l 971 722 m 482 1021 l 624 831 l 504 831 l 310 1021 l 482 1021 z "},"Ẃ":{"ha":1338,"x_min":7,"x_max":1331,"o":"m 1200 1000 l 1331 1000 l 1067 0 l 903 0 l 676 847 l 443 0 l 269 0 l 7 1000 l 151 1000 l 364 168 l 593 1000 l 769 1000 l 986 171 l 1200 1000 m 601 1067 l 743 1257 l 915 1257 l 721 1067 l 601 1067 z "},"ẃ":{"ha":1125,"x_min":21,"x_max":1104,"o":"m 971 722 l 1104 722 l 893 0 l 739 0 l 564 571 l 392 0 l 232 0 l 21 722 l 160 722 l 315 142 l 488 722 l 647 722 l 817 144 l 971 722 m 503 831 l 644 1021 l 817 1021 l 622 831 l 503 831 z "},"Ẅ":{"ha":1338,"x_min":7,"x_max":1331,"o":"m 1200 1000 l 1331 1000 l 1067 0 l 903 0 l 676 847 l 443 0 l 269 0 l 7 1000 l 151 1000 l 364 168 l 593 1000 l 769 1000 l 986 171 l 1200 1000 m 583 1097 l 439 1097 l 439 1236 l 583 1236 l 583 1097 m 897 1097 l 753 1097 l 753 1236 l 897 1236 l 897 1097 z "},"ẅ":{"ha":1125,"x_min":21,"x_max":1104,"o":"m 971 722 l 1104 722 l 893 0 l 739 0 l 564 571 l 392 0 l 232 0 l 21 722 l 160 722 l 315 142 l 488 722 l 647 722 l 817 144 l 971 722 m 478 861 l 333 861 l 333 1000 l 478 1000 l 478 861 m 792 861 l 647 861 l 647 1000 l 792 1000 l 792 861 z "},"Ạ":{"ha":981,"x_min":0,"x_max":981,"o":"m 824 0 l 725 253 l 249 253 l 149 0 l 0 0 l 411 1000 l 571 1000 l 981 0 l 824 0 m 294 368 l 679 368 l 489 858 l 294 368 m 415 -289 l 415 -132 l 565 -132 l 565 -289 l 415 -289 z "},"ạ":{"ha":764,"x_min":56,"x_max":674,"o":"m 69 521 q 175 693 85 635 q 379 743 254 743 q 604 667 525 743 q 674 493 674 601 l 674 0 l 564 0 l 547 99 q 306 -21 458 -21 q 115 43 185 -21 q 56 188 56 99 q 131 353 56 293 q 329 426 197 404 l 540 463 l 540 499 q 492 606 540 571 q 374 638 449 638 q 211 521 229 638 l 69 521 m 540 358 l 361 326 q 235 282 272 311 q 197 200 197 253 q 338 92 197 92 q 486 150 425 92 q 540 265 540 200 l 540 358 m 315 -289 l 315 -132 l 465 -132 l 465 -289 l 315 -289 z "},"Ả":{"ha":981,"x_min":0,"x_max":981,"o":"m 824 0 l 725 253 l 249 253 l 149 0 l 0 0 l 411 1000 l 571 1000 l 981 0 l 824 0 m 294 368 l 679 368 l 489 858 l 294 368 m 361 1222 l 313 1286 q 397 1331 358 1318 q 483 1343 435 1343 q 617 1306 568 1343 q 660 1221 660 1272 q 533 1088 660 1117 l 533 1042 l 440 1042 l 440 1156 q 531 1174 504 1158 q 557 1222 557 1189 q 482 1258 557 1258 q 424 1251 449 1258 q 361 1222 399 1243 z "},"ả":{"ha":764,"x_min":56,"x_max":674,"o":"m 69 521 q 175 693 85 635 q 379 743 254 743 q 604 667 525 743 q 674 493 674 601 l 674 0 l 564 0 l 547 99 q 306 -21 458 -21 q 115 43 185 -21 q 56 188 56 99 q 131 353 56 293 q 329 426 197 404 l 540 463 l 540 499 q 492 606 540 571 q 374 638 449 638 q 211 521 229 638 l 69 521 m 540 358 l 361 326 q 235 282 272 311 q 197 200 197 253 q 338 92 197 92 q 486 150 425 92 q 540 265 540 200 l 540 358 m 246 1006 l 197 1069 q 281 1114 243 1101 q 368 1126 319 1126 q 501 1089 453 1126 q 544 1004 544 1056 q 418 871 544 900 l 418 825 l 325 825 l 325 939 q 415 957 389 942 q 442 1006 442 972 q 367 1042 442 1042 q 308 1034 333 1042 q 246 1006 283 1026 z "},"Ấ":{"ha":981,"x_min":0,"x_max":981,"o":"m 824 0 l 725 253 l 249 253 l 149 0 l 0 0 l 411 1000 l 571 1000 l 981 0 l 824 0 m 294 368 l 679 368 l 489 858 l 294 368 m 728 1042 l 593 1042 l 489 1133 l 385 1042 l 250 1042 l 414 1194 l 565 1194 l 728 1042 m 808 1288 l 981 1288 l 786 1136 l 667 1136 l 808 1288 z "},"ấ":{"ha":764,"x_min":56,"x_max":872,"o":"m 69 521 q 175 693 85 635 q 379 743 254 743 q 604 667 525 743 q 674 493 674 601 l 674 0 l 564 0 l 547 99 q 306 -21 458 -21 q 115 43 185 -21 q 56 188 56 99 q 131 353 56 293 q 329 426 197 404 l 540 463 l 540 499 q 492 606 540 571 q 374 638 449 638 q 211 521 229 638 l 69 521 m 540 358 l 361 326 q 235 282 272 311 q 197 200 197 253 q 338 92 197 92 q 486 150 425 92 q 540 265 540 200 l 540 358 m 617 831 l 482 831 l 378 944 l 274 831 l 139 831 l 303 1021 l 454 1021 l 617 831 m 700 1124 l 872 1124 l 678 933 l 558 933 l 700 1124 z "},"Ầ":{"ha":981,"x_min":0,"x_max":981,"o":"m 824 0 l 725 253 l 249 253 l 149 0 l 0 0 l 411 1000 l 571 1000 l 981 0 l 824 0 m 294 368 l 679 368 l 489 858 l 294 368 m 729 1040 l 594 1040 l 490 1132 l 386 1040 l 251 1040 l 415 1193 l 567 1193 l 729 1040 m 838 1136 l 718 1136 l 524 1289 l 696 1289 l 838 1136 z "},"ầ":{"ha":764,"x_min":56,"x_max":718,"o":"m 69 521 q 175 693 85 635 q 379 743 254 743 q 604 667 525 743 q 674 493 674 601 l 674 0 l 564 0 l 547 99 q 306 -21 458 -21 q 115 43 185 -21 q 56 188 56 99 q 131 353 56 293 q 329 426 197 404 l 540 463 l 540 499 q 492 606 540 571 q 374 638 449 638 q 211 521 229 638 l 69 521 m 540 358 l 361 326 q 235 282 272 311 q 197 200 197 253 q 338 92 197 92 q 486 150 425 92 q 540 265 540 200 l 540 358 m 617 831 l 482 831 l 378 944 l 274 831 l 139 831 l 303 1021 l 454 1021 l 617 831 m 718 951 l 599 951 l 404 1142 l 576 1142 l 718 951 z "},"Ẩ":{"ha":981,"x_min":0,"x_max":981,"o":"m 824 0 l 725 253 l 249 253 l 149 0 l 0 0 l 411 1000 l 571 1000 l 981 0 l 824 0 m 294 368 l 679 368 l 489 858 l 294 368 m 729 1029 l 594 1029 l 490 1121 l 386 1029 l 251 1029 l 415 1182 l 567 1182 l 729 1029 m 599 1233 l 550 1275 q 721 1311 633 1311 q 854 1286 806 1311 q 897 1233 897 1265 q 771 1147 897 1167 l 771 1118 l 678 1118 l 678 1190 q 767 1203 740 1193 q 794 1233 794 1213 q 721 1257 794 1257 q 599 1233 664 1257 z "},"ẩ":{"ha":764,"x_min":56,"x_max":799,"o":"m 69 521 q 175 693 85 635 q 379 743 254 743 q 604 667 525 743 q 674 493 674 601 l 674 0 l 564 0 l 547 99 q 306 -21 458 -21 q 115 43 185 -21 q 56 188 56 99 q 131 353 56 293 q 329 426 197 404 l 540 463 l 540 499 q 492 606 540 571 q 374 638 449 638 q 211 521 229 638 l 69 521 m 540 358 l 361 326 q 235 282 272 311 q 197 200 197 253 q 338 92 197 92 q 486 150 425 92 q 540 265 540 200 l 540 358 m 617 831 l 482 831 l 378 944 l 274 831 l 139 831 l 303 1021 l 454 1021 l 617 831 m 500 1090 l 451 1154 q 535 1199 497 1186 q 622 1211 574 1211 q 756 1174 707 1211 q 799 1089 799 1140 q 672 956 799 985 l 672 910 l 579 910 l 579 1024 q 669 1042 643 1026 q 696 1090 696 1057 q 621 1126 696 1126 q 563 1119 588 1126 q 500 1090 538 1111 z "},"Ẫ":{"ha":981,"x_min":0,"x_max":981,"o":"m 824 0 l 725 253 l 249 253 l 149 0 l 0 0 l 411 1000 l 571 1000 l 981 0 l 824 0 m 294 368 l 679 368 l 489 858 l 294 368 m 729 1021 l 594 1021 l 490 1113 l 386 1021 l 251 1021 l 415 1174 l 567 1174 l 729 1021 m 289 1193 l 289 1283 q 413 1321 351 1321 q 507 1297 457 1321 q 579 1278 549 1278 q 692 1321 624 1278 l 692 1231 q 574 1193 628 1193 q 485 1215 528 1193 q 407 1236 440 1236 q 289 1193 358 1236 z "},"ẫ":{"ha":764,"x_min":56,"x_max":674,"o":"m 69 521 q 175 693 85 635 q 379 743 254 743 q 604 667 525 743 q 674 493 674 601 l 674 0 l 564 0 l 547 99 q 306 -21 458 -21 q 115 43 185 -21 q 56 188 56 99 q 131 353 56 293 q 329 426 197 404 l 540 463 l 540 499 q 492 606 540 571 q 374 638 449 638 q 211 521 229 638 l 69 521 m 540 358 l 361 326 q 235 282 272 311 q 197 200 197 253 q 338 92 197 92 q 486 150 425 92 q 540 265 540 200 l 540 358 m 617 790 l 482 790 l 378 904 l 274 790 l 139 790 l 303 981 l 454 981 l 617 790 m 164 1013 l 164 1125 q 288 1171 228 1171 q 382 1142 332 1171 q 453 1118 424 1118 q 503 1129 479 1118 q 567 1171 528 1140 l 567 1058 q 504 1022 529 1032 q 447 1013 479 1013 q 360 1039 403 1013 q 283 1065 315 1065 q 164 1013 233 1065 z "},"Ậ":{"ha":981,"x_min":0,"x_max":981,"o":"m 824 0 l 725 253 l 249 253 l 149 0 l 0 0 l 411 1000 l 571 1000 l 981 0 l 824 0 m 294 368 l 679 368 l 489 858 l 294 368 m 729 1067 l 594 1067 l 490 1181 l 386 1067 l 251 1067 l 415 1257 l 567 1257 l 729 1067 m 415 -289 l 415 -132 l 565 -132 l 565 -289 l 415 -289 z "},"ậ":{"ha":764,"x_min":56,"x_max":674,"o":"m 69 521 q 175 693 85 635 q 379 743 254 743 q 604 667 525 743 q 674 493 674 601 l 674 0 l 564 0 l 547 99 q 306 -21 458 -21 q 115 43 185 -21 q 56 188 56 99 q 131 353 56 293 q 329 426 197 404 l 540 463 l 540 499 q 492 606 540 571 q 374 638 449 638 q 211 521 229 638 l 69 521 m 540 358 l 361 326 q 235 282 272 311 q 197 200 197 253 q 338 92 197 92 q 486 150 425 92 q 540 265 540 200 l 540 358 m 617 831 l 482 831 l 378 944 l 274 831 l 139 831 l 303 1021 l 454 1021 l 617 831 m 290 -289 l 290 -132 l 440 -132 l 440 -289 l 290 -289 z "},"Ắ":{"ha":981,"x_min":0,"x_max":981,"o":"m 824 0 l 725 253 l 249 253 l 149 0 l 0 0 l 411 1000 l 571 1000 l 981 0 l 824 0 m 294 368 l 679 368 l 489 858 l 294 368 m 283 1176 l 400 1176 q 485 1100 408 1100 q 569 1176 561 1100 l 686 1176 q 483 1029 660 1029 q 283 1176 310 1029 m 558 1317 l 731 1317 l 536 1194 l 417 1194 l 558 1317 z "},"ắ":{"ha":764,"x_min":56,"x_max":674,"o":"m 69 521 q 175 693 85 635 q 379 743 254 743 q 604 667 525 743 q 674 493 674 601 l 674 0 l 564 0 l 547 99 q 306 -21 458 -21 q 115 43 185 -21 q 56 188 56 99 q 131 353 56 293 q 329 426 197 404 l 540 463 l 540 499 q 492 606 540 571 q 374 638 449 638 q 211 521 229 638 l 69 521 m 540 358 l 361 326 q 235 282 272 311 q 197 200 197 253 q 338 92 197 92 q 486 150 425 92 q 540 265 540 200 l 540 358 m 176 990 l 293 990 q 378 894 301 894 q 438 917 418 894 q 463 990 458 940 l 579 990 q 376 806 553 806 q 176 990 203 806 m 458 1197 l 631 1197 l 436 1007 l 317 1007 l 458 1197 z "},"Ằ":{"ha":981,"x_min":0,"x_max":981,"o":"m 824 0 l 725 253 l 249 253 l 149 0 l 0 0 l 411 1000 l 571 1000 l 981 0 l 824 0 m 294 368 l 679 368 l 489 858 l 294 368 m 283 1174 l 400 1174 q 485 1097 408 1097 q 569 1174 561 1097 l 686 1174 q 485 1026 660 1026 q 283 1174 310 1026 m 557 1186 l 438 1186 l 243 1308 l 415 1308 l 557 1186 z "},"ằ":{"ha":764,"x_min":56,"x_max":674,"o":"m 69 521 q 175 693 85 635 q 379 743 254 743 q 604 667 525 743 q 674 493 674 601 l 674 0 l 564 0 l 547 99 q 306 -21 458 -21 q 115 43 185 -21 q 56 188 56 99 q 131 353 56 293 q 329 426 197 404 l 540 463 l 540 499 q 492 606 540 571 q 374 638 449 638 q 211 521 229 638 l 69 521 m 540 358 l 361 326 q 235 282 272 311 q 197 200 197 253 q 338 92 197 92 q 486 150 425 92 q 540 265 540 200 l 540 358 m 176 986 l 293 986 q 378 890 301 890 q 438 913 418 890 q 463 986 458 936 l 579 986 q 376 801 553 801 q 176 986 203 801 m 444 985 l 325 985 l 131 1175 l 303 1175 l 444 985 z "},"Ẳ":{"ha":981,"x_min":0,"x_max":981,"o":"m 824 0 l 725 253 l 249 253 l 149 0 l 0 0 l 411 1000 l 571 1000 l 981 0 l 824 0 m 294 368 l 679 368 l 489 858 l 294 368 m 283 1169 l 400 1169 q 485 1093 408 1093 q 569 1169 561 1093 l 686 1169 q 485 1022 660 1022 q 283 1169 310 1022 m 365 1268 l 317 1310 q 488 1346 400 1346 q 621 1321 572 1346 q 664 1268 664 1300 q 538 1182 664 1201 l 538 1153 l 444 1153 l 444 1225 q 534 1238 507 1228 q 561 1268 561 1247 q 488 1292 561 1292 q 365 1268 431 1292 z "},"ẳ":{"ha":764,"x_min":56,"x_max":674,"o":"m 69 521 q 175 693 85 635 q 379 743 254 743 q 604 667 525 743 q 674 493 674 601 l 674 0 l 564 0 l 547 99 q 306 -21 458 -21 q 115 43 185 -21 q 56 188 56 99 q 131 353 56 293 q 329 426 197 404 l 540 463 l 540 499 q 492 606 540 571 q 374 638 449 638 q 211 521 229 638 l 69 521 m 540 358 l 361 326 q 235 282 272 311 q 197 200 197 253 q 338 92 197 92 q 486 150 425 92 q 540 265 540 200 l 540 358 m 176 976 l 293 976 q 378 881 301 881 q 438 903 418 881 q 463 976 458 926 l 579 976 q 376 792 553 792 q 176 976 203 792 m 253 1143 l 204 1207 q 288 1251 250 1239 q 375 1264 326 1264 q 508 1226 460 1264 q 551 1142 551 1193 q 425 1008 551 1038 l 425 963 l 332 963 l 332 1076 q 422 1094 396 1079 q 449 1143 449 1110 q 374 1179 449 1179 q 315 1172 340 1179 q 253 1143 290 1164 z "},"Ẵ":{"ha":981,"x_min":0,"x_max":981,"o":"m 824 0 l 725 253 l 249 253 l 149 0 l 0 0 l 411 1000 l 571 1000 l 981 0 l 824 0 m 294 368 l 679 368 l 489 858 l 294 368 m 283 1172 l 400 1172 q 485 1096 408 1096 q 569 1172 561 1096 l 686 1172 q 483 1025 660 1025 q 283 1172 310 1025 m 289 1193 l 289 1283 q 414 1319 353 1319 q 507 1297 457 1319 q 519 1292 511 1294 q 579 1278 551 1278 q 692 1319 624 1278 l 692 1231 q 628 1201 651 1208 q 572 1193 604 1193 q 481 1215 528 1193 q 468 1221 474 1218 q 408 1235 436 1235 q 289 1193 358 1235 z "},"ẵ":{"ha":764,"x_min":56,"x_max":674,"o":"m 69 521 q 175 693 85 635 q 379 743 254 743 q 604 667 525 743 q 674 493 674 601 l 674 0 l 564 0 l 547 99 q 306 -21 458 -21 q 115 43 185 -21 q 56 188 56 99 q 131 353 56 293 q 329 426 197 404 l 540 463 l 540 499 q 492 606 540 571 q 374 638 449 638 q 211 521 229 638 l 69 521 m 540 358 l 361 326 q 235 282 272 311 q 197 200 197 253 q 338 92 197 92 q 486 150 425 92 q 540 265 540 200 l 540 358 m 176 969 l 293 969 q 378 874 301 874 q 438 897 418 874 q 463 969 458 919 l 579 969 q 376 785 553 785 q 176 969 203 785 m 164 1000 l 164 1113 q 288 1158 228 1158 q 382 1129 332 1158 q 453 1106 424 1106 q 503 1117 479 1106 q 567 1158 528 1128 l 567 1046 q 504 1010 529 1019 q 447 1000 479 1000 q 360 1026 403 1000 q 283 1053 315 1053 q 164 1000 233 1053 z "}}}
